<mxfile host="Electron" modified="2024-03-22T15:46:09.149Z" agent="Mozilla/5.0 (Macintosh; Intel Mac OS X 10_15_7) AppleWebKit/537.36 (KHTML, like Gecko) draw.io/24.0.4 Chrome/120.0.6099.109 Electron/28.1.0 Safari/537.36" etag="0JAV8Y4TKcFf-jkftrHz" version="24.0.4" type="device">
  <diagram name="Page-1" id="SfVlUyl5wRMGaTKCeL0i">
    <mxGraphModel dx="2818" dy="1436" grid="1" gridSize="10" guides="1" tooltips="1" connect="1" arrows="1" fold="1" page="1" pageScale="1" pageWidth="850" pageHeight="1100" math="0" shadow="0">
      <root>
        <mxCell id="0" />
        <mxCell id="1" parent="0" />
        <mxCell id="FnWuRW-2m__SUdxNsgl8-2" value="" style="rounded=0;whiteSpace=wrap;html=1;fillColor=none;strokeColor=none;" vertex="1" parent="1">
          <mxGeometry x="-340" y="200" width="1200" height="700" as="geometry" />
        </mxCell>
        <mxCell id="FnWuRW-2m__SUdxNsgl8-1" value="" style="shape=image;verticalLabelPosition=bottom;labelBackgroundColor=default;verticalAlign=top;aspect=fixed;imageAspect=0;image=data:image/png,iVBORw0KGgoAAAANSUhEUgAAA1IAAAPZCAMAAAAsj+suAAAABGdBTUEAALGPC/xhBQAAAAFzUkdCAK7OHOkAAABjUExURUdwTOzz+EyQzU6TzoqsyUGLyDZ0pzhqlI653GWLq0mPzFWXzkSNzD+MzEOKxTVypVOVz+nz/O/1+e3x9DV2rFiZ0Oj2/+n9/0CEvUuEtD98r1OMvYq02b7g/XGgyNLw/6bM7QqhY6UAAAAKdFJOUwD///9b///4H6fChXsBAAAgAElEQVR42uxda4/aSBA8hdP4spa2/aGRTCP5///Mc3fP2IblMTNAAnZVssk+2FOSo+iqfv7zDwAAwPbw77/4NwCAp+G/303TgFQA8CSMhOJAzW+QCgCeofmaRliYlFT41wCARzVf05AQE0vTBKg/AHhc84VAgZlpDFRCIBUAPKb5wuiiRlKNYUppZZbqP/zDAEC1ieLgiL+P9EKgAoAqE/XbTFSilBOKgpirAqkAoNxESSCxAMVKJoWyisPorqD+AKBU85GpPErhKTKKSU3V+DFIBQD5mk+zEryQe4lQ4/sipPqPoP4AoMBEaTQy6zRRKmUpxiilX2XkKQAg20RpISqZqDAxK6X8jGBGuIag/gDgrokyXWeZiCnft8ikE8VK1fhVrfyiRwkAbpmolNdbBqYbGB8N9QcA101Uk+xTyKSUEHqUAOCq5pO5pJsJLV4hoQ4AVwhFHArB7q1gqQDgh+Yb+SFUFKJCzGEww1IBwBmhRLTNnIoZxayTH+M7sFQAMGs+Zm83KhZ+miC08i/GPgBgIpTm7WKxaeJJNqdM+1l4C6hSAcB/sePcm46Ko1TqpJg+hPoDtg1r55sbY+soNSXeLU3RQP0Bm9Z8IeYkaNl4VMKp+G3TfwEJdWDDhApBl4lFXpTnJubqVAp1+otA/QGbNVGcJqHICVWWQF80q8dE+sinoKkOJNSB7Zko0g5ZH9C1Ym14gFIU33OC6n6yAEsFbM5EWSMRxd9kOWZYAZq9lYzsHP+jDapUwJY0H2lU0oEnT9QFepBSsajlvUkmAxnqD9gQoYTOW85P60sVlDojpPVTQP0BWzBRtpFZSoc4iikmKgHRowSs30RRExvzXkwpG/vQAUVUqYB1az7PyQV+cZQKxie2EzqwVMCaCRVElgsvX8eomLHAtQ9gvZqvsQqUV47Ci0FiIVCsSR0JdWCdhFIi2QJmSumJ18GcVBz7YHSoA2vUfMG3xGqE4vD6KGXdgxK8PZ0DqlTAqghFp6XcjLouu9HSUnDsrvCgE1MaVJFUx/lsYD2aj+euIa/pxrou3x7asJKtGLVEW5YkybiCKRCewxYsFbASQgVJ+y5pmja8x6m4c5bYR+j73e4oqXWpJErRSWBElQpYgYlqJF0NiIyKb3eFX8qxUzgcd/v9fneYvo+KKcWYpQLWEqKCJc+XdzdC0n03gg17O616J+73EUezU1wk/FJ80vkRsUF6qD/ggwllrXYjQZowS79LiyMur7y0rx80Qg1GqWH/LXHHROl+ipi89yXqUH/ARxLqt5soe0bLqVjjHEr5vZvjfkKrgerA4ydD4ULaOOdotGLcegM+1kR5asGGmE6aj3y6ncJdSsmk+WKcGn87HkJ5qdhT8exLNFGlAj4Pv9P56sXxwp+hha41kfvWJD60w0ymGUfxTKAfGc1M/53GSFz7AD7ORFFVW6y25ok1LI1vu2E4jVHThwdJ7ugmOW+f0YGlAj5H842U8E0t5Y1E1gE4vh2OZ7FpWL6769lJVdXNzppRhKUCPodQpKqvbitfvCTP393snk6k3/h+N/7aqqVSBoaKpRWp4txgkh74BBO1KEPVLLnU5Fy/299HrFIVRsP4WM2QaI8TLBXw7iaqYS9F1e3ls2+Qu4Rq/dee0yb00sqvC0zW7RSwVMBba75Yo3WzUpE2YJKvjAjlpBp22k1bKDFpLv16izssFfC+ms8rqRymIYxy4XfcZzNKSXWUikEPa9q1wS2tUgnUH/Cmmo8WpwLycwbLMSqW6ywaLn96d5R0CieXxVNCg+MSTVgq4C1NlI7R0qytKLMCy3PSTvJC1DmpvJ2CcvPnJ10b5Kd+of6AdzNRjft9njq/C8/tajXqqzRCJXSHeO+NcjkVaI5Wnq4QkAp4oxCl1dm043zxo0D4kRy7HDYNF11Vd8w9ThWj1DRhPL8GYDUt8EYmingaF6Q77bAXG/p0ynBkS1cUm5a0Gjpr/OPcSu80vDUNf6gjawgJdeCvaz4dMgyT4uMQys4F+KLlW91H9yJXq3GqHWzsgwo7aM82zODaB/AGJkoLu34eqrIFicI1zVfmqIb2W7JGE+NRX38VmBbf2r4Yu/UGUgF/U/Ox0WmxM7mcUYduSHWmoSTTN/z8xLdkZtA58PkrQBojhqUC/iKhpIZGKc/mhaTD7sHodIpefPMmT9mHqy3vV6a1GIEK+Fuab/Tz9YuY3bzI1y6PQtm0+hKO3beZWfUfnfCoUgF/h1BjiGJpavnkeYn+XmwaKqj1y/v+qpbSWnzT3RYgFfCnNZ+nyqWKTq6v6LAf2nZfh1vU0oR6rOVyVfi0K9qwVMAfJRRXju3Oqyp5N2UlqnGNWF3ve2SqAiiL/9Uw9gH8Mc1HQhxPcNQIKwtvx1hRmrkx3Is+wxUiXfoe26NU1QrP5vLEmmmh/oDXQ2eiGnMcgaji9JrlDOTQPi/Jd3mUalR/XEeqMUxpE67m1KH+gNdrPh+Jnba3Vgk/OQ5F/BnKNWA7fqKvY7zpWVuiqZyC+gNea6LiSFTerYBls4J3V2gzYP4Ix1D41fPPtD3Hrg4u3YDmj2ZGOwXwWhPl61OKZgzpdJr2PqGGp0lAXflyskKp9OKHlc5gqYBXmaiGy5PSi2ezvez3x0qSDJczFMN9UsV8eiajrF2Jp9Ylse4/LCcDXqT5lq/5F9rkrscor/WEw/Fmtm7YP46fA1Xfvu/ZKZ115YNTPxOFtHwTlgp4uuazrPl8ZpcLll+Sn2CTY1vQApvPmuHOA3cFeQpvqp3DlJeoaJS8B6g/4ImE0lOGMRmW5iFyCRVvBgTp9WhA+9yYlEE7XVt7lNyz2enKIqe+KU4XUGGpgGeaKO8gSkd3k5LL91NMSqj2+c1HOY/RknIvmUc+eA6snF4RNKFuR0lRpQKeY6KEeJor5/n6U07Wzz0Uy40Z+BuibyhTfDdyhcPukKX+4nhyoHQGKx7dsb8uqlTAEzQfNSGVdE8IRNnOhCqXiT0VrS0nm5ac3T0ZF0kV5sP37iKh/oAHNV/syqsa34hThvLd7d8DX7KkUVW7EvYoAY9pPppnZOtmJIj7X/u3wa/eywCBazlFuPYBPGSiuJpSnh0cQ5SqrvcIU61aqp6nsFtzmUpXbXBDUH9AReJcnz21E4Yhab7928GWk4XKw6feLsxIqAM1hGpix3mRQppe+TVC2eW1tn0jPrWxSkVUN/ihHSNjmBvlI9QfUKj5bBszU6ik1PjU63XHefcmqYl2WqKppOrjvpdqizj+BRsCqYD8EGUbzilUzBimIJV3ee1vsasTrktlpiZHbVSC+gMyCdXUZM1DSpr727Hbvzd2Qn6vkUNJ/mUqA/v7IBVwj1Cm+So2H/n6lHiyk/r9uzMqnc8WLrJVJ7NXWE0L5Jgo8vab2oPwnLdA9i1g1z7SfpmCpvr5ipZaKvQoAdcJ9dsORc2MonIXdeEKx7sSSgNVP08cFm6noKlnHZYKuAIzUT6ux8UtO2lrsvTd/hNUX+1ysjQ1liSg2AUdkAq4nDi3GQ6bjCoOU+6h5LBrTy6+vzdaP59doPt8VcC8ycZ3/mmHOiwV8MNEmYqxGEXxYFSBJLKkmRz3HwYj1UFCwdRvOD1FzH59kWCpgNPEueUk2Eq7aTyoZHRXOWgLZKNJabOezO/Cqp0U5vxoOQRCfiEE6g9YmqjZb5/MQ92s9MZWc1N8XDXC0b42/OR+re263SJQZbSLXPiXCkioA5PmI6FQfmPX8xEpDX18oLbb/nyatxd+OX1Ue/q487difLMV1mrvUpHtJgsgFeClXeEaSvmVKBWJDyTO25vUuvDAV4U2HfuIW1wqCnJmPkdDCksFE9VoX3XKY9UcirJlYsMLddkfEYwaY79s7KPqxk+YrtnDUsFExWOagaj45dm+i3WEoyaEtK/0S3Wk+haqFX5ORbtJD/W3Zc3n+4umpZcVjbJGqLaQCtOPy+/GD89+/vj6/toj52+5/2dpT/7wbS+ewiteUB0PelsNAqTabOJcPHPO9hwqD1J2vrqbn5ptUYBJP9OP+bfF71ceuPzE/uKD48+bVJrgH3vy/1fPZZ3pp73DMeJD/W3SRNkpQw1R032bYgOhG5nbbkortJ+H9MfuLJdun/iSoq6R8wM69jo1BiqQamMmiuza7vnLLWfYp6kVRwn1Bt18z3VUSqrWzmdPoSpPEPN59IL625aJkjAdijq5VZN5a1d7Afuv9j16IC4bqsc49c2LV4/SZKgbU0FCfUsmas6a04TMBqSYEbMrHG27/5QO2SJKxQ71xRBH8QFFFl2IA0u1lazENEQXHRTlvwzHZWJ21qZrV0anKQPo6i/E4kLp2FjcWq2z0VB/G9B8muZzXjSpVltcjjocU/K5268sTi1eJXa9+GWsclaFdMoYYx8bqEQ1HDvzLj1NMp46PrZrab77qeoPppXmALuei19waD5sYma1wST9ujVfHIqiH7ks5ryNxslEefZ8fXTyxvQu1qq6nfgipdKa77xFKeAm/YoT543v5Tv7n382X3fnmXPUZoldm0q7q+NU1029VbvO9yhlXadLqyhmmWhbaf31C5P0a9V8REW9ACfbVf1wmXcfrTM4Lb3U/DccXzy+L97XuuWjfhaCUaVaneYbXye170ia2rMBSqjDV9dujVL6wS+99lG5hi2tG8BhgrVpvrgIVsqfEvFa7fi9cWx3Y5QyeXs8FK77+9GUIgT1ty4TZRc4uG4OKEyaLy7r35Twi0kYs1RSsyKe0l2qBgn19ZiotO+o7pamBqnDwrZvzEvFisGul5pbH7T0YYSE+ioI1VjaiYWp7naAqpbv9MTab9BLpb/y7lAzmRibJ233esD57HWYqEDzWY2aq39WidKMcmrW2ZaXiheytPT7S2qEn32P5oXExqlAqs8OUTytrbQ57vIbZf+zd7U7juM4EJAGynR8MP2DBhwF2Pd/zDM/ZDuZ7kRSJ7GdUHM7iwW2sTeJyyKLxSqJMqRHrFN/vk/rpfR3uajOtUmryE61aIT6/puoCoYvzLJ0AFrhaOxMhzVKga8biSkp6KfEkYBGGWAt1Q4nUV+HGCsDaeVC41gbduczIC22gJszm5NpGR2zq7+kASM7qmhZb3sE1IGk5nHSx2SpamYRtTwvTJz3qYGyo+r7Ngbd+s3fiZkjjHnvw1qqvdV8hCYyvDzIQtSMqmyOiohzJy4nBqnlIZ6GCPXMmQReFX+oESc0+7WWakdNVJLHogBqwkmm7VHkmm+mIgxIVzdV09RNqVScBIlQt5ZqJzUft8D0JpxKfQiZgNLCD2PrVYvNPblRFEs4dSKnqPJ6RvbdlAXFaNXfLiZRwGKJsQ2Ol5o0yGb8JvURd+PsxGWQSv5kMvHuKJnuLK+tYoNeblOT+YdVf7sgztnwMujfCiHFcr7zDCEjJ64s/+b9y75pI2RNJa5aVRT2HbiWMB+lrQOqyCErJUTpnEW6Z1YfeUPQz8Bqpg3M47D8DHP3qS6IQDSN0qabqFicAQ9S3k8++bFt5q1dO99eVUuxRXtCxRNdPeXOOMwhmTXtZq8oDFVHyEDmdgfXCC1h4LkLKaEp/ECKWE3QKR+tU9AbGKG+UeI8hEqt+TS24rRd7/mesnMTUh37VNDKS+PEnAxqGEDQLSy0lmp7NR8Xblh1RaGwErS2S/Qe+wMZeO5o/dKqC6mJ3UlDsMvjhA7jDUUWBmZNuzVAIbNINQ4Jov4k9ZFjubliys6d26qTpY+G/+7Psg9VcUuJlxLraQ1UW5lEHWSQCzHGqlZKmqijTlv4tdsYqO7KZzs5I7iSRgkq0hMD2/+iVN+2Sb8VViIpY6DWxSecjmxx3k/1jBV+OYVfRzQO91N+GZ9dIVCSUgFtk34TNd/C36CgmIeZoILURNn5FcTEnGxylCrIpYJZqG4t1do132HqijMNmBfRa7NVy3/90UDxAPWfaweACzBBCefKK4rk92zV32o1HyztF7EiwXr8twfP5Z7dUr++ppisGOJkM5YLKZjDiFCTCaylWq2JkoSI60TD/JwojLS22xnF9xAGkPtQp3IKTe/IAtSVxjLY0u96xDl3T4B6RRWjigAlr1cb7f6+7OO7SuOzAfNWFBd1BS7i3tAI9RWaKKFelS1KMaGYNwjRqf1wJiwJeW6geMyhz9O3vFiDOZy6XlJaZnDEL32xGEz49+KaL0bZEoBSWmK2FRmOHZG/PF8xKDyC8ZN5FU2pWKOUu/J58e1EXsWmb9cCFF9X83EIB6AoNVPJV1r1seJcZ5W9be0+CFcNGWjyTeVOIUt0mUz+AsJ0Z6EyFkaov24SBeV5oEnOJ+VIHOxiejL917QDy2FrtunnVTbjKV6hPmJbiSrLy8n5dDjarfRsUHFLhRqfXaNoke/Lqr+nN1FS5EWoe+9JuU5yPnvon10DjhXgUVoqrJeKgckpntxEsVlpqNGSTaCK5xFO3kjzF8ypiEsdsBZO+p2hEerPbaLwoLG5FQZynDUwON4ytMLvNbOqrmk5hSjWvgElDtZA9TTinL+cuiUCcWRudWvXCr/nk3+N7lK1sXLdWm6p8Q1KHurWUj1efcRRhjQIpG+oInQXcGi7nrfgzVviJawfhydyS4WVdFLKpDIfpWeoj+Ru4s83YEVOFE+iSHjESjS7pZ5d9KXCr+k8a5TqyCT5ysmQEdFA9VDiHGr5vbQJj22n/nOGpjVurLPaU2T7/S2DiXg70XyUHljzsearljHi5iuejqw4NzytNvo9C6GecFUKKXUQtqXfBwCKPCVAHbSh7J5KKfJ4OpPHualjV538dme1p4BQSi8BpB+yTfpHNFHzHnwJpOa9UuAUDt8x/WQP90rHk+/L+YRs21dIqqO4wvGQyka/v+b5Aqp9TvG+rpYMOPjEPhl5viJd4f1kToYFt5TMpvQh4G8UTaP0W+Ic1V6iwqJv/JmhlX0DsROzym9NTp0sR/0plhd+kkYvzrR0ZVn1VwWoL4m1iSKWEL1/iZssT7FOJ0VSr65zBqlVZr6SR6qj31PhXFFrFHoWDnAQnsKqv4om6hAkelxDIcTLAMu4PrVqoS9TkpFs2XDdORW/0Ty3VKWQQiX9hKUwUBVPog5T3FPJtJ3NKILGcODpbJ4S27y2JD47idTvrVQtG2mYuSprqcomUcnpskTAInsfaZngdGSayc7WmD9WqEvaB04OpVjA5IIKlWxKVUCcw3d2VDmx1fK64xQOJ/bm9hDnswevOD55P5PwL4UQ5S8pzrcUWnx2Qc0XxP83FEJqhhY1UZ133eueFDv5kGo6T1P37hznb62IAeSGauyzicAyUN2X86lqpfSWUmsX/lnyPvIJT439uvFrjcN3Ii2B+jZqwEDh6Jd+8VYC/c9aqjuTKHr1sOdlaaZeSmDGoSWez3WN3VEbPHRFce3Ha2tpk76AASQ0kZ0Fp9EHWVC0i+rnJiryJ4Wz12VhMxUwMqBobdd7K/y2CalOvxoyJyOFetnolyIT5Tc1TYgGqh9rvihSCRTleSmiqICIJ2p/qabw9vRuFlV8Scn7zvda/ZUhakol0LoRLO3jm5oPll6+JYiSik+I83NvT+zO6ArOegvqfQAhh1NfaD6ndCqbUn2jj71i7sTMIy8pSmQW5H1kl9PerizqqcRHib9I3diGWybqABczS3lUrPq7aqKCyrggFC5ypOAVJOK8N0jtElLiogkLpQTc1ELDzAanfwx8UxmoFqyEQGraiE/Fcu48is3EOueNj9hb4dc1nXNN37VxObHHm/lui+yqCVEhkqrWqj8xkB0/C92JCuUmEyiTqLQ+YA/p/kAlKwJu4K9S0yPuQCrA1Yw4BjhYS6WKc4QDFibaXNvztTSMZ0GfFX67I9WZAvR8UYlG6Zbf85XuE5byC1kY/uzqT/LgQ5jdY68EE1n6CaQVDm+T3R1h6IJR5+Fv75mmkKy3cBNT0+78hQyNaGJaP/hs4R+LJaQsjgvXNtabZOeRUxMlQw5vsNoNqmY9VLql+Ascvz9WqN+F1OIhUVGAzjPpZz82642aKKzIWgNYTqPi+HazYu+NTn8+SYAbhFDl+wyf6qP094vEfAGqPjE1oB8R1fYGqTcjKxqOz64P0FH59KdVf395hSNA3VuISVYxkKVqwRD1VrcUdVbnCNW3VJA49A+zpmXiPGJdAsfkdzk4kvIZot5vUNU3rsVf+AvLi/fwOaDiJgqhfH1j5nbY77Lv/dGbpm9mzl66nfvEwq/xruvdL7Le+AkhxuszWqo/bNWCd0d6N2e7lMLR2fLGLWjt1kmJiL+eFeqnf0GVlVCPqryGz1j6/WKPcxWcZAUjX0+AUaIMdb5hZV96u8t5g7pP/jDjReWHiD85Jd29pyKwDSSZk/1985pP7K2jaiPvV8zXnyOS+qgnO2A25TNIXUHK7/x0iXASUGENpFK+BE+q4jtXfxxrUxoxNKUMKAME8Ug6y90/OnbyzilOi/QFt9S0ooji+Pee1R+biaXQrgKbeYCLBarWCXNu5xPOWAee4/VAMtOeFjTp921bqq/DIQaqcGWLQ2mZkNNu6k4M9Zsn1xig3hpD/9SzTddiYb6YbinKagMb64+YereWiuV84wvjENP7Q5fhsz6lVBqT99E/n709hrceyac1bS/7D483lRtiEqhjJqT0za3PGuJ41b1VSzXWfLJcFuNsGoD6B8/tqNj7qNPvzga8n0Le014pmZMt5Od519S8T88xOm8Vny158Cg5Xansm+/nTBdZHLreO04N6ITus/MZWCUPua5vhwDF/sNpg15Nt97FR4libXhlA8IizaagLuYlw5MX7b9WGTbj3Qhp/6TKdf5ntWN0JKeoESdpwZic/95AoyRNlHAMEebtMUjq15yiL8S2171dLTJsxLsVSD29pSWC1/nONb3LjaW6GhBrwCw387ufUv1NHuf/6Pm+5/oWe88peZyGde0GzMSM+VibTh//ckOYN+nr9hjCrrPe5lib4hj4AGnICzSJ6l7wNvy5ELHneSuwanwrw9vUQJSjCsk8aK8t1R/Wx9ZK9PVFhEPb9aaWsMPXFHFTg5o2V8rUJe9jly0Vy/kmT4mqRTJe4Ri7J+ecN0jZ4UNZbxEmlhxrHqyxG9lf9cfEOUKoXnnhJfpIinNPgOpeOMu0Hmq7Y2xWqHdkTbuoZIoeMvZfJf55Z6BiMzF+hdQXfmIgKx+lX6+XsrMheoJ6ak+jX077kPkKFGGKQShDqrH6+7Ojmi8Ka1lhHjtxfica7TqGkhV+dhasPXHq3aAm6gEKMZWaigC7WfpVsQQJ+moYmfQT/+toX5rQdAknK/w+uPCTZ8HRX/1xwADlkGJTWpEe7MRFU8zEpqxdqHDpY4GsPcp2bh5H5mTJmHbp7Zi9MiT/8uZB9XVY/hFLWsfZmBfi4OyRsXMPU+ND0sbL1zZkSytgSgfctjWtODIvxUZQJHNEMRM70yTKnhk7t3srSj4ShTpcpA0UMsukUP/aMKB4r0V3v0K5FRttjA20wmGIsnO/s3K+648k/MNF3kDpI7fdTHqZRCHMW8pi/Z7/R+PR7qCMgPVSdu6DSuOzEarQpF4m9ONb5Cn4iqI/Gi51ehl6pMWdzeoj2YM3ps3OvcJPCFnXJHOyO4GkP6/UIz24W2upSH3ErHnUNcopoiQbUuOPUPJad3Si5rdj584VRYUfu2X1zZD8iwuFFFQYpdHvllqqP8zz0f+vBCIstTKkwq+VwYPdUnbyKD9epRIlgPeI2Vu/F5lwikMQhfqfrTRRh1CaAx8mM5eEu5ZDAwxKdopZCv5b08ZQabM/rehRMsEGQPUn8CgqFpOYcygrsRJHZ3CyUw+p8c5yCqqanmpSKYXVWyreiYI5e62g0Fugir2POh022LFTASmqAlmjVJ1LpRXgui0Vr+1KtmqohJSscIz1sLVQdn4FrbGjanw7fGc/UfRIxjXNyb5oyxAPEJMvcxakkrUupLVdl3yPhBu1Y6eGrCCSYvxtiKF29Ms/F8m+daXqjyZRLCHSLJ/c/J+ZBwTKxTk6YUMNTnZ+iSjZ/j4SqCDUqSkIUxjWmVKJsQSqSD5A2S0F6j2Gw3hZ8/vFjp2HXFMjqNoBa2NJZXN2jeqPmygeRKGkEiKUFn5U87UMqOkj+T9716KYKK+EV1js/jEG0BxAsOr7P+XJzCRcvAZEqHZGS6u1riz58s19eFmwPIMpB6wkUYN6nlCfO8oAivW0USpI5+t24vPZFWLXpJB2Al0I5ieWFwAL2pUEVNaAzui2beU/8Q0S/6bS/v5+ETv1K6a09Sm0A5hTLFQQss7H8hKuApWHmpMNmAcduwYVy+VXPIVD/R92ZC7jToGh9vVQYpIiNhMDpZf9ESyvgRREfqHsI9Z6ObDln9WpXq79/aPeRxb5PXkqjl2Tl0KsAmYolpd6KxIs+9ADOz2Tg6B8edkH9D7S3Ur4Xn1aMD8d58EH3U2FhWVcgT07wVlvWi8HGCjkxob6pFeaVDSFgzx8Q9vHxstCtG0ohhTLC5kqsOOzexd92MK/15Z9gM5XYlkKTdm9nDXso56CEeUMyPq8GVcsL8FTEgZJVer+Hr8Yhwyi7odh11dof1DCYROPbIg3bpVo+EwzjKlVS0gdmc/OnYVlPCS1H4oQolRx2bPoqKn/00trUv0b3XHuUh7iPt79Vq491sEzeFimdwEGynGAX1lfQxFNP9uRo1TYkbm3D7L2sOuYQruKizdYphYa9aZUx5vWu1QW51KNp/2Rzte7eMNNjreh3bIQITeVYJkHV+BQd63QB3RApkr65VigIiOqvD0N9L7iR44+XWCmsGBEscxiXwWrQNHsC0s6fRs6aMxRGCNDHTLO3STHvv3c6/Q/XaoV+yBYZjKljOIHkV8o+h0W9EVIaVr9zzrUqQ4+rltc+jrLO7NRl6WiSYYsLLOofUFIdR+roKgn6PTV/AADqG89laGOJRzId8t+JYbd2agKeJcK4ayrFlwAACAASURBVBlXLPPofRS4MaYHZv/0j1MtKSALylo53KEOfr6lC+0ue0CqO8pQ2ZJLx8IsLNPiqfkRYFXoXpDS9bIHmqKa24GV9DS+GtlO98s7qluKQXWk6CZHBCws04pLz3EPQ9T+9FmHzMf+CWfG2JE0vU2qf184hkPrvskc9acEPELvo+DcWuQb3ya/BfVmLqDhX1EPvNVeNHU2ERj5qqdJ9d/XF2ZjaE09mev30/48pWFoQOK2hjZN8RXm2+SYatFWgpjSfu1etBvo2YSFLFPpHtrf3zo/tvGd23wkTyUQ/rAslAxDUROvsxLrXYPvfJ/s3gAqDIRSShaeYwkIerHrNt64C0qcSd9jCoeO60lR8YABwwgopaIg6Z5QYE8R5i3wne9T3Zs1KMw2bxamFKrs00YpdnNo0JP+RWm1hjo8tD8s2wWVD5yNcVkOgBMaUeZTR2YvqGnXEjA+SAL64iMfX3+8sDVEZMSAShWl9qqgaCbnuD5KAA2M1saPyz6oylDr0rnih3RCcxQVSSPBuUobBg5UfOTjNMfWEoQUWsKUEMak6htmrftVQhUVmkX3c5SwgSx2sXBNcM/HGHpADABlqNXuBUGLoxyamKX4OC1LtawqgQtTSmGUKCOFZ4lvB1GaygZLqw3ezlH6i9N2+6ZrdCpLzKOiUBHtAySOemsDikH14Jjgtor9o4IkbJQXPg44hpaqEouoUMh6acIqVej80y6OejkJN74zQDF2kLuu/WEJh44HTTyw3kCcwoFwakFKCGs+WX+6/RYkFZwqHztHStzC3YdMz1ZcJQz45/4/1+vNdU2XDaQIVwr7KLkhiv0n0mOZxld8maP0HxlRQ0fILW0JR6GiM1GiPpuk2YUTjupflSRweKJyVM43GTWPwvomupCS0EN98LqPaWDh1/JM+8OyXdtmb+hbk5/vElKyQ8UtMCV8u7gFQdg092YZHVMXiEKLCvwUvoN+L6nEtlLv9FEyOh8kH5X9uwi2Xg2F8BBCi85QZR5ClzER8CJhmY/87eqTF1s+WCmKtL94OUBLKw1HaSz6jWuTypZwIPfFAyFl/rpARCl5ZRcAnhIdgmJhmUOkugKpyPr+yiETdAgxOGYNXIBY9mF0PizioMBVPIz8yqKALI9IXv+8gi8my7zJ6ORAv4YoXLYKCKHQQ+ZSYTrE0ramjcGkOnyhcRW3Jrz31CUxQVZchX+t+p1nWrH0Xg98H3inYgiwPuTtRQoGiyqK/m6K2PVeppJf8wZ/9l99vYfdUdcdr8R6feMTM55Y5lf7ojsiIUcpKoq4NZK+L8EQy/05YFZFL7+EG7uGKedlUdR0ul7fwpSwkWu+riyzefvuQqqO/JZuMI1fpnqnhzm+2rCU7m+Q0SBDLOFQqo2om3uAwKx6hhTLbBJ5iSKHuu4zPpsKP1xrWrClbjaOuJNHqJHlSnLzPYZUJOGkGFIsM6p9ygNR0vn+yF3nW3Nrq6lQ/uzjAZDSNCYEciWUH/gj0ba32bRimUwELjdJBpMXT0GUijJjPUtuYzeNFOADLBX3d8TT0ICoj4gzJxbfHpZ0s4yBKFGnTUh535JyPwlXS+UZ+nVaH70YWapn5jnVUhWYHw/6XrRuO8zvYIpaODuHOidKXx5ZXgKph66JlnttjS8VRaG9bamuEEvVEV7tgUgcuHMe2pXnWD/7RWSDU23VD3dl8dFHF2MMPc+XkfUSxa/2n0v5CFLrJpm21INyXru21CMvH3GhrYPHD9FH9ZNEUwHVrdTn++73Wp2lomX7jMGIgGY2SMtVUDUv8XgrljFJKvQkqctIVaFdwz/re/CxrVoevzvqn/VntHofiQex3Ztev0+9cmEoa4UWKKetzYWVqPA1gWAWmpyjwkAOQRRIUZRdGPmYSC2WuvfyOp/2RgmHJ6bEx9kMLVUtrC1EZChnI4WtXCxiLpZp1T4xeL1GQFTLuDPbaSSWauZEQQmHHI6pjzbDkZy66YyVcBVQNah4lU+85wVDOQpNL+H6KHlXaXiylG0NTTVR0XD5uC36erEgbI3CBrYtZbHnYS5IyWcWbEShX6ej+Xr8/PREqoN/ClAA+08zoWTTbfsSNc28EmanuSAFiJLRc6gCUA3x+D1Q/OrufM99QiGCjyoDD1u2VFsSR1QV+CZCLm6ZSeRzcILsdCUFtqeIR7WlXDpfJJ77gJH6NEhdhVdYoexQql3lnOgsk0v07IJdC6ylstM+xvD4YbALvRLqbhqH90eksvnPAlVllDsZhuswkajnGTBVh/3+dDp9m6/9waAqjIJEytWv8feJeYU8r+GzDFCHf6E+0VP7e8hSmnofyXEARV3IPlNnN4ASYhUGCuB0Oh7zRo77wy4QUdKyvFh+vmuik1EhoehXj8JS1O+SPluvyO5tcwrM9Q9U+mBvrABP3wZOWbbZLBbb7TbdpJkB1clof6HgjjbTUuUIq9UiSpHzb4zsiTgu65qo9XoETNkuZJ8ma3NOYD4dTkBPWZYCnAyqtotFuk2zLP9erapf1OpyXrVvPERFZxnqI7CUdrGo9Xp9DqlBCMPhPh/n/jIERIAyeEqNbGpZbOFgMHVcsY9iWq1hJCS1Em6V0mPYUgW251tfh9R6KE992iVMhNH5TnlmuGm72CxA6zP8lKbbBSmAC8NTO85GmgpP4yFKdUoqfCD1kKXiQsD7XQLqGUjJz1tb1W5/NApftgGGQhxtNuZhnhvdzxDVNj/mpx03Zn4rO4qyJ2qyWsv1CCwFfWQFstRty61vKqIbkvNBniUDqNUJVL4NYgkwZBC1SdPMPErRTWF0v+OhYif6VDKWBdVS/Dwh9TB7Ii5U38Io70oPY0j6GZo/51qe/Tvmm4Sijd3hO08Nloyqt0DJMrKhAF85kVZqaAr/snmDy4/79s8PvnDdy3fr8cO/t2kq0WtkDFuKILUeH1Ko+/mv4L7X5BbC+iLwzqWlEmyI7arKKH0bpKaFlXSDRtUx3W6ItUD3+/4tod7pnXvdZ4ScEVJ+LDU+pKh6KhBvylJ2PwZLWKmq2uc5qHgGVY6lFps8zXJjSmUp/MLYVeaX+V610ShuncE7Pz+xu/wKewbP1HNMwFL6ZZBC3e9NIdU8lGBHnQxwUgjuZpmDFLgjjqc96IOGsPJtmoEGeLLGlGAZVw/vPiEj9StZygtTP07xEy0rCDgqERX4zlPw7qXgkLCQMhA7Qd5s9Z0DP0G011hW39X9jf/36H1j7YDXFPOXcdTPtqUuq6feg6Xamh98S4CjwGAC0KQAJaCoxSI77iFZoipP4LYwthQALjtWTRsbNqPG9Ba1rskLEfXjWcr6KO5djB94Sbv/TLUzql1uVDtQ+raL3IIqOx52KxmJwJhZ6SLfEn9lx1Ulgl+t+j3SHp5hJyR/8UpE/WiWUpc89Sa2lPtCrjEclWUYyoUglPmGkDKEdagU9kqqDhk4Lsyz4BJMf0NkalaIvtCOeguWciFfakR7Gff4eRe0VjBCIROVBLt9nqdgK4GPj9wS4KnICToQsTocM0xQyjDye6goGtcKTp055d/9+RseuWcvTHD9fdrxKFxH0WtlBJaK9YshJa+FFtr/kxe2R/c/dg5IocIu/mdoaLcHH19uaMrFo4CQsny/cx9dWUgZ6jK/yfdVcH3SljXN3v558eTluL5HNl6n+y8X4gdAam6Wwm4UdU+hq5vT2ZV6oA9OpWeEYEftj/lik6VZWkMKsJOfKoVMZF5vFD/IqtgQ2AykRA2prtbSbB3v/vwz1yMYDikRjF3O8YYev7pZ+l1I9XQ6TxRaDCWURx3z7TbfkK9vi8rfJtvmx0ol9qNU1SHPbBLtZgEKYdOsubNP3AihvuPzV6+F54W5HRR5oPiNmSr79izluvtdyyETP9KWwn8krMDZZ+CyNYACFwRACqNTRu2T1P1cVGBsLSykFmkLUuJGgOrdn58TUq9H1HuwlEtNCrqkfhtSs9pSFg7mm8KkCfD1pZvUKX4pqn27lbBRbMysgIQ/zEVHRyDZUt3c2XYa7ps//3/2roY5cR0JlqVz3Z0sVP6ok+0I7Pz/X3nTMxIYMMEEFjD7vLt5b8Gxs4na09PTM3oV8cMpf1TrW1OU4llmZ9xPLUtXXwEpXlDahC0QRYBCJiWQonDVVOPQl/sNPFTYeTgp2EXL7R1XUo4Ped08CVLmecrEOhS/zTROzckQe2exWcr5bjNiXL/uzOKR32EY4ZpoUZBqWfETMxLRvsI5FSOvoXSL3qgBqQzuiaBV2m3hVH9O/Ylrf11NGcZZ9eFXTP7YHqFmHqr6KYhaTS418aXHuZk/NlUIbzKOx5dpIYxaHddiD6LuwZZn7J5O3lgpmXwdegPSVxhX7FDZRQ23RicvkFUDYrsQiPY5pS39Ng6V3opO4A4Pvws/FNzewlF+bdXPlFgX9TVd0Lx/U3o8rX89KY1aTS61mfHQ/uyGTZAAighWMGDQh70wza9bx00z9N6sMHSD8HEq1NoSw2icgg+pabgrvuYBYw0IYJOh8sSTNQhP9Mn9tuVUC/2+xPx24ei68y6Al76+FEr3nqfu9zo+oz9qzVEqkj9z+RE+8XHRT6LUEtLKOMffSoAjGBGoyqJUMtSDD8bWpM9JdlX7JQthqGiCCjdCZYnwwRlbwWveh0k7lYWnltULuGab9rtbu9XoptefYXwC37TPQtRqFL8ppvQJFzl/6gmHI0QwVkDnsHy1cl3fd/th5AHVViVn8CzOqFMdUlxlfmDtP7IOio7DyI3wjVR3uf0Q/M/7oTemJOLH55Uu7DzIIb3JHfPbdUPqerZzBQD3GwfPw5x+XoxaCKm3iVIpTl0jCgkTCjApkXq5wEPIeQr5jg8MIh8IVc7puFsrnWyt+ZGYLMgFcAIxv5KCT5PVrI1D6GNvBNFA3373gXfIQSSjSBgYegw4RLF2cGtR8m5xki+5ztL7/6Jx7omIWoXH7xRTpy0UM3KqZFIGnh/K/2Wk//du9Dx+nBZvW7cY9jWOOwIW4pVSdhMD1c38/SRCSjpFtA8FKYyUjb4+wlbdVO0IAzomz3IMtCj0eoybzVi/8GNhjt087+vdu7auF70+U2ecffV2+8rkjvaJiFpdlJrOozirvs811TrX9xjp72VmciWz8xpuoYVmQB8IVkXfO9Et0sJR8/WNRU/JYLUuRgpSTVMLopoqi7kURiBZQMoy9bMG1WCwQ/Yqwft3pSZ6C636M6+fKpy39jP9dB6T8EfXCZ+KqFXlUu7YmK4vLoL0I8fMhyBwggtIumkJTTDcsVlBjprC1W7LJFBIAovpvzss522l6nfwIYHpcXySWRMo5Y5Dl5fWCvEzaPmFDR0BrEYdmIeOraRR8Bf1havRxT4IXkef+lRErTBKJUzZdEy+dzmInrKsmlv4gYbtzrewgfORLEEoEgkb4zGVnie+AlVEASFUsKLBd8Cd7C2EI57Mwnjs3uVbyt2aDNNa0sEI7uGZFcxFh99fP3vl7u7fExznef5PlFo0kOLsW+yMKDua33ddAJ7aquHOvkrgc3pg4APvoUELuvVAVed48J5VUXE3t0pOYH6Y0ILpEn5yJwJOjQZDSJGSSOGDpFIpjrWjeP9+TMvf5fUH1Z2uaj83yxdqWkt5LutbCKn/vlmU2g/NPPlOirigKU8hIHTFlgifh8enYtJXVxNECc+i4EEJFS/3BnkOb/K0JQIICqh5SKw29mahgnDCI8YAKYlTVeyTYl4nO2eJsxZzKQBokdqzqt2F0qwIUosgcCukzOXrLcrh1NST/nREPYL4PVfxm2DqlCZoZzVm37BmvqU4UfF2aHUst6Yxr5y4pBBFMUp2eYKOQMBjAlj0QQenkddygfimdYFteAdgiYmfr+KNa57Y3A69IJ+PjSbe5710z+M/vt12+mHDtl49fuXefrOZ696UXj1d61tzlDoW0w/5FOq2Cvt2AlBtInoiQsQ4sd/ZKeZXkmI1iQbCjteO2/AVNK4GD9TNQycM73jTNjL3XNp4xYXe7vpwWBUakMJ0pNj0AR/64OyqJiPZP3JRe/GN2zBlng+olcoTSaRgGSFqFPjFhSiZ5w93XdzFqRZZbwqpOKayQhSpDskO444WNnbOhaxOF8uNuum5CEB9sRNJIqGMF6vj4D4MnIhyR2B7rWPel4lJPYPBT+crik6/rBstiGrzxPPW+70CUeuNUuj0PZH8iKpZbXmePzZxSjUh9PxlPx1NVseeWvlfzH1FpAqdLelH6G5cMVGbOIxvqXy8C2VKKteHL9fabhiZGYo6WPttr9cTpdSF/qSHEEV1cccPtTzY5fk/UWp5LiWQmrI+whPG+VOIkiymTlSOo1F9EU8px6oa+StiGsb/E6h6pGd20e4hB90RfYeyKYeAhavLkCAQpJTJI1WF8gdrbR0hRZkfIGWVfXQcmak23MnLrLHWPh/DC/8ZzFmeL55/QpRilUIoszUbriVhIJHPuN88pv2Z7JGWqB/sqaz90Ypv0r6ex7J6mldetd8D7HjsLHfuSrSCUZbwok1X+Ko6CosYPcGF3zGoqEtqKSdrbqSPiVbVUBQz5nGQUrP2ns8dYjvJqV+iS6zV43cCKcv1KKU3m5KCVMBTv0nCeQIH4MN8rpFtByFIxG2nCWFtuw9YseCaPq8i9tcHLH8of25BNg7E9N/+GKIc9ACp9jsIkqzeYB6ZcqoY9ycTtvmEB0PqLzrstOT+MkStPErl0eDgUD1Vrgjf7T5CHCq7Iu5Fs10zVQHrpAWmk5spP/RE/75Dr3SuKEVz+vrPFOOah/GUZKLCC0+sHwApQAaYIvC4jvU+IZwVT3J5JKT+RvNF/PBCRC2D1L/fFlICKivrORTYqWkfnrJU3W2icu6TB0mCFJPBRv5WVdVRbIkVWj+2O5A/MEztrsUDbjoGlTuJUuLQaKCgG27eUhu9wc8dfb++jjoj3S2e8PAj4Pfh12f7mSQRyPN/otQ9FSrMedChH2D+hjruZTNp6aVlupclkaKuk/unyZKPNr15kNM9YwpYGNuRMWXKPVEPMyuW+x3hteAJLmI8z44JJYa4hBiCUhcD8b6qjtGzwXA//WcKPeqvIX7qxazvE6IU3ZgFaZ6ULPUd74XXZXVsT5daU9v6kQ8vbVNQ2nkkRKz4Thx5UXZnl94IKOiNyfXVRWuVQ9d7dap3yC7XYzjwfZXMtSmk8nbyQ6+MegSo1BJp8mNzqZcC6iOiVJ6XMntciqZNC61PMCV0rskIPug1HIpCl0VRDAP39sZdckXDZp53TNmaFrIgAXBL0UXr/FKUOhiMVB9bdE+pH92i/e5OBA7LBSw5veHZSA6FtT9qaXjI9d9b9XsxohZB6l9vq/hJlNq4nNeyZ+tP3VSxGUrcEgQJv9vyrAnnuKLiHGZQBDT6oih82OK99ntloRKpjvMsOPNKq69yKMv+oqw5LX1VkEEq9hq56Yp2AxewkvUQ/j60pNwbR2AbPmWmYW+B2uiPhVOceJWvAVJvGqVsR38ctDiHPKpmCEG0gxBRs/SAfZz8N/qgpl263P1nGGUAVYPW+aYV4byelKeiv5auUYT4+LcTE5Q9mKHiegWw6zNI4QuLNSe+r0XGhG1yiCR6iWFNXbUghlIVsL87juoz0kOy2VjpUDEsNVqDxpeZ82evc+n9a+df+vwn+AwBKLf+KPUySFFwwrfPbjp4gKo424uf+lHrg7N8N0irxoHybAw/q5Wmz/va+wFld8KEKUzfy+I+a/QXDLOMkDpbY9HludnInLFzSInRfLtXDGlNq9ApTM5EFYxrzuj7cDYm2HdCKq4x+sIIUAZX1dz6ZVCu1vnHQWp6o/z1x5qjlMtNRzSOohXvj5HVScKrIzbqakRhKfAqTU0VQSIKfgKlc/TudwuFm3Oa+hCm6mnAgpUocafzbERceUT7sPNNdU78mI6OwaW1ruBvd9J8GDtP2opN6NY8sksCBWqet2XzruscPRUooGv3qQqFegtArTtKAVQI9CyzYazrBAUiiwMKhCg8ofWRH5Uzo9Kp/xlZ2j47g1SdKlU8KgzD/2OM07MJP8aYM0hmgpTnvTq02edjPMsFkbURORD+v13v7AShD0AU/sWYWtgXWxwDPT4K50r7aZCy7xSjVg8p64hAfcWVPIGUeB/GdvtFIQr2PwpL+lRdACtyhnesgU4ncobfR6aq3jvYm8mYFTY+zEQpsaAf5IZpMz4aoTolXiSAD+j6GvbbeWBuM/d9qONBgneq6AT+UPRh2MXxUBBp1Acqfvw9exdArVzxgzZhGVGee839kRUI++F+FcTUSo2s3OgzosDUCDLFzrdJidgHlsMcFngB/Vi4FKU2F4pAspthVp8HqYxikDp6rGrMbYaCwiXlTNQLXh7qzsKs3X9N2mnOFX3d1tyt1Y7Dl7afJvlJd/e7AGrtUYoO1RVj3LRTbBDSRNvU0kOLdRUnVSTf66Gr1uoSApjGlKKWJb+kTbCDYlJXgrWhS5mYng8KAQ5Ddr6fK368s8BBcATpHEYWRLz0fmBu88MW2SaBi5sxU5mOrSAUC92nQUqZ9wlRCyH1nzeEFN/NKefQF4uJ4ixGR49RxrofBRbI0iWHIhf5lJ7kQhylQNt4s0I0tseaL13QH9ln6dqHaWF2NjM2VoJUU1fnrVmVL4xLu+3QV6Bz3W3bJt2SiOFY7C1q9+Y66Lj6P3tXtqQ4DgQDO/wiLEXLivGBsM3/f+VWZskHBvqCme0DeneHnQYMRumqSmVlJYyjGdMnO3YBVTNiDs+PYyfy7Csh6n2Q+nqMn8WtlFrKHE6NX7oJdwxXFbd7JDK4l0ItKNdfwEaZg7yhHWp/s/O3orKV2gajhlbbr7TIXrA3dsKga+wyLWJBP7d1pHHWHAfC3uOxAVg1CqJUeylpiJ/fZ+aPl3ixEM+beDhBQqwafK/Nw9ARznH1J4wueI+vmL29NLmOnlEqBSmBlDPY4603vDXlcqxOnKTYECS8JdfJSsnZWDFRTXsRYmoKaPexNOuxHqu0r0Qz775vOE1KYx2zugQpyfva9b4MRs0f61nwDt3U0KYS7W72oJS8DyR93p0wzD5wuCK1VvRc7/eJzC+/PU+hn6B8UyU7wca52797RinL4wFSfVNvMACbZPTzyfWYWoE3GbSSXv9VWLnDnjd6sD9jHG6Q3Ezlc/THe1Li+iqLmYv8naC7LO1S6hQgB5fjYZqHm9Z4ec+NLwK/dVZ27BgOVUhHqlBsoiYsf9TtXSnN5cJ3zn3ZWuqfM356LqxFIQW2z28RBeKuRtVQFqZc1AK3v5Qs7ke/gVTw/NFOe6X8KD26so7pgkEGnVzEFpiBowV4IHmgxfHSOLcdlBOBIkLyj3fCaXoFKzWm1GojzQRDNYEbAdhz/+s3AWqb+NlnLXULUvhT2T5/JbCgaMgkjGXv+lpKmL7O5MbuHFdp4CcgVd4OIi00sN5fkyPREBNQciat/YjgqpjCAUBNos3xITfqB9m3BUTNkFJTQY8eE8eP/FsAtVmZ6X9suj0Zv3XMdpRNhOpatub9OEQGkDIv3rr821wSyOMFpDRMJfMKlGYlROzXvldjLTSwoWZD4Zbw82qIWS5xyIC1r9UUQyA4CuSivFPEugdEEOPQL3xqznfpdiovQbt++2Mg9TleawHUX8HU96ylBFJI+0DUXQkLyHHqU1eAWCts/nZGJZCSl6KO3a+5jgQqhdSJkJL1ai8hJb8YRn2BkHwuZ3gGZdkQ4OYoRQ16zdfF7wVy+JW1Er8egCl5k24/jlQDk0/0M6QkZsm7KU35OxE1o8g+o9SGm0iQUgHCJlGjrxhG3haFgQtf+dYCkpyMa5BYXCA111Lod+KoNXmkRKncXgkL+QHkRPDJjXMNqZ0O55VjpDdic0kSQ+MVUoGaXGcQNuxjwpSEQ9RqoU7jCyZIJUI/Qcr80hhl2f4xA+rxLMU3jFKWPVJyMYa/0LyIN6T3GEuesnf1H4Ff6MguhLMotUup324qpRBnEEu2pZjBiLaJfg8zpCqmgRKEyAkKwnNLy8F4atAtrJAiYUB9ui3ncute2q9Tq6hFUaJE6A+C1CfVAWdkn4NG9P+B1Ndi/HSP1xX0E6+rizDFxdx3RYLUO6KUSbkYPTWnUU9zkCKyQHPLY6O79nKZ5H2yXP0ZP6JUumqNQE5kBYocyRKNQ5KpRmQBgw/hQVumKBUfQscZuUBA63QOqR+V+H22jFJEKYzM6v7vjlK2RNZXIEhVumw21EQNJ2SewXfW4bLEaKkXdmvvsRlVcF36kxY70sQLSLG9BCbNYd68VdYadmMQ3ApajCZ3RRbTrHkqEUPd9LFNk+ZM+ajogW2vmucmTBko0SVH5P7a7wPUWm2Ni1eqHuTOUz1R4ETY1riIoRdXaGt2Sg0tzpWdTuHrgAJIQIIvkJjxRHrCN/WpyzRAmctFb02McA8jg7eCVJW6dTvGwYI0BrWs6KaHzoLNkiAvyizZjD9ksQs+41glSCUaU0Mmhpb8ABL9XrbYOiTZWBl/g6P4joxfKdeWFl7N3i+D2M7DVB+dTQqLt0ElKVlh2gFz5sMZjZ6ilLzeGOcN0mud5RBfaO0ymWomB0H0bA0dzJUyZxw65KnR1SZi4oq6KSdvAfrxx4QPiYmAVMXGyjQ+IfkS+iplsL8YUcnnj/shxf8Fqa+m8ZPwg+b4mtV/dWWnF+smVaTuXYGqNHFPJ5bzKDXxHeOxc3lxM8hRDZ9SPX2FBVL12EUGOMn7sO/sOCJR4VTttPWwdDmTMfegICWQ6itVOgJQiyCpqr+9IOmOK7H8uHRrO97atrUPH/DxTdUTFomaR0kSLiUPTKbkBLoFUq+CSvVEWIWs4P2WRa/8CY1XzMHNFZo7dwNkCROK/BQUAkd2yHORupObkDsuSpDyQZ3SdxS4WxpocD9pQcV9qGqxvVCnfbZFNqvHM78MUdOz2law1AJNMcb9MAzH4bg/uPbJJcZmbwAAIABJREFU+Ml5kZMUT+DK0RxYX0IKvq1Mmu1yQl+T+AlOYttztMeyLzUlcGC5O2fatMW1hZSxuSzgKiRIhRlSnLGNvA9GtYLFggKJODRs7tLxNxqk0M4liFWbQXP/kjeEFN+JV/pGN5apmu1+AqJeXWzTL+2S7CmQ9sPxeIIpag/TYToOnw7OPKNU4UpbsMNJpaCXiZ+UPtFNp3R5X7e3pbCOeWEPPnUy6mwPENFo6+giqh1OsVrJ/JCtkVnvxmQaG1KUmpUTtW5K2UnOSum8n1IxOMyuKhuzbBfdteylMuyGZjKLCjq6hIwIBLz7v89MmPU95z77AmrGjIJHzw2/STArzsrl0iRB7AUJrn/pQOaV8BZpD4Km4XgSHKmNN348ezMxbrwsil9fSyH86DaSxhJ/6ZnXw1iWWvVzGfKbkEo7vZ4VCBI3X4fm6GCsjGefCycsumeLglPhpzm/a0hhjwuii4UHMc7RZ1qJOBAIx+iKWYRRPibvy0HUjwji7DWpCSjsSGHDuvured9mD5kirI9Cik9gWCeXgCBeTl8eNpMM4PLSAgu3IIUnlraVg8dDF4/HniFpmvaFqx+ugZJ5o7Bsn1EKJ9FFzjrz120owU4AUsUWUtdBBS/lIkPn+q6a1RNkwXeaKrnMqUcrvVxW5DnYwoISVe3TXyi/ZDoBNt+kh0qC6SBBX4otdcc4W5Dm+tr8qCQpHk7NCGEWJ5LUOkdLjjdE417+SYo2dwl++KPwGXKiaWBFSo6Nag5CB9RCh0N36Fr32jQBBCnBU+4O++NJQ1OtniDTFjwq5XocDrJyn/tSdO9r1WfsMukj6V0fu1WUutjnuyqfQLM8t3qnM84wQvKQjB2F4vY8qTF4uQw977A9r9ajqVKfPBK7xd3VMaD55Iobdqlt/Tw0TdXU5wFlc0dHa/pG1UmYRIvofXT5pez3gSFKLziIM9MunnEf/ijYTYfsC7jIc4vxDomiixwQcepPp9hN0eVy3SHXLCTvcy38uTXDS3YBHNaiXWRElGE684xSBTVs9c0u3Lr+086Qurp5fnFFle+uyGFZBIHgaq9WW5lKWYhF8m42m8tppu2EoVq1vft5glVzPJiVyCLreuo9VDKr6j+zlt+qyo/p0h2wylwOHS+OVDGUVwxRfe6sMY9P/Jysy8Qj6sfBuzf8zxyizAdBZYhJOe3OvHAoBJiFyZAQtELEeGtXXHGW0DpK3sV8WakoZNGh6AzaXj2vDlnRGvcFa6l/3tVri5abSOFKzyAhhVLKaU59S5FytiT0Sqq96wukOE0DiJJaS/K7ZV9quhKbIkcDLQW3yTV6hlRI4B66DDLf9ZbwboKUb+g44VbrDgte3435tIJWkc5G+VQ5yB9N00PvbvLisZCaNB9EkEvkCD5FEctZe//RQ1rsacBaAHckyxuOE5hY4QIOY2xbbUa9hFTrkC22crIb8kZ8Sph8vTVsV0SUvLO2eHpPABJQToTbkEIpVbwCqS2qDJ0hJPKpqZHOmSdB1kc2Msq5nzRDc9ktSHNo9GhpKLNLX1gaZK120Lsm7QIp62Wz2Os0uZoPqdkvks0r051f0c3nS6rc2n0Xe50azMXYH+Mh08uHe6wM3Zwxlojm6XpQMEwt16D3HtYoTwhA5q6Lx9OI8SsScn09eXnUDWRVylRdqh9agLHlbgXQtGOQSoZy7P0BxJCS2zZ39AB/qicM/b0SpEK41E4cIFV/C1ILQCBbsHl7rHUUtkpN2cm7l3VoU3Pw5nvnfLUih/3FbjfP/fATpHbc0Toq36eSW3j31bxiesoJSV1M1UeqOVLC55a7nwIU/S06Ml3jiGl1ndR0EmyRkD0SUHyHdmJCzcJbMvFb6sMPfRQ+FqfMuT+nvmnU2TNdrer0zfCqeR1SLKBp0BPm4V3VJLIJSUos+YOsjzZ/dvUSDpL3Lb1AK0hVaS9I8ilQeAlSb0cqgy4oG+H/GtI/NDLv4Xe8FZ5PWYxzBJpac4IXmSHFb52zRAmaXB6blcVLMfMY2pUFPS0waebsya0ANaWknylEpg0huVIfh33suhZBVgqeGB+lz5j3XkvaiyafG8MSSL2gzkTAH6kOYUHlTAaKhSP10thXyFpg7lGz8Ws4lHOUusJfcWMuzJddPzfbhJQBStrHWvsvrNrvGKVMyzFOl5CioA0FTAuFj1NIvdIPc8ZVldCzoupg6g1H9b7r9pJ82KvbLmB1OW93IJ2/82FmaJNiQSWxufIFdDaDH4RKPji7FyYQTiFnlpTHqCBQ//1MScWUiy+M+ZAqEyWz4qKLW9ryIXQ5sYWtIEkOSowloXHpOo/7UHUobx7eoUMPR5oqEXZ+cqf3HPpwyF7tUe2GetTY5v9j71qbG8dxYEkq3gda5EVSlWxZduT//yuP3QApyqYTO4/ZzG0yuzNT2axfEgig0d1I8rUUU70scZWZlvvNUnjNcu9Hed2wsZ3AuGE+OLO+Iv+OdiZ2xOzQxv0g6xP342VGqV37+joFzIpzEQY4yirRvl9lUpXOi7HmwMpUyuCOxrJ5DmB7aY/pSKG/stRk9VRvP9xS6UM6x1XQes9HIoP72jSl4eTVxVqeoGlWbDRDSR98K+alwTqVEFAo+eLasCpdaBx2h7d4RH7eLXtxBE1HbhfDir6l42lS0oD5iXqpP+/jN53HiKldiTGYpc6TzCZU3vGuHk2ZRjPmsDBlocXKgoi6YfRJCvER8gupbT6PK06ShXj43gLTCR0KewsPJZy4+GlZ1YHFvbXPGAM+pacEo32kpbImjqVlAxCl/S6yekSs/6UgOhf44MjXJasiUXbxv7bPdofhCoePFZVbJb6eqQmio2L46KbaRFjBF28QmpIAMK+SRLVbowryN7CV5mIv9i8s/AChA+2+GqyKwKmqpCrQKvuRV6UiRI8CHLArBh/n18k09hBu+cZfdyqzDz/veO80ocLgnGlUvmEX0SUMpc6z3N0Yvs4zl13jlIQVLld1QDW/xc9jr8ZhaaqVnm+p+ON1uN1g0yF2ZvChAZHefQk/Y1P4QRrb0s6dVW4TWjbg9UldZte38sh7adojVi8P4t0hElNpgfgPR7RM/ip8v40oeuuEq7JEy5xNUI0dam6EFEdYvyFlPDl1VYk0SzEGQsoJ5PfYq3IxUbxMJ0zbQ1yd5nnX+hdAwtINXUPujjYSoe4j9pgcxJKFipiNHQGxCTlNqUg9d8nplNfUwOIzREHDKk6m2udbKo1Hqog9doh6dbSB1yATh/0MmHgnohpQHUBPjV9YYmpiEXr9Vt57Zg+FNRNSxU1BVRdzFIrAcHHwsR6ae/nFH2Zu4JNNmFsLLYmp/WVCw6US39+5lOGONtF0DMO1m6UgaeapkALDCTsLoCV8vZyX82k3zSjVDm2T8+4S1mdJQUNIeaqsWLNnISUvLpymUNdzTXCoEGnZTLQP3DvsFaAPjGBk3mYD0dt5zjMt1fqCPek29F0Do8pkD/BZfsZmMGuhnQBXCGSh8MUdppPfrSF1/Rm+8dQ8MhcZKQ3E93QZJfSaqORC0WaVaO7u3x+hdNivO8eioc261MG3jXfmp/ZSfzakWqITY0wM15ykjgnAM6s/WiZ7TDLCXRc6Dx/ujWkiLw/XTWCLa9x59tqZwBlpr+LdLD0NEjYi3DCE0K2XpaOwL4MzEgnqmBExqNq4S66Nf8bD/frv9hFkQmhyEZPkkCpxqWRcFD007D3G63t82JXJBbbQjsqJvXz1GC0vl1NmLaCdodVXYd94J17oiQRNlaCYrxEfF15dzmc3V9etMylZPYHSW/U5Y4b2ifvvESTA9jekJKAEneiGhAPd2pgvExQTmtOfgEkFu0IjEAU75s5ll+bbmEY1JtEQSV8BFel96JYaGqGH85TWmbQoD5d44GadGhPShDka/cdoO+/lb/q9+OvhWZFgA5zrtq70DqIdm4mAp/6Jt+XlX4yX+LM4QtCGefK86JumL9vPwhYiWUju/064qfv95XRU6kgb30T225Z/pL/jovnj66hbLZOUM21Aqeg3VVQdOvAt0EI76L3HMSkD4tWRKAXBD6pQQLnfdMf+ZYgfnmOaQteprl2lrQAg1qWQenLykA1aHriHDXiBBTY8N1zBfBwghocl5gzW0tgLgtEtEIzwTlpRfNMm2yKz/uXDxdjVo2cvWWIJoeGEE2JiAtZhkqVu3/Is0BYenZh47UprFg4TpLsJdfK479TlN/7BeIBFwAxx1k0vWnq1re7gqw+AUAsGPaJ1woj24O6FlHBmHYRvUWyTbVwWok3owvfnBjKR1vyTBs4/p5dyCvh1Gdi3+q7IVQUs4MWl13xgmHdDDiinAbF4eN0XIhs81XBHwUTWYRuP80AxUIDA2A+kivMkqzxak8Wt2UaTeSys70aUW9OTLwHfYD0YTN5iLpalt5KIYsrC9LZWTGad4TkX3pgn4WlkjbW5BipcGakGe8hJ0Yl2N4T4AVstx2ooCuFEalNUDEpIhYcJd+KOnVi3NcmPnJaOhjb+wGL/1xM9Zimi0UO0RhqudkKBiS4hVZJ8PhpU5oHbWbiGXeHSj110eeCE5uX4updqhiNhLMfx9ipkjT4kHCriMz8bTpJm8PsaUQKjmDhfw0/ItxDPFpkGTkH8RZuTesYX+klfN+aA2hHJSpjhOhF4Cf/rNJ9CPPWhZezS2CDy6XDvjuOCmPLN+0J506q/Xut8tJLbonQSp6goXyd/J6TgIoYW+gC2/8Y2K84MhTQLEju0jb8hlSk74KuwQqPd5kxDUKn7o5xc7mMhJeXf3TPWGhqWwgn91kcQ60QrVOy1EUPMmgA6qYAKSc5We4gMGzc0fElpyq69x1P5KYt4cMHxu1OwLZV4ErWg0h/hFASwTn1OYHRyXs5k2h5JX5KlyKq10GmQn+bLoloLnhLqHR9vYUILYhPwgD5LNU4evEzQu65yFI2oGVYwvznUxfWgMbBoAMflrkMeUrJ5T2Sf0ClY/z17ev9SxA8HWRZS2bVUJ8t+PB3kCPo4h0vBCVOu+iwRgAaeMmNpf/yILYzYGcWwtFzroT85iD0Mgbg21Vj6VEaHWPrUkrOe47AK5iFITkp3Th6Uvvr5m/KHSwghgRPkK7SAo4j8luU0TbXS9STJcaRrXchhsqpe4+mq9pYVd+RbLjxXHrE88hSN+iNoD7fuwbLAkZIOzJNKzPMYU5hpMZ7Wx1FSEg46DooPNYSH/+wynP/+qCwVxVJ5lsoqecgI4YzpPkmL3N7sN+Nej6U2IAUWZcVdBQRCxPXWz0vS/IZCabwcGwq0XN5KSfCYNVlZkyOBnxEzYS7tNoVsjNg63MKIIFkl2SmbftBjYQ98AVFkNklwDj3UfhwkQcWfz4FXEQqOVD6eV7uaNwJKyc0ycSwYcgvqN46no2l8OaSAYTKkLjR12+4bE+M1CkNwb1iR/vzcLPVnOX6thlSf4RHbLAX+3GSlXvlQSPnNIX+LV2B9NTuLIt7HTjiEVDgMDW9lMizEFRcve1kwRm4zCD2lpE2Wkm880VKl9k8bKe2orItgitfJrFl1KpNs9E3sty7i1RWBycsM342cXOxmElq7yL7DV7/JUgPLPh0LQWhj3w8o/czB6h9Kq1lFCR0uK2ZJthRSDDRKdM6o72iamv/fulcVu4CO4rf0W/gleMJB8zes6jKQZdMFZU1PBfpXbGRAA5+liazPCr27s4fXrngDwKusx5zXkEd0kAWJIAGAP78/zWtqytHyFEYpSaXC77FEFfsk8fw2K0pBOxqrXNYku0CnBXOyjF9wxYULMRX6KcenrsMDu6YJKWqJI6h4+N8METRnIejCI9g8fIrx1FLiFMu+28cDMxLcfahhCjTZLKSMf4XRQfILrlbDXYbUUIXa8Vt3IP69IZXtxB02eF8ycJae4pOKGLnpzVUnRR2wayEDrkpZSvZ1cIkvNIoXqn5Q9IXTO5z8/lrNeAVOZIXfUxBFeK11bVfTO7sqLzSgkLsdOL9WXSJk7fdNQHQpqF5n074YU/sD3/lhx7qqU57wcLOJaOMSBdq4WgWYNzIU/S6dh6waIvbCnI8qM/nkTOuLt4V44ENK12+WRHRDVH7zRYfr4n5CSP2ouVQbQ+q63sv+1qOEJ8Pv0yKzNgVWRmpD+mlBfOnzkF5PVQlq2SJPxTaNrqjUWXaH1JaYdfqkuNwaSFl8rcH1jjESfbqMzdNCy/2Ksk444oF4LpAhLHdd9UOm0EujakUueTbRVqmGDSFgia7XuzPG1FDdzJFUiQmxJVNL9tqLHzGOPxKJhqHgcd+zMUOSMsiY5ZCSL+yqG6phk2+rbiVRYH7ROvONAfW3ZikWXOmj7272FsJZgAa/X6Tb3LAcwiEPcKqmxqSAoaOLgAySmhGP1VPAnEiopi9Ps843V75QSkex8nN5MD0SUCxTbR2+zFrbKTjdQNPUiLqf/CIkKuQuNFPDLflDnXPpuVbzvfuQASeYLqm8dhSvIbIWb0ZzgxiwS24R+w1zP6K47skddkeBnQoe97JUCFt87ulJnV6laacOVwmGTBEaXmzHJa7uN6QKWSr6pcQPfMi3bSB9jaGE/+IPLYOpSeOpCeYXCz/xlWixzd7rykOyaXrakLSKF1hjZDNigiVYKrYbtM9mmeq9uLJa6trEqGKOqkluJS0vNE/iPwEmPfgQdTmk+hhZ5EvWaHRaf3wF0FfFHcMgsapMbOiuR0nKn6hIEPb36r10YOFXaOv0qLzN+nhWJKnW3DE+ELt0w3GFeihyutJlEdUJ+6I133yj/n0cP2apaj1/4vUc4q5qXFCMyL/hHIppiuoIocyW4Qns32XciL1sJ2ZyHQEwEyURRD9WjC+1UHmyymvAtwKKtu5S51lZVSFf0/F4nKbjRFdVsusRUqTsgeVWyFIDoTxxvhu6ZZ6sr5GTZxhNDkMf3WuHVP5VN6PZKq5o6Ku0SOGNexCwSf2fE0kx293LWscDm2CSgmLgDm2W0aY05uEWMqR0qv8i3Or/p5eSxhtC2mpjSbAuAVX1fNXvTzM6KXBc/FdHldzmHlTDvtScjyGid6J85zYpEnQGpahZ0oOE2aBuknl1t0HRMxqFAupvJCpxd00LlBIrQkVM09RE1YcMxTzHzTAvvCbUDTLCgdkuCli2eWgJ912Vb528i01kITVgiwonU28OLTCQCAUyxRs3q5cHStuXV/DyWteWL6dMpkj/LFk7qhoRYzJXZl78Sws/CSlwFnr1sJQEr8kpITxQqy27g4sAxVe+AuHHobsP57uICgt433kmgv4SCpGBvAl06gO/XQMyZgAQolds2zqGWauTVdLwnMSRa7fF3z20r4VzOLe+yP4kGLSSFdHjt93/2LsWJbdtJFjUFu+qKBIxgToKFPX6/688dM/gQQpaKbHiiu/kSir2ZlemKDTn1dOtJC1ugGmUQteSeqCbqCB1Esm/Z5CSzFd8/AuBjzc/qkHdtRMSpOQlXoCUkZSNZuFNddTLIsgwsNc0zKUy6tvwtFUBhQqkwL28zYld8k9O/H7xVq+Bih/KYhtzP0etsYIJjSxL3Tug4TAUFLC3XAH32OcbyDtFlpHmpej3UUwmZEuQmxjRrxIVbv9jIL+MaZpQGzohuwJATM64spRKrK5dD65WlVeyFWg5AYM061l9KlRPH+CYQOUpWvdUG+9E8BOQ2nTsxihO40Q5BYWjX6BJpQQEqZP41xC1XE1i+yU7fjGCcdUZ4eXZB9qh3Xe1G6fkCFfEFwrJPf48oi8zhuo1Cz95R2gaQm33A6nt/YMRjg7HozDRqufkSIiZhJXUt3m5901tHkPxJazIE1LuHlI4RrCzDs92temw4L2Fc40GvElbGwXRp5M4xXXXQXdfi//EtV/9ypomiwZk+OKRzLupcdGHO/lxQzSKkIqClZFIq5BajyP0btJeC8EhfDtoIrJYyZYDgARiLX7drlMcro4qEBUJGNhrb16AFLqy/jTZ6Nu4gRRrtjM+zHprwmRIsYU+PoAUK0O4vZkPpLaXnPnfNbNqZvsICTCNhGFev8kPfv4C8EpYlWq2DD+9nnAAPMIGdjrU9F7MV+bwk+L52ysbqaU+fy/8KQbVQVI9TGtQY7DJid+2q9VYwqkVEk7485fxR0jRjFcOYl0hf4cNofNy9H2CkYn7XhFSZZDXPpn0KSbsJ+2oRGOFdQ6qyuF6Bk995j7I8XKmD7BuV8YoJdXu1LwGKXD6D0wWVy3U+Fs7kUY0PNBkNJkyO1X90GMj63Dzf3Hf53+a4yfKmMz64kixpJgxCSQ9msqUX2b4MomW+aY4hTK548B5rLaXSM1sYW90luLA0qb7cJoXj/XsiAcdGy2Uk4t4f+kD1+/tpbr0u9Z0lJKUNUcl6CZT++vhclxkizVSVPkChBRHo+NKvEMPc6j9RlB8jwu9UGkwjKbldDvNxwXrijtvfvgjpSJkQzBtJjlR37WvJH7Id6mJ5B7aG0G5r3vyyYV6FJVrU0n8Ytw8wPTwk/hVfuE0WxWfkCdbM7oVrIgqtLLhEmBidvHGQCWrUq7qHEL/AANPSzQwUGk4ns+Qu6CBXUj7KCRMlD3ltT3/yON7kDEupluGEiaSglorLYQxqTWBqedNJz82DCWkjDgArbn8xeLX4TLPIQyF72FGxWHpBRrrKGDC46r3NIFUSJVJm3pksE/0/A0Jf7zuvOwo39Y9PmGRI9Mfz9MjSPGVOX/3H0jdd91CfLd5QMJiYcXzszJXCcXLdIHCfu04/lyUCh8MxvSu/lDlRgN0Sa7ivsfy/RCOllnoY5mXe+JSn7BByfRmj6Jd/9Ov/nzXP4MJ0/lwJZQa2a7NkEL/eVnQLhsiJZ1/E4n6vdSl47blJ61yztGO+zOFaKjbEELU6TgvciXdl2fLcj6B4m1XnTon/2KF+Tmkeja/nThvVSCFRrxvjWzAte19Fzx2dRdJex9AClksTs+n41e55uW6gVQxlGqczAtFU+V+sfrnIUUkCHumkrfTjMdj4oOn94F+7g56EzfoPMCReX0oBkVW/J1oKKwxtMaUIGq1a4RKBAkcVy50cBRZDmNAQYeld/lL+khT54vxLN+zH7DzNFKF6rZA1Jq+gUDYeX9cZKe9F9uLvms5zbZZJU/H7ZoQs4n+5H4aBCmnCeM9pKC33LUPl0oTpOC2bG0dUroTDGXv7gOp+9QbAZ6QcilKrRR6ROrXUmjgcjTr4PTzkOpVdVt89e7yf6r4iIoCrT2hgx7yJY8ItMNGaSuT/sxyMElK+KWLS7rF0uRoMU/WgDRm9kFK/MKZBv9BiTjxUc9arIdnzJ0gThPLKcd1X1n/0FZ8uHrDWNqS/wFliQip0mhBl9MRYc7zU0i1YmVXDfkM+9Saah9DihUoKP8i2NLUJ9DTfm77v/+U/paWbcJF54FNyVds/o4uaeqFzC/kWxeZEb4v4FPJZ7kemuxelKlIMtz0ECYBG0AOimPfC5rk/PQRHqAoGVKohY3o/+zZP9tR928l3LfK+vpYfOmvziOVayEqpBp1Sf9OZkh0++N6cQ7OOuqU9ohAym133dPGEb3NMFrjPgdfaUjKMQMp3XyNR5ByzRNI9RKlYAZl7wz4ZIpOwqTpv4WUOMjP1yn732woYhhtYZLwiH3x/93x04MAKWSBVGpO5ARGJiQoqUM9ddz5Fsutw4v9tKdRyvAYJXnZzN+Vkp5qY/42RTdsOIyiB4gwRC089XO+ncWCFkwHtqWxr/gVd4rLf/v8pxipWRDhUbE7nq6TQkpttV1WBKJxcfpw+tQT0c0SUpArid9KR9ySmAyheM+WfTSPElR1tP9OAkmFX7FEmNv89KaLuZEVP9diSpai/hyz4lrzRta3IYk5TU2tZYQbIqtSmCh+olS1P4GFCZvXNdeLHZHQiafcQWTpOyPpyluGEoDFUSizEVLZ/2jijpHp/emQIEVj2IUNAj5P5znA6RppDuN1lPwKdrpL35sfL9zI1CE0u5ldEHr4jONUDkrFi+l0NL2+9fzuzTAkSK1vXzyDccGj0SEA1YlAbdxcCOjD4frtpukp3VhLG61n9xw9EqsrTW5VTVkRbV583MioPhRFIbdVv46asKJA6kLJmA+k6hQWnOh07wrW7CinQZ7XbKRPzP2WcMiHN0EqZB46/IxN33ghupx3mTsvzWn5CkwFwpfIY1rmZX+6kccjfmLsKJDtcZjOvNDhNUgRUZ1ZaGwqFNUVpoSCAzkmRZTZUngAKdzIHNs11lNtoFFRcdoGMn+EzOzKLhrPh86Lyhd7hJE3oU8ZNt0vz7rWRtnw91Mpteq4HUET/K5ZGyDVkQFABcFK3gfeB2pKDg4+kKqFKfbbxsiAaTKPRk7DqM1ryFCgnNgf4Wj4rgtE3ncdS0jlyDCN3GaghyiafTxdB8iDY43JH+k/S2MJ/alRncjCuwhRK3zjKzcyBal+ERdGKpW4u/1czqR22g7ZsOKoJBkeDc2Gxu84k3BaCjl6SDsJNkKZTODEb31H9vfkGlus+wnRzgqkn056SSOyNhl0FUhgLYfo4rtvEGXAyYLEhyuZ8mv1Cq5KDR9IfZv5uUgCK7Y7MpVaEo8DW0Aw+Uox/x30CQrzKXgzpKSYP4BwcDmMeWEcQsa+26GAOp0DboTgEYUbRhu3JBALAgJebPIOEBJcYHMhvAV9mfXK+zTtfT9oQLmHlNlfV7qWKoSYgo0kgdxK+ddOCrg0YNYNJeNPKv6bCEmO7TWhU3BG9/37mJn3kbWVOoX6tAEdZDp7VJ/mcbOOLX1KklSF8mO4PM3dsGnwfCCVk+dQ/ItmwpSiVJbwGKN8gqhgs7SGWcP7ICXGlWTIFpDi9TDvWyJjTYR5LuFZjrEq9O8kPmmlISvJlgLio/BUn5ceGVIhv5wptu5krBoli8ZsHnNLRB5TjBIEUgOG5hItXTGGKBdhVYrswFqwFVphn1rXAyHF9ZDyQRajVJS1eTLnnWkDnsg+AAAgAElEQVRmnm0AXKneFu7nyQ8yIx/atsrzkyxYUu31z+doh/kYZDTav73h93t69bYdCJKpC9Hk0+CSzj1uL2e+UEAgpsy7Zr1isxc3Dzb8zOk6L5DKV0hhQeLkW//l/eksuyBOtIRZQ8kASFYxQPiYUPuYsmz7jtPmdwiH7E1k+82i2wYZvZIbV0CKJ7PjcDQz+yRccaU8M8GRuIaL+vJGlIxSsBhMHyd0VqvGHKV06wY57zPqxIz7wq5CglQ0v4G38XXfDmJX2NYhxQ56SIEnDq2net7XiETBYH4LSP169kR4xnLUasV8MNM+Cw5FEbTQcKf5rt59PVgvc2iNWQNR9orVrTx1yql7ibxvDv/7KuZ9rELOHny//e2QdLrGu/ZYYo1DtYR2F230nKsvhuuEk+d5XO/rj1GwuIFrXF/RWojznY62qHcriNG4iy0ehs4LHbsKtgdXJMjExUJohUOENzQx8byPurFPhMsAGUmWo0ebH4faZaHE6M23T+jjYtlBA68HTXT6dRxV3Wf4QKoGKWQLHGQkjaJy1WczXmHdwjjFzlD/FyGV2maUPbPTpEc3QQoLP9fw0ekuxCQaqWBiewhKRndLt86zymtFnkPpvG8hpaXM0BsoCda2iuMMGklTpQRJkAKnv9TtLW/gmBaugHKTOpEJUvwSj3LzYI82PPPOi38MqTbezNWufoYUjcJPT1m3EKYxdHKoQ0q6Rpd5+EDq8VNpYO5lm3H9gB43+72RUhE+GKg646wOre/+LOEvV+NlKRUphk2StkKeGVL/P9i7sKK5BcHgZSb11OqqbaHbmC/RxbEWmWi9nroHUSp6pno07CqCMnFrCROdob5XbhbsYJFObzdRKqXPCFIgL1yXYx1SuM64QV9dUZLd6odTADLuRA1xLJ4vCVIYKz6lCHLKxu0Qori6HUC3r0U+7Q+k6s+lQYat1mbt602YinQKKdOFCy5Dn2J/6lVMrZN/stBVYkF7E1qYsxi6EUsiNAbNrZkhytIf6crDshkEFc9oUlNndtY6nT3VjqRAiryFmhuPrlZgotPV1Fnj4xoz1rU5V3EDpYkY0741dyFDql2u0/hAb9bKhpJ5zFREeKHO4YqHlHuO7K+80qKjJ16cqNz7fTVopXbDrzmivyV7AkwtkAaiwMjdxHel4AsZD+z7EFODkLxMbgX/yesOT31poU8bSEGWiSsE3CW3FEZ3bjr9e7kJu2G1YLrlUCU6T3ig7k3/DFLU0zDLGSuHNUgphQR9zv7xsBiP9o3JRRbBFlYyD6PZ+QgpkyAlfMHwEs1DCecQY/aVOZCJSsDcgaSE3CihenR3RqKXFyAVLmNWt4Q671Y2roZfg6nfsOM3CFWOvvLONm6rgX2PL0fyl0UKY5LCTsbUC3SJVc5EJw4Xo1TBKZSvEkpCWEPFhc75xMLCpVFUyfdo0oCaUQr6rL43Q16+va9FFFLH03/Zu9YeR3EsKlLiC2WswdYSElJJ/v+vXM6518YGO2G0Uq3S6hmN1OpRVyfAwfdxHqNL9zhbSCHAxFbtjpf/g5XSmnCRV808pGCYgV4QDk69SYWcOvNrNw5LWUwaWqmLrVM/mPwbCsdcWxwO2/FxeTuj68VfKcYl+IKIUQapHwOp3z6l5DGzEpjnthbKGTtJnlnODTCjIKP1FFkUdtskvfgL2/VQw+GAombYWrlQSi5idUeVOXIAB6yiUO6dA7snPQ18AFP4hSPRtBNqwgtI4WNffhAE533tjCA2SzxTzboQJ7F0vBGumY+QQuV16olgE95COtDmVamFVcsxA9Hf/vpGSOGHwUxgy9IMeTyOwR8HINUiyqEJufEFSNGzrP2dY+ojIQVrb5TPEHAn8VyZv092SulWnQbKQm0Ju/9/Bylq3O1dfLbGRNitAy681pmwrPuhkRMHsk5VEJi68qen6hDe0v484nBpu3qarA4sLcTN5V6KA4qls4dOcF/59brq5ZSscaWrJ6N4vBge0EWbnh56cg0iJMAC+n6MxYg1OXxRtply2UpIUR0NloVPrQ4CpIQh2L0fTxj60PHPjQVIsaVd6r62/Qup6hPOezvfH4PfBN7FoV8eKC6rH+5YFkytaV3HISUvaNjsWan+nRu2kFon4avBtBdEq1URMjfzcXVgqIYJu/orWSFdlyFlJmx5UXN5Ri8V6y66kZuyGoJGTJZT08FtT3iVDgqkyJZN2Ec29FGCqI7s7+ophbKtMMNPIUUHlvwFGIs3tRg9MPET4q2ssvYeuKgd7laF038hVX7CwY7RoZ9vqjOr7DcGKccguraSs2QOEtPXxlyyz+F57NOc8hVSPnEXHCIxSmkSQwjwTMkKK1lV3SiXxu9nfgkpMIHg8/PFbXdTCo2jLSWWUkULcQlfX74I5bh+XzBHwVPaDNmAqKgKhnS5NEIPkGK51bd9BVICBlpzZtqSFVKjuIS9X3LMsKFzQmEq9VJjDEf6C6nKtMAKpKAUyh6p3dAvand4o2mmzASA6bAdUQYpC4nGLD2cqO6Kjj4J3y1w13Q0TA+H7YAiMflsaNM1ywNga88A3vDTpLm2YwlSIJzS/xtmfZXxBsm/gyu8k3zwpKR/Xq/z0XWcEyDVTlS4Vyd+SzNn+z1P1aozC2wqpXDcWNpHSC2HyxGlCySpWq6UxhNejVw+B1K/zvFrlfIFYQPamn17vbP4XhnJ3oH3Zr+OQ2rd9huC6i5RwYPbihFW9/3o9cpIGOGIuzM1825X6IRFUvg1IRUz0isdOXVSspQbytGmUrLZtkS9pl6Kp/zWaDbVO7mRdNmuXQHVrswT2vrfy0N8PbbP37aYsKbLgcDbTWf3KSwwTWrb92KMWUawuVlqtumlLtj81tP5kategdQJsoBCe75ZTiUMaW5czz9XBFDXNKIvIEVFtt4/4VoPuV6qybirIb+CFgy0J3eUHg6FMitmcaaQsvtFsy56Dd/MDOHcf/9BMjeW9gHRUKbCkkTq4Ciir80ZFQzLGrJuOSCMq/G0n23FH7QOqQURpmhFKYcU9FqBt5u7HCTprO8hpQWs8v5LxooUbZn2L6TeERp6Mv3God5NZVVVmAwzifCCNWOf7lheQ0on2uCSibAjhVTm4p2GQmNQgh6OkRSQ7T6ez58HV5tZunCiG1wh1dchhcwPIpv+eTvaK7d1iF9vsTEw5c0QxVLjflwaJJy4XiRydHkFnELK0jSiCink4pbmI/LdSGUhM2/nwB0tje6XA9J2vOSwSxkbXz6nPEVbxrbtL/DQPxVSStbii/bsC6fUyhdLmOKUIIAztNyqefoXkIocVvT0fBBdAqmEVTZEPUS6tBq5mVrwdIeH+Dc2OflOusmVuD9CANIHoEKbhXhQJ/O7PCZWfrKUssWvh3KwD/YYbreV0jW245Y3KNT7tf3sdepKkcs+qVcTqpBPR0/b4t2zMzh3X49zcvXyH8Ru0Nq3xwteDbwfvgIpsNlN2Of9hdRrSNGWMeeYeeHQ7baHnA4rUQgW28HX7hik+CCJwwH29F6I5qVTagcpaIAeI/yFrpcv253QfyQdTEK7XSF1kWVqGVIw2OyuTLMfNsMB+cYOPxEx262dbC1Pqe8Dh9wlryGdoku1epa4jDWAPcxpen086WReSICPyjFbOaUIKfyc+zkYLu+PKZxyrS2axcV7hm5Rvse4jt7zs1K80NUq+3Ch/z9IFT9y4hcp0RYTigcbAu+iLnTfqyS3ulGVqjBszBHPnOAfR+bdNZqJVdth79VWRb0bhgVQz+8g1TdS7GQFk2boINutUTull50kktMpgmx2JtJSajo63va2TMKBadjyrIrBqBu2/D5PeiIthUw9QNxSo1Sc0IhgnStr09pKgk3bshdz4fMn00+nWaK3aevNm9+RtsM3nOkDstGChkZ2HMXwltHErWxOjq8he3EftR1opdLDG/MLkPr1iV8YF8Braqa/Pmk1opCXaihue5LNT1ZTPK+0dTyySEwsGS20CGPNFDWlUouaynMqSOsje2o12Qbkmc3wOiiEnUS2XOIKqFi1LX0gPeuYCrKNKNPkjhFFVz9XeG2c180/juBpNkJ5zEUlBRV5x0Vxif4UCafaXQ8eXFQ6mbYKKXyG6fLjwimXDJSUxT4+/kND+77IZ2I/aPsJ5/Vmbq56agmNG8WdEyGztq9KOstkGXEAla9rFFLv/Wo/cy8VxwXLMXWnEl64arljUk6pSH4PAQS3404EYe2KtsB+j28hlVLTl7/p/IPwGHQ1ekrd5E77LaQcuSACqcm+cNnqZMUqkGq2nwfIlKeockrRMhYD8FG9cDMB4qDZUGATTf1LafnXwzWl1EEwsOC0NtWKLS64jAmuN1utizKzSMwq0C8CQ3+Bqwib3ab8DUGM0EkNkKwJieOFSrrw89vg/Q5rYLOch73MPt8eUx868VvHBTR64L5JDwfv954/my2QmCYJXac7BCmrxvyix34HpzjK9vC+fCKNOtHnc0w55L2HUhBx1uLtLl15neVJKlEQle8+D9ns1zaRMe6HExKQJQObfE/mBwkJPUtLZ6qnFJILfbHwc1Q6/cyvRgv4UJdEnJIWFDIsRZRREVLrSbIU4uL7mznkrvt17QnvFys8kmOLk3jRus7Q/P0fWL8zi1V8r/9gSHXwhqTGllFlogaVEVgCoF1fRbKpDojtgdIvEEWhD8rWo9UTKni1wsfudpkvy1uu1RQc7mIYLp0+BUFyB4uv8XtaA+bKCL8Q2MNqeLtbboZo2yKkhMcuWfexp1uvEg3E6NVExkjt+tjpOTbF8BJHRHCp1FYKJRzZS4ExpHvFcIOcOAHqdzAvinFjJlJ/h13ht/pIO4coneT1Yg9VQbz6E8Mgpul6vUzwaDJH6BeffUp14mA8noUTK625T954W96P3vFRWKWTMcdGO4Ho2Yq369t/6NMKUvnj5/tq21Nn6QFhAqSiEHF/utH5joVRHVLYHbgwjinsYcSYP0r9is2U8uJ8E6jx62UC22MABb3+RPM1g0/hC/E1g4oHZYpvyn+/Mfb6HP04JhbcazvoNUO+gkhpNLFbRN0/1HT6oi0mq1MKubJYpg4pY+YL7LZvz9v9crHHFFcf2ku1SrnrEcwOXpKyJpu4qMnI3ltUDYjIPt+4/jlS+tlZY6A4tH+PKOUineEjfgq+/IFLxNTAwflCJine+Rwdt6ZuN0NXojVIqQgpTI37AKniNWQrNayLrURmAkiB3QclZInQJH56Yv+x83vCEUnHZ+SX1CDFrTm2CamEMrW3wrzveX0DKZyg8/Psa61sSKe6cbxroz/OMao0/5vgDky77fF5n4/9+U+d+Mm2EueUbedr0P14v5F7l3i0jbiVsX/ue3Ngih7eb70mXbzAkhBkNbRiKfqWwqGNbZQhUXAdomcUP23rVRr+GlK3s0bWlUmG3Ai1fW1qGOK7Q9B6bowp9rJ0EDdTVxpxSU8BShRl1XtCFIVWZKHLlSu3QhcJE921UvS01rQGU4GUYqpDhVKDVFhj47hsE0gdRBT2f3QHHunAOp6F1GJ+A1L/h71Un1FkwGjAM0bxhkygcm+H7Tmlk9/x8b187tMBPY7YmbRGEzteNlIsnMh5V5uzdhU8MstvflCa6FeqQ8jRcY4Fl10Xq/nHkNtpZPzdrBKS7Z4VgjtDumv5GTIyAKezqKLZrzpjNptMDIyS/M0fZ7P/JdqawqqXcmDa5toKpFhizOM2VSAZycIBcNbBYHWC0E2X5xh70mzGG/Rry0d58HQx7VtIycW1mlqwFLYAFGK6VJsDqR20mH80pOIjfyPfW+JXwJTYexBt2S6ssqkG6g4cUgqp6fVWKsCYhQsQNRl5ALX744EIBeqYB+MOK9OCKUgVSIWHyd4fsYcpzSaglBIAVja9WHDP9L1Tc6/NSlxIt1rl7H9Cz39p/uF8keInGXVtBVKYmk3dgob4Mtl8AoxpYktZfq50xHIX4u9QWWJIwNYlrm/fQIocXyyjOnuCU9wDzOQxaLHFDu79EP6TIRU1Bzw9HFPkxYG2gKHUOm8I/uUQQBxJcgjdKm+hf91GISsYI0ieUSiQpvBRJTp+uo3ZQCIuUThi0ajBMqCYnRHJqgVIqdiSD5F02cVDSnbFbkizc9IRqXh0tUkEaQkUSOxovNujmp5UEi9gy5AEmen7MWaDvswlzg1VB8C19DNUgzZNU3a0kSnJEM7b97YIGotMEwE4xfEYZ7pWdIaf/lBIZceHlMiWJpF8LSl7YvB1vUdkWQznNX7gPZANRHtNFVJrdcncgPtVFu7xg+qW9orHIOQxpR7uA6RfzCerQIpcajxIIcRgy2ijetCrfV8o20qjCXAEz+FJGXYyM/dgKlQ5wD2sm5dXgwzxd5WfE34e4V90dzWTZX54VY+NieNteuPazJ1U2cUwpE9ScnqfXhQ4+fUVl3c4W9/TBfJAIinH+qID+HMhpVSspcQ5oZ0amFKUlDL5UCL+VojcHJxDnsPpyIzRikjpWc5f32ogcSOvMeZaEaVsUYJfffmDrz9dNYXh+SLalpAynDr6YGix/etRoDxkoWOrd6S3s5hixry5jasolCEBUpXXuSEbqfEl9gR986Z6I49dz/dj20qt94c/9du+GwRMuf90riiOkALBL562byd2C6pO3XS9SZLKmdFfGNaw9z4Wq/KRyR2bGtssz8gpXIWKuDd9C4YVqbJ//kvete24retQeAKfB9cWtiTAUeKZJP//lUdcJCXZptJ52sCeKdAWKDBpnIjibV2+8TEJtId54f7NuE/OBCJqHicVpqxgj3SrMl3Vo0BZi0G4uP32Of+C23XQlnw/bJT65KN0Gxbo1bExalAaxnCUkvcQIqcFQ/c6zwca5jPBDCkKaxzkpfcC+esSv5zDfcdSNFQ4vseDC9HfokAWPXWaoLNXsN5ob1e9GP/MOVI3AHICL73p9Vf2qcWGa/6Jhd8eU0pS94QFu79EAPOABTjI/3ilfmIZG75184gm08xg1cFiCLVgbpAcL/DGTQW5LKJAiXJMayxSQipACLDAHo64+xpXpHzXcIwOTKn8/X+madTZhFV55Zv48+mLjUhhGTcBQZDELm6CxmFzuoArRYj1MyAJFHcNKYPvhUVza8m6E96hkIKQS79mELLcUTujXfNilq+ZRSChf1n15if+mNP2IDHTGFeqaNGfKypn/brDNPgHh5SkclK/At/heeWNb9yfNoPpIbXWsFI7te1G8p2Q2pgX7ofTnX5QTGAs+cTqRIwRUyQm/RPLdEVB3ShNXscTtFHqLuNQSSX3ENK9WDlVcrgEh3jSipFZE1KCMaTiE9aJLIg2WJQ99WIy5TlI0+/CEhzRDKkhAunv9rVj4yZU6I+FArlTSILwXurSljikRkb3+V7hh1emeoGH+bq9fXdKZ2oRaXq8snNZuXzlK8JF8dfV1n+7lzqcesj1hFaxNMaudhLrgZFud/7M01wUyE2jDFz6s9K6D92UV0MlwiCJkeg+j4quJgBjp81WqZzYlWB6g2lzMHC/hgq3jaIliCZq5cN4E76dnOKWOQhK4va/F5HMYm3miwYhOjxITjjdSTlnIrXhYWOP8T3Wq5Pg4Bs1zVHXrSJ7sbsQdnut/BY6VAz2+5gJ2/kEB2Xo794jeQtt3wMgwck73xQMF9vJq/N9R7nqa0vj9KMnfrsTl0OKJJ2Djsi9Kqt0kH7V0+l1/yhyyc6ZxHSer25PefV49MngaQfLSdOafXMfNaaQ42SOsmxfYdgJt9dtrYdMV/f5+EA2Ol9luqHsoCfG8J9H6ZK6lJmxJyKuv9iklSJpaBQ8ifQ8607KJHfk57i9wm7AtmeXPP+4Qi1hZVsJTyzNMe67xmrudvIdwRa+F1L5ZloSNc9UlgUfumQAGtJ9bX89PKxMPc/pH5f+GLBodq0ahjrq+C1ZiozRin3TwcXBIvlqT0SzhA/H/KSxm6Xobnxc7e9PxGWxbabu7L4RhLkNKY4o2vfLVqoN7mL9Qk1MLytoloLbhsiu6HzRi9AZ9dDGyLBmKcqSGOM/V9UWq14+A888GIM+zgVJ54y9Vr4anoFHAIb5jA+okMpSSkNK/p5ZOXroZjkfsYS3c+TCCEjHCMMhdFUE8ZXkZ/nOuWQ0ots2eEIY1kIIqeu/FVL/vo5fr9mAsF8o0pT7aZh9l9GJvJIzspRKNgMV4r8A+K2GYLLXyg9qts/X/eKSE+n1tvAjnj0TYY+i6FqmQtZotEKK16u54EnazxVSpVdCC/VXkSdcBs6Y38DoLml7XiG923TyGlIs0UXtx7z09jiOWOOkZR69naVoYngnqDmH0bi0IUWcHEhZxtCD/a5kJ3p3Y0+ABYCo+0vFaKJla6qUA5KU+RZolOL09nheDUedwuT/ThX5U7IUj9WnxMDk2NqhGwOthoIhHs35C0Sj41x/EcMQ8nWwRkxCjvdiZOBU3F9DqnqT3rhsi611hxyBCP6pUavXLj93QqQYoWj3Uvnx4hfiLueR4W4hxcYxT6Ah62HRuTPD2LkVnK15Y0HoQXYi2lkKG/Sl4gP3YCDupFa1fjB+foV35Dz2ztSUSFMThlLr2s1SEOJdn7f0tltYxJNkBJsROsKxN+54uzT8eYWfTElzp6HNexNRVgfbkD9EjZR0sPooMPYMXH0HPcHCm/nmfaKKVHj7cuALOPrWdllKULxCNn44K6QchxRly/Tn6o/6XFWek4dScx/ERZyKjYFEMTQZAnUNX/iB3M3Q9439ITpcfofoO1mKC6RDSOlmyN3FvLHH5aTytXE3sJ6GkhSTuIehM/KjtURcXzf3nZAaJ24bGkrmfiofGY58m8Zx+SUhhZiaFsjs+V1MnfBIZzYGYdIJZOw6IbXw4Pexrr6xaTNkgeK60kbqMhbvvzpzRfEmPPvS1hXdvCLhaGWFot0F08ChTVJypvl80j4HIuadiSGnCOSXWAQ8yySepSwCPgvOzEKFtNAPPCTxtr4rgQznmphqSGGOjSQ1xGHomhbCBIf5Lb3F1Oca4tALSizxCfgwAMTxPqA4qOZ04ZFJPDt/1JDCZfM7QqpyNsHi8f5ARDvHU2xscuNQaLC2WcZSdym+o6qv4ttf2K8vk8aUykry70nG8DtXUdohrrrPcgZ/S6dlEzloou5T3ZWiFyHmNQGGTIvZjclHxP683NgXAx+ZVLA8IfVzs2hs2ZliZtCrFH2GuuvrTmG3D6limrA90AXFYIdUfp4Vu7VuSMl8o6MRUDtTMpZ4pL/lKK773AZ9xiEGe3eMHR5C6nfspXQeNoNCU6UdWtHKc5oqI0DalFMLwssngx+EKmhisbAYOpQ31hB8bG4Hed2FlMtNff6/jhAp+jmUjtfP6nt6IjIwPHh7nu3eYt1er1+W7aCOw2eWzlv3wpFllk3q1sSUSuVe6WC33cxL7+GsCI9XU458DSlJU8A70kp+UFay5VkIKRnccCfkiAxHsDwKtgI6o/sQUgThdF3tCmafTnjNqXH1iadxFpQRaYae76vxr6pjP2HiV2VQ3XKZEiG0VkM+34aN8/SbMGUkiW8qdiwMI7x9BW9SO1iaicpwmK7sE105VLRPyeV6YBZP69FIIQVbRVAi5y7KkN7E4zrE4WRKzDFBOzGSIe+GFIEvNp1fF5ae1m+syLtipbTM47uQmtqQakpofiE+yM3PKl+MhoAwBQhRbeqiWT1wR3jkWpFAFQ1fZ4hovyGued0lXV9bXw6GdgrjxaVpctUnKx4nfvR2WHcLm97vCEr/gCylIZWvkET9941Rj7G5N81F76BrHTrQMmxbLD8kjNDBMBqC5VTBljfFIeJcO+qdTxqx4eQupQUM7mZnz9gEZQirjMPzyJiAQ4oEYk0WrdSOd0UCqdZ0FGlWCamcIO5yDRS4r5WlmKh0ZmvJS4CZfnwPhNxIrGUaG7Uy42sBNeTMKGYL+mkCP0asEHwvpNgEJ81vQiqfFTflY5PuXzV1n/dSkb0VmcLllt8UUkID/bhvhPa7xq454tkfkUZlG62STCnGSbZSzMkIhgY4m4nmHgJNSCek8nl6tlJEvhFxYULEbXZp6WDa8Hjbl98/j7JD+A/KD9ObZTjQfUrARESJOq2EFGnMft6WMvXv8J3Itm5fWMd2+Zw/hkuz3Gg4FctHQq+rUrCnsJRLLr+JixVSnOcgvVF+viv8RggtSFD3zkyiMjSlj9vGnVm1hTWX+cIS+DUhhTsMRs0QGgHF+YgRP9TI5WSyrqZqkhpDbKQO1b2zBFTAzmcxyKkco1NITUy7CyfJTr2byRHKqP0XHaMTF3cIYf88OIMoc6Aq1LmV2R7L3UTZU3JUHFpzOdpvcd1X9kim9cdMDuDBDAf8AUEamA1VTgUmPGkCXQxMpjj0FJ58fObsMi1G4Uefz0fCbi9cfW9WVPpEqDR1RhysJZJf7587Iipc415a6bQ6pgD9lkLdfz+klqUR5yX9gCkhpsKu3TQ9fFth++vzcRtN8xb260PRFu05FUTAC5DHxrVTG/Fa/RpP/730+IRCd52QEv7i/QV6+wFbr70UoxY64ABA/DZxads5QzbmctzFtAJdNi+YJZriiZuBUF9J23OcVElejXSYj8TGlSoSMhzVamXzjbnlIoof5XZycKGEOimoh10pbX6YHFIv6OV2lgrLlEM8fVB3uQ5q+2AakzIBhkBS33AZ+CEhpYCXGQSlfHTuMtcSfp2Fmm3VVb1oZbpltv2cFt5KsYCst5aTYM3lsitNh5ASEiDsmL5UBXDXTXkuvvIBoIWPIfKlmy04KfmDi6IcA4LVUy+32OYzIn9CpoMNPL+MJWpIYb5RNnTOpDCC0Vt7wEb3AiPwr1saIVg9qvechBT2WVcxrzJDil9nZZOEGlKiNTISrdPlyhEbtAi5bjOiZAu8givVDSl6Q5cEsWIoq1YA8jlLlQBdfqRzh1UYNdLwlGm226ssgNgCxybgcn+PWyjHyh/bqdVq7poAACAASURBVALTecd9vc1i9Yw6uFG365ZTSEnlhagUntPOVhRfWqBqh4csJgSNcMGkAepXf5BS45uVEi1R5MyQkjkDtHKbM1OMukXLgvAbaRaYbzekwHLZZylFb+QPGtzXD6SptvCDwBSP8KXwC6XeNDjBRysfzirzyEHJ4sJMDDStRAf0iqsoaBjwtUXSFKo+UvRWyGOMPV1A0uOgYcZvQaIfC62EwVKIVSXviFKOrdYBN/ev22wRoWmhQ7p33McHq5ciKvVT6aMmRjAXLblsY8rqXrqTsao0ep4Xi0qrnOJZxvjDQfBYDLbzY8CQyXKQn+dEkZIeOire24YUFbZ4fYq1lXsjfTLzujg2+L4oDjYI7E9sb1zr4yiWELcbCS5WIlscBjuktrSMTUgpFl+6QbVI9r5DLqEbbiWlKPo23UFhXu+L/IF+wCa2LBR4lmpcmXC7+kJd7n4NBfEwGFrmidB+7C5TpOvLV3iAyHnmw6iR5ukILfkViec0dG5FaKiwuJXxkdO6DAc7R0QAnG8vhcswWjB7TJN7JUbO6eERUofxJXZiPKwiGI8Rk27h/YAj2YtW9y7u2eU093R/F2FjwYBGzl8veBZCY+BugwLRkEqoxyWkhmJq7I8AMYRUu9OqPHd3Z5AkK+12JxNqIpYa6+5aNUzJXUinmMkcMdQlHcg5ln6v2i5svzSkaMIwT//D2O9a8DbtEToopOtnyrAkCwAzjn9WUYkwlSBJlmpjhKYRk46KntwJXYdWwKm+E0CDAN21KJBIXZR8wPoL/rhk84yYI/vEjfz6jBwJJWYY+aC+aeCBexf3uH6mb3y8KEDVULwSCSWknpckeXmH/qC13Mbe3+W7OBSPWj6gG2tDSoMK5uPrIZjOgo3/J+/adiS3dSDcjX7x2EIkIbL73v//lUdVpGTZknvmZINFdiYI8rKbvrhFkSwWq2wWpSlUmpYqxiSSDGdkobxTupbGu3j7QA3ux2apcYjt8XyUqaaXW9mu2qkGhzaBro1SmREhundN0qxjlSGq+DtZM2aJnjCZzLXWs165J9GSN4UXIWGMpYxZdg86t9lV0V6K0ELf1GAZekz9zYVtg3flUrBfH8Pw+EJIUc3cu24h3uYPgacBYc4VbpoIVVfRdvJFimlyJxhS4xJSy1ayES8i372VJ03GjuEh+gcrriY+z/E09wSGiZUUOyaQ0G7/wrhuAdkY83OY6KtCBwfYAKIIokXhqzXf+kApCN23054sE7R/Sr46WmGzD6BoN+aTp8DaoBuZ6k5V/dZLDLJUjKmWTSqzK6VP9f2BZMTOQkY8k8fzY3paMTVeeQUtG0Y04vlCYU0Za7fJUrkMfZ1bcwAkqXgnSC9a/Bi+xUO/L9OIUStfnGeYiIqBpOJyu8NeynM/QUbZEIhUVQdw/BnnI8hoV1pB532LNuvpSIbft4T0vzXi1xhFijoHqwRxyLApUfkNRy6XLSKS3qZZAhmArMWeOhJrldPeBqNq3GOzO4nMbuQ7rXPg4IynNoVMhKBRNdF2sGqmtGgLEKptSrwrXTUEtZSqZwrS7wtH8dMkpQs03pe4oTasAZata6riIGUfyiy8vX3TCyn9QmxRNaQWk0/w34PC5H4H2siLwUQeT1sQPbPPZ0aUE7Q9ry4419q/cup2ZcbxC9Yf3zFLgbUCsZtYKz9lZ9BL7WeXg7DiLXjlEsCQc+7bDTknQl0TsqVgMcgqbciZOSp+IohGuLVNRootqC3cuLHVGk2K7w82pWxouDFlItqexxmXFyDJ74Nm7bU/eJYeC++EOYsk9RA1GL+A50k+zHFMq7zIchSPkMaKn5hB2D0jH/lakyhPrENKrc5lKTqte+3EFH8qPNHKD0iSFETPr+wL4k/e5Vm3hZOUrfzDnCNbUKCnHzHqbfQuaMbBowCLQipv3/kF1amdKtKfNAEKoasGqY12QKagPJ6mBjlk9TCSmXQzpPTFTeKYmNLuKOHDf6U/XXDHS+nZ9FBAnut3Fpzi8ziAULVA+GtzIJ1Khbdb9ktIyWqFfpfOL+LuUHsIoA4P84L4jUm5WomXIsdpWyMpvWfWIaUyAYhJRpRLAUASWF2Me9G771IrVS3bxLjokaOgEOdCEm2LyXG6v17PqVH4ib6iOf0uy7b/HuJ3SvswWEjEOZ4yT2BDTS/4K4SfmoIdBqJCQRJZ03zG6khrp9Lm8FnZzisj4dTRQAz/LnXfjgU8wIlQgJYbSUKOCDiKRJIaGyA8aHmJBlDtt6SWXGzWhjd3FW0OBCPY9BzJb0AtO4YSXgFe1Iv+ioya6ZjXmvLyqrPl5xgl744niSjOGh3FzmMV7LhFUGPe/NP7NUnuZse82NH2LK1nIiyAlai/jt8+vuvtfL68WiGFIqQv+b8/LkuZlN8pJElCmBekusxSxZFECyBb4q3SJ4YUuXHWNhEKYoXk3O6QnjnBVWF/77tquYPc69e8G1Jgdw7zK2zug4IIIltKx7lJHOfdMp7pVS2dw1Z+Vxo06BKdP0n//BebHRlAtVtyaUP0LJ7GI011bXJUkNCQS6pmXopsSgopM9P/9fpBdxpLi/CYUFGk+cWRfm0DGX8smUoVusScrcyxI0BbBxYHoU+CfKjc40+IwH+05GtBJhYCblvX8OeEFOR4dfTgUq2wvhCXkEq/9avG/OKJ/ni6BTDeqpiR+WDmwz7bAN2wLPCXRpyJ9Mo796HM7fZ+ksEnsAtAtiHW+y5t87SsdXEM5g9p7MPa2ITx6NXxgO4Cn496yQTvtiQSXVtvi56ZAWVfUPI7ZKS4c6lo29ZgRUNqzCF1OI1HsluTZPoEZ/Hby64d6Reug6C38ygebKl4mEGTGhIWzDclyBdv0lglQGkNOgu1jB817nuy0k7jT9Lxq0NqhJESxosKdHVrdZdqI0ZsT64Nkt9cVU0b1Pd1PrZXi1LtYsT0elmaK/E+z43uLPfcSg6w4bFlQBVfQNG625lFTTOkrrq2aoVus8lTqdEMEHL51BTy/EHkctXGC28Y/50qsVtONS7s5JJszetyC2kXuqttpiaVCktSfpjYkmA2yfZyfCkIkJ7tCrApPBRjTUhfqWUqocwJ8KqJntusAYgSFP4eM/86JAZt1SiDVtOb3xdS/0F4ImUpmHpw4huol1P4jNta11zw7ZaTx5B8B202ClxfrLET7s289wwGReGt7jVVmVLQunfPD0phvtgvWpWujkkjHqGDadKuUf8+EgXeVsstaTeEGrHD597FOHXculwQBWkSU0hVCxCwKqKgJ0nDuLYuj0kNMbraXM+Lb90y0Yp55XKfFJSlqid6z/id8GJN3SsYNqzUpoQle5KIutPpYXJKqXIxRV2Owxjfkx+00qyPV8BhPpivHr9vCk9IJ3mcgR7foFesunVtP7ckwdxNVnVOq9mmNmMKL2zU7GMnbAazJzkMyM98hK4MqTLPYKfiNr/zaOFKsaot1K6FPGpCmIHuWqtuzN4Etum1Km0NFjuGz/2TdFm/oHhlMRuE1KMh+IxGKlvH4xGfqaFhF1+gVS1un4/zUCghmjOxDTqoeQAStHfnsn6rl2JIYc43JPpRNniZ++vlA/O5IF/b0V421qpY7zqejEIvVSc1n75+ur8leyJtFfQc03DG6TaLBOtFdStiekqGqc7EfHwylmxQ2uw6IOHcQsx+x+lCHHonFTFqZUpvH+mXb/7/4/HufOZfVxZnqo2kpJ3Gcsr8eGajjKpQSqro1t1k8e/teQHVcNq4A6SQQmg/jzVHsYfqn0ueD1y1vD3ZS1UML+kRsynUicp/qBKeSRKM5QYMvNjSNUtxm8Q1x9NYhNSIgTcsQ2FTyf6ao6jn7TrjmJiZjkqhBiduIsNGXXsz/uGEpH/0okk6AZrMeJZgL3NFx7cVRLwyzHHLUkp+C1jNjyklOe2FVtLDHmSVoclCz6XX+TUlj+AyJrLTxXVPhjLxVHmjujJLFfAI2gFwDPtSRSV/FjrwJMVzXymDqpmPsAz3jdrGNEcnkaTbKBR5zVLxm6woE0aSPDUGZO8QXdCRT7TbrrpnecP4V8zidWkETSDCFMs1FVYB4IKn2SI7xL89yVZ7vqLYWscC8kYTMhU55fTiIQIJoDwZFth+jebCLYkCZZRB/DNDqlw7+/VXlWXWkH1lvW/JkEkS4jwD5kpaMujpwKKTX6aKSZORe3CiCBTrdrOr7yaKZSEtYW8HQ6ASQQdGSQYJ6SoWGGVJX0eS1tYejxD3fJiFvaGMacq8xyCQO6Xgxq1qP9n3iKUj+7nWvthYirtAk0aUniv5PYTU/Zq80VhoQV3m8ppUxglcOfrdG/oNJ27l5vPQTv46S1gOwyw+n15ERIGhQ3eeOLjlknPDOqT0lRqVlYKYYkTRyo1a3F0s+q4Xk4USOcXODm0Sej7csBZqht9Y+P3riN9iddaUfv1/32c8HbDNaouQ2jOwtmKfMhBJXlbX2IlQzM0vWgTZUiqQpLx81obE0RgrL1duW60RN77nqNf68uVJlgULXZHdtFheNYM4VM+/i6JRfZx4typaplWWb2QFte0IL+zADm0QPh06eHY8k0JtWtFICzQoprD1leAAwNbz4QJGAh0nqVUIcBuyA9at15sWIjobQ5qHjL2Bz2eYaDTkiPhhz+JvkDFewaGg3wmpXL+PeUmZLWUQ1BwyoOiSYjo85GmgwQRY6kHmVFYukM6SOcgf3EsVTpjvLZC//A+Inmlc385SRUi9qO+T1hMw2+D6YbBVSMkmbOxez0mgtf0cKGUeNtqspcM9uTPMcteCJSgKV0Z2w3WzyJfwRJGmYBddhpSqJIB3QQqJvrWvpSiFR9T5Tj2vT82QysgL9g9LjduCCYIoWdn5IFGB2jdlcAcjqcsM1dyc82vRMTE7NlycvJAzIerSkIbzYhGu0zGqNYYGxW9lwRwbgGMsinsBz60afgA6vz8uwACN0J4MJi4hIS46VAG/P15M82n44xE/s7T2vxyilPvKo16/tdstftTAzQLh9aWIolWb4lk5pORwu07KkKt5G1JspcIWPV/mUoGamFl2ZfnfBvqTqUmLzbjkCjAU9YlMZF89QiMhdZ8UbxMHnIYqv082OkMDMVwVfjQ6UGHZlfKU9DUppJgYjsmmQ+F/tkE0EJBV+83TT+tj0NOO1xSM78838c0JlC8lAQmA4SFbkTfoSNTkpvBZOkHx/WJDHMvfCd4rgSiTi1Xd63o9EMOSb8iVtpDU/MjzIoDeD+mG+xaIn1m8rv/x6w/I6Hfra3WrNadGUlHQBntI5ZceIqUsZeqNCloKPKUM8B32A1F4Vy9sZQj9dTYNCJ4KV4N6Bqrama/yXGLCX/qxlKIcRdIT08ubVDt+s9lUbkKQGXqlc+N+SFF1/qQhVXLZM7NOreT1buBie8xRsjzhyGtQbNucn6GVpWSxFsX0/XG+Pm535FcnaxdcnoyFI26wZF3XVF8BDgUFvwxVDfP4F9sosC0CC3DH340u5WInQofJWA5IkMrELJM+QVs2p+8TUv8KUBEzjeO009WbEcuPSkSKyuQFQEJOm+sWHaF1SE3PD/n6w15IjZzUuu19nPUxu3CbVyvYi30OXlX0WROInjdaC8SQQO9lWKu7Zkeq613wzjdGnghYYRKNLUaTfC8xcsDT8CnR+8INx+dxcW4qzUz6PW8qTtspF4Ni9lpai26USmlTH4//8zkJ/V99LUMs+xzy1+UwD2PiPNZ7wWJMSnQiXVP9AKP4iYgjYnZCAfq4XKEHrUcLX+5Cj3pBPwNLTS7bz19OUP/dkDI1q/xXgsr0sVNORpSNZXmbfSiZp8KjuOuJrhI1Tl6HhagQlTLVGm/I9hSNfSVakm67hvwxLIK4CKn0CoOc4+trWmTmukVitvwOoMwMKxP59BSNaPc5v2vHhNPO9uW8Yz+TrRwHhtR98usY0EV9gfnvqRukItKNMlVe5w/YR4tFm+LiLRFKbaUCtke4w+4Ch1FOwD4HMmSMqJgzjk/OFBpJih3bzZwWg6TBXIAaksTeTVzSnV4AQA5mPqZzdZUn/T/urm23cRyJQg60D7LEHZIDSrJsK///lctzqkhRN3e3s8Ak05geoB+SKDKLdTuXJMAr3kABBAGFCv7kid+aN7ay1nqv8IO36/icgz2s+9aMh/gan8Uqo8Nso1cKQOnAqegwR3JaIzJKJyHVUbk5VIdUBsywUWoK3jqdXpkEYEYyNECdcUyVIHLWl1x5ceuFptDqDqppZNKmyYxfoPj7kGKHFbuPyy+WfS28DWNICXm82kjB8AmdFEqyjuI4wCWAhVM8LIeQuOEqf5ClZEaEY8+trqh1yNMHZo0Yk0CqwPRB9vdhuyn2JLpQyltfxY0mvBUZzSgf+57rXerfLlpkQFpV2RySWlS4XrmqO9Ew+ClZ6jLQMoytdSuTlpZLijeDqh1imjI3WXd6t+NLLScNr1PAQa2waxtxZOKFuoSUJizsSGJIPVPZd5qljAiB20NmOOjpoCEsc/gUUhx3ftweRKkuQPotidDCSGmF+dBKJlWttvCgOgkpNg3TC6mSlPZglRDWer2yXdIsRQGMeD3EUmvEpc/MxYJLZxPE9RrRyNwlzhLTkslsMT95ZUkRbSewP8Jwq2pPukqXVCudKMeGd9KQOYf3VCu8j9CsyvIuDK8m9neCBPUijFjpQuVPM8L3CymDZhDjLipWDx+rZPXeeIIqck/QI5zzByzzVUUmFIc6G+RJjeIWE7gszxp0Wvf6yTrBzB5rVqg4Vg6pMkvVf0FV6Cmuhcn7s7AUK1ZbOaS6NRxfGrGNc/x+c+AlgbxABiTFWwmpjaK8hhS23jZ8/meC7sdtipmB+1nHGY64X9F4Ck/HX8tv5n1VyYjMugYMpqpXOxq8ptak1fn2d0qGYVACqUXRe7pR9FyQF7g2Z4w+Pkz3kWSh+TFTa70SWWjKjJGUODV/Pm/+jlmKu2rMYKZpnD7GgWgfESF462egzYdjMvndfYJZ2lV/nxXb4ueBLNXgRQucge29JDdfhBTRFqKA0r58MFpTWREbO5LZAg0hbVPXIcUDwT5efvxiBLomd3ibWUpikZGK53j05r6Qh1psD3cOjv1nIqd3r0MqYdrXHkN6y2AP+7wNZhivn5Re4ZqBK6s0m2AZBU/lvTVo4posPHj+C9mJ8xmEPYgezTBdZ+uyB8muNwz3m+w1hst4w9gQ78zJ6tayjTJaqAtoKb7oj+EO1Bnry0r4daG/DsO/IkvV0gRg8j0+H/Mj/l7L2O+9vZRpYv4frkH6oaXDX9RM1lmKaDkFCA3x06uS03hZ90l4cc/yq5C6qyLkXnAYG1LhSm1CitktNvhQCvNVOXD2WyS8gETTwrIY8RAukEyT7IuQ8oqFPw2prgipPuzKNK+rUTFse17HJwLK5pm2yMiEu2AIcZjpWuy3DlW51BNml67yQOgIEpID1bRb8fDW6223K7Z9rD6nGNex3kc/14dsSIxJ4n28GO4XREirplR0g55TXaucZFaHfXP753vR7znxA9DsQvh+/PMgAdzU9RdmfjyhN+CKvLMbFl9RBCJL8XAlpSGBfQkV1aUzmbIUNUMeSwdy8nyCmV06Drv3X1cEeZc66pRbl2GzChK5KmT0x+4aSCFlNEfx5AUFAZxq+uswLlzN74RUp5aia+BtJcxGbKZiTPWzzL/Zl3CfJJMFmoLQQaslJ9GKQEH1wgBWI4bsXQJcsXyLLQGLtBOVJV5SI66Y9gLceR62YymFb8JNFRqohIWsUQ/hRROL4VjmA1txu5imGf6Bwu//z+pFVo7VOLb+AFnJ1qb9SkgNdcML1nIDvxZQLpXB0fpDeMxkY80BKG7ZUy4hlSVgXCkEeRZS3fBQq+a1pro+gjQIy1K1zFUoVhOFllHs0nhiQyt+liGVopNwWZ8kJ85DimLoU6taRGchZfYhlaUrvDCfOIMAZlWR3iikKtE5I+sIwD9B2xm1K8ohtSoibbWZxvZ27mNFaViGxf9ND7XPPpiiAp01gDwWU9RdxClEfCQAC3GNYYnikYzCBNxSrBJlYqgvgmVz/HkNla//BVmK8iUxEz+CMDiZpr4QUkzvDQbpkDzY+jPZjRwweqmmFmsAtHPTI1TZT3QXUtTdXq2xDo7jx5wKt3WWEpJ6LNpg1tcuIaVfhlbq0ScRf1nBhKo6mK940brNPuCKu544LMwiX6chhYnaZ95K/Sqkwg6EopBZIcn0MvvmnM8l6i6Wt7GMImJSPOhG2X4HewTjtes8RXRf/7xhfteiZjNPKw4q/mDZSwW/BtXhk8WlSiphhg9qVIyoD4Bg22ZZp9OiHpmJYjHEZ+F5G6CELz84pIqvp08yUcNOukQD7tP7eymorXZUl/RLlloyVSlyyZ1Go4tSjkg4mlLZOmuXVhzHwRYi4qe9XmziyPDOYkRZnBUfIzIMBmHNLqTISlF8bprgZ4TfGi8wp5BavF5ohRp4tv3idHgWUrToPSVsdTmk2iKkyl5UnqtPyyS+Hi5oHUMC6fxmKEROyB2ly0Trdbv83kttB8IpYkShKYaceWxOg3yO/mjZiwsGa6bPWWo5R5n02Bs97qLSaIhkznVFPBhspIRtoM5Z8OoS2/OfOJ7o8shXHdeUyKkAIJvoFm+XfXpU6It0pPrl8wKX0ghX9nKYLMWyfVRPpp3+i1zJm33QipySsK8DSTgqPZE6ACvGKw5wtLWbaFr0Ygekg2YpXbTh36svO9r4tInHIMkAov7piMPhF4HjD6foTqw8O5UreUm3Ub/hTVpQ/OQyXvCqMZ69jAtNZrC48HxPYCRCKIjKSzyluYQuEmMTdP/7kjf+MNryYYN4LIntE1rgh+J1FeUUe7nrDcYmsgOmh6w2rzGdyzWgRpcM4dG8WxR9h5DqFtAoh18EZ8oARjQRBuXMmrqu6+7PQyotyFlHua30gk+fqawOZ4aUqWU5xenEngkiLlWgyJvTA5hzjeRbJSxJSAWl5pOWscHVZW10UIK87EpFGksdHbd9vEOWSm9yUt+Y211uXkFUVx66u/5w3Ywian6a7pyzutwVja6O92P0ErXqE9ADMhAVkeXPIVWP4kVDnFfY8HqLDGXTMs4RoPS8/TVoQMVGG4b27jSkoG0xYdDHIBG78Arr3RE9RWNSSHUc/AEv9hlIj7I2ac/1gNCcyB78tJCSD9VgT5gbajBFEznPfCGkZAK2YaN6u8CMhMj+oF2u7HYMPDSr3bnxCVsd7gd1QbdW5iF2IistFFkKFFcK3+2YAyyNmCDxOaNAdC4LwWxPMsfNVxn3yiV+if8BsAoyXyWW3f3nHF74r4eURBZw4DHPui1D6kBsya59p6wmUcyjV59HLKjECduX+ua29EeUaSEVVzCZUKdSIsax53P2YJ8gITU/4/EJsoviXixYRcnWAx24Us94obAVHTx8Fh3mbCLRrcw/kqW+PPFbhZQMf6mDaBMbTGClv6P0+Tqk6qy9tYWVhSVLASkpanj0Dwct/FgxJH7YLj7Za9073KnjLLZKGlIhIxYwyGNIEfZWjvxZGokxM+CbjgTihJ3YBwRDKusXElRNRkcIydV2vid1rsM0BVZQ9xo7IVkbogH2LJoUSb78DNnEgdJxu5hF1aITGTbhcXlXrHargngssxuCGJ7jJAqFMQdPRoYJ9rzwgxItuigRfxGdPswlRC1/ASjDjmL4K76qfhZGZJCFAvJcY96l6n2PLFVnJrZMuij9FELi3MnA4HdkCV+GFEgWj7CniqdOQNKiMHpI6oHX2bM/DSkR7379TFKmhORUpllK16ucjaNTbM36PmwIkr6LQjG5Wn3II64jfyu2Qglv3NBmelYzCo7A+jt3oycxRYR4c27Ou4RU295WE7893LBUECUbna9pYhJVsIJsxjGR62cayPlt3SjfhIRDTBWuPOB1Kmpryhj5cJKl1MxQ8LNI0jFisLTtko9D5j5fMGkHUC0EUa1VOVw8r0mL4D8+198rpJZBFzUQQwqpO0ae5qshVdfTqmxZxFZt2qoIyaERjXtDy+rzkLL21+Yx8fwMyncKWTsiy7NiZig0190aocYUSkRkgBv4TJSK/YTLC/aBb8fIxUF2uWoneHFHemhIHRglQJv1OZpMiT/+hOTBmnIvtbb/yFEVdHKQNnn9PI0NXDSmrAMMWJKoC/reZzCfzwIbWgX0QDsAGMiJaDrieDNOVu9HESW2a07h8riOgECiGEY7rCZB2PgCGQUIYiiWYDO97/Lz/syQWsh7+PRkpOlDghrToiYZndfdOz+hy+ShUJ0JmkhIFYYwhGf21VlIBfEdbF+Svtpa2NcugS6yjJ/owaBxP1KzHCYNZtG1A9NfV1IHThXqtSYZE8pa/Ux1BeecaPI/r7MrSP67Uct8Nb8RUibh8o8aqe121hfyxyOVkkzBJ6VH+QAEohO1IslOFHkWlQ/+K2bnz3H46EC5r7Vmq2WJJMO8A9JVkjkP7Mah0zfeYHoXY3FQFxCl0cGEbKLHvWUFyifH2wIFpTXmvcrvu4RUcfLJohUAo2QpqPWaDF98V9pPDFWeffD7KzbRZdG1kGLdity+6Lqdh1SYDmGV3Y5/SCT7ElI+hZSooZuVWzQPXIPZhJB5seweb8+gPftZSJlU1RDHxdymhiUhfP733tvTkHIkDpr2RUgpA8pAram4lLYIouJtJgODAMKx+RAfYrOayNcUrMcqONgiS+k4lOMblGxDDAf87dKNOgonE6PP48KPU/AAjqKLZwd4CcU8osJuF3E4oTwn92KnUi/QG74MTVfXP7qXSlRB8JMIVREa64F361tZKs8nxELa+g0IxiqOzgvaeXkiDt1O0tT2uTYJyujoroUNTWoYipBKqqg7e1wcuQvdEcT4CHLnY6weT2juXBlTwVVWqOP0mFXWWBIVoEA3mmhWuZfb2yTUrczep0ONJJGZoVvresKztz0ufjciFvr7tGyfTASGWQAAIABJREFU19+0FW4galuXVP/hTmOFLhi/9nElOKwtSSvDSJhVlrP2+/EEoZPIdkhRQ5olpxRJBRdAB6B9pTZ6EtCE9n0eP+/PxPhhw0rnQhrELDT2/lGy494PqboD3ngPKlv6myTBUGvzIDXGSUhRhuXAaXJ10WMM/z/urmy5cVuJFqXiCw2iAqAuBYra/v8rL87pBriBisdOVexMtqmxY1EUmr2dZVjhCEtIcQx82QlG46OcrncCscmaS7VPF2+o5DYAnibPrNHVXVG7nSBQjF47KJwaACGYXBT0aM10jjJeGlK2ppyo/o4cYOMO+rW/qVvLYWi2Id8Pz/y2GGdposltfxfPkTEFOrwrR5twcIW4RgLyZXst6cVMD5oeD+7gEZN7OdiEvqarWcC0Mv63I3Kv6wRPUFrUIA7gy+u1v5wvhcSMssW7rNcra3RBXFbO6x8iNGyP/eJytRiWgiS0ZCvCv9mdzB0mKVczflltM6zYXhMg6Jf0pDm4ahrsndqNZM+rB0LqktWMdmqx/J47VFNBUxr8JY+8cEghXIKyUUaHoamPnW+xhFTb13tdlcZUJY7FwnwzpMh7KRa7fEL1myNqy3zXxJa+USBv6I/0xK+naHjClHCK9i+qCxpZz0LsijPHN1lK18tOdlHnvui1lNvL7VT6s2tB6GQXHYp49P+FkOozc66jZ1YmVusstRGSXs5Q3wmpdswhtSbQFW3xLPyrH/5UsW6dQ4q2tMcvKNvi+EF7svkM5jQlTfywtzizZ8rLOpFY1eHMQy5kDzN1IswgKl2vp8qpBuHTstt/jKNYZzdNXdNFRyQZyPc2pFqhYKmkRA1AMW9uQZCYJKSmAuqdQ+oUTdfbkdChp+hfIjmlcLo8X7ePa0zPiM7CW4cALcPfxKhZ/zikqIKamlSEJDfE5WgKwI+61vJOVDFDdmJE596u5+31/taQwhGMhgShrDpZYJ4cVpv2DVL6syHVj4sstfLWxEdBMdSxfD/I9YNvDkMKCgf9G9anrItp9+YX5odF4lLskvbmO90IyLzI21Jla+xR+DW1I8QxgKcb/PN+T/8aLkGQq5SS9O6JpQAOz5B3o5WQkn7uTUhlXlHqdsebOB+HDRp9aWWiP5YuUN0yS/XLLB4/uHodKYB5QSQhmJ731+0xXa/jBIglVoOoNztyUkFKvb0wMfIz4qVGqXSX4ZWqxtghJIuidFaZh2Yzx0Ze1AH1Q/G0ELft/np/bUihv4byhqdG3kz5EzsSIz7SXw4pmcBet1kqKAGJEx/vZMEjIWV6HmT/ppXqa7q+CxUIQxsc9kDDRjdQQ2rvZyXKQj5jloDlSQWZBnf1CFF7P6RD6bkSFtcAL2NhPCPM+PRqU+ArhZ8Y6cxs4qOQYq4CGki6Hl+foS+wvHCBUhLFCqrfL/ZCxp5TvXqdHrfb63a7PR5TCrErux1OQhl1KZTSr/Q9rzvIjVrAaLFeGU+kJupxjYhDWIm2dg29TOWmpcYLRZsWMnK4WdPG5uKXh9TZWrTlIuARXFlxOP/6Z0Kq7WM1SwXROU9NAjCzOaR6+W5/mKVux+YxRktZDakwrGh1qsIlIbWljdI+AgtQ0URVzu9jaI72UqqYopsc2mqKWhFnyZiZPShZXDRddiH1GmWGXh//rLKUEezxdj6xMj3QV0hVH8Unl7RKwRFKOoSvB39uaqFT0FxH/ANVhK4zdJ9LX0nxlr42fTCaACJRQH/2Ct6EFA8NM9R0Ijs8vdyelpvqzZaq2E3As6vcU2AJWRYunS5+5cQv51hjTxhyD02mguYPx/v72JvP2GW9IWLJGFVDquZ9QT1Twkd14pfu+8FWSudkqcNrzdsGFoscsIKDmkMtSKslpEaT3TKkWxDjTif+L6Kp33fXx3CAnuDb4OM2EFpLWjoH6+h36AkSb+BE+dpOS44SDAbM4d3NJHm+HciYSQYMswli4zaeTNxIPacxAh210KaejXJEZhDyZIKmMCmbmdk2pEdUpezF1KS5yWdQLdERuTkNYb0UGxBQo2jWUeO9041aaajS786i0JSq5IErdBlSopFqZxiS/ddC6ttZaqajEhTsdvBOrCIFWPqlTFzmPWhuZ2DPTJci85SbV0qL5zlPL67X3u0twcg9IlbVtO/BE6IfuEx1M2fJC0LTZHBCOnynSGgvC5sgLHoctd5+sBQ86uwE0JYFpi/F7xP4z7aH97RygeYeyOVfYFvZTFl784DI9P3pwSm1TGRDVtKT5azsl1C5X4ZnKqJKh79G57eZEgZ4cK+0JUN13RbZqUXXND4kNaUGS3ITqaOzCPqyeeM7x0zCp4CK2nvN16z+kLJsTt3ZSaTchBHQyAOCHthd157sV8/ZTwopW1YH0927ZkNfx38BmLFfxU7Mw1Cbh+grP/UQxMxhADAnllFvCxaw9xW9kDCIlefU9vWQWnjvtdz0NisJdjf7xNF7hxm4hWKhiePtqToR4nBGWYr0XJ2eTXZk3yOqcisTyvnydIxCokhHFXNvp/5YlRF6qnaL6sUnhsYjiE7CfV2C27M2LPfL7OFS1ff2aIqG6+JzTbXgKT31UOilYLojmPxQpohrn4jy2qFR3yzn4RCOysFuP355byKJ1EJqQo/BAjolO943LpC/NEsBIxDchreK2nl4xG+803krsQQYlchVBSG67wGxPIcUFPUrAJ5ALKtnF2Tevl4v/ofNCuG5yFICJeot5EfgXE0FlkFnkJI1rWhCjE+pFas5as1XylMscPCvwKs+UEsPT5d3xZmjpItVcS608ZMhZQVCKDh355YiYTJVvAibYnqX8Yhi7Yn3Fr5Fiq7Oxut1ZKHH1JSrfqcD9qBoJbfBbMzCBY7uVUcvaTI6e8IuzIfc9rGIFeRSNN/frv6skGKF4nfSj9Spw6P6e+9XlNFXGn4ZiS4fGYpp082INqGC7J/rkqVYVFVH6POK0Mwh1WzxE2qlc8e0eOpixKIbji3OFaPr9MVOVaHHe7XwC3v7Nhl86O6hw0EFsF8KP8FNSiMkhZoXOkvffjpLWZsFuvYhJYJ7DcTyMpmjalwwawfDdZoKWCz1bhJNF5/llViVD8pnFhWOmVa/vJ9yNZBM76tVEIfnss+O6fphB15IxITsPx/X/0HdvvtvhZR40m7lFRxaiuusKfJ1vBPsTlxYSTHm/I+QUuBTXp4AzkYwd8VeWZQeT/Xt+pylhC11sNmSRytqM4FIg5SB45OFmDw1xOVcGgmpugr0nq8UBEt7PUEGBw8qVT/Zi0+EvPX7dEihx6TjbZ4fzXLvmjTAjrAiblBhR8wbIk4jUvtiOjuOHw+ZQkjKycVslsfUzBpq1iv5PQ0XCAbE9iikjE4plMVb/j9CmlMwpkrhFNs/Vpf9mRg/DSkqfvqd8ScA96o8/qWQyu2mikttJYbKULvhU92azAShDIuv7HEwT8O8Pba2WvotrtMehJSKFnmi89q/KMsNkSwKJjQFEz2aXml7Y+F6vGepy+SSa0sS6UhQEUR6oekv/qL68yKkPgH4EjG/SyizNpWyDQLpxmWDHdGZeci335iIMqNWY3FMvRPCSQQrRPxPtBN9GX0U0OIOWlhGqMPwmvYfR7bEkUaKwoxYiPsi4uPhvyLw82jNTwipfwiQJNQL12y0YLMl2eMbIaWPSp0VuI0QXtHkwVLK5JUSVatEirs2dqY5mSFByRyMQ7KETD1LaUhxvRi7PlU/E2z6mmYo87jhPnVZ9MoUnlJYVz37uFKne6C46a1lP546mMgTwcW3BuoQ0LkiJ5S/vb89qJyi1jDjMDWiwBq8TeNkF4ZClecn9BExRe+5kQJ4gomDIPSSl4j3a7yaTzp9BoTFxHbdmxJ02Z/iwefPKO7Sbb4oyiy/jNBn4sme4ddt2v9ISLUF9x38jg5OKf45pPovhpThRDHsFIZUA9YNUBiOWS/QTqKnFPwO+51KRDwRxzP7n1pIFUS3nT6G4WBV3AikAaTTcboJPM/PtjUDrWMgz2r03mih9iZLZUS94PaigbYrrYbJL8r+jY72vnjffJg8Ryazz4ZUivKOimZzG1Xo7cQtoI2CAuWBeaUoJlO70JgI+XSOItScREYRWVQxUwrnmf82npbrFhhY9nXdvXx2rHAL/GKtAUYPrIFxpef4fbP1nxVSr2yVuvWqER0hVEFTa/48pCQcidnjQdpgaCikk8rpjyg4JHFHwYKouhwVxDInJnVUZXGJkt3WsBvCrwwnHNB5uYvIRCMHDED6mGMKW/B7OpH3Jz98dXcWjwcf9G+ASrnjpW4vWMVONM+EUCJH0w26llJ6iS0Win/PGKD/wVNWiPLTxFPuQj5Gv9A+q2K5DcRqMAaQgHI6Cs9hkx3rg3CnZiaJl4nf3nRP2WGijHPYWqSXFO/QWaJCJE9hln2y3zav/aEhxdZ0I5rHhgZFGSUL/jwz55Aiy7siiEKBUUQtdkA6VlBXMV/DKjhOiFQzwh5tRRVzUA+plfFiSMf64pvFrpbL5/Tk7Izt8bYhOKw8JWSbUKF8ic2UGDoFsQkVSJS42UMBYMjkiQUOD8wkQkVN+2k+Gvv8lFhfdy5hJTQ90EJCcJrl4+ohhXo55aczAmoxj1hu98tFBgquCbxx8ANxmG5nSBDUguEWD06HSmqSglrg2EIQkJtlRWWmrrn2e0Oqn14XVfze8p6h4QPJ2S7a1nztFXoxXQ5Ns4tZTyNY7r4sCfIo59hK+VoEsvaD63V7pCuolD1MbRlSm+Zn0VHrVjd33Upz8jiht2urXi3wyI2UIBMiR7Nh/S2EqGn4SUJIzM8GMaQXJO1ibpa5gl5cHz8fUpRbt50OFRRAjkwLPsYpFU8zPk7UTrc/AJwOTF8/XuoX71bqSKoB0ejiWJcc1JJwQ1P1hi0+wQf8pozhsB/3iy8hJd69vFkQdjb9V+kcP3LiJ+9bRfX3q8xBLGNQxXRfhM1yovgYhlDT/6BGMEpLSwFSS/HmiRP9sEtSjYSUkuQPxiUFjwgZx93EcBNS6r3XZK0sT2Oxq8WyioRyVVygzpZvavGkFyZbPYp1oIA1MnL0QWpbiV3RzcOz3xPf8xS3T7uuGP5uPIvHDnAOj8cNvx4f03i1Z1xpzMZFWT94+wPORIKPt+dTxC/d/7m70t7GcSQKO2B/oCmiJWEoyoqP//8rV+9V8dCVZHsyu54YGDQa005sScW63rGak6dKssvXRlgfz+czaK+9YmhxrgHMvvPHi0JPf2siIVWbFGV0YqA49QRsfkqWSiHV7fBW1U52gBvkH2++uDTnILrbVpYIHTCHMzwGkhGyldoTieuErnpNrlAfhRR/zFr/uW9rzpTq+VB6VlIW/nqjn7VYmeN5h0ufIGEXVvL1bEKASL3I30QKWWJ0TAokz+NOkKfp2YXH71x4PUTUy5svYq/xU0kFa8BGGscrIOS01XNEebssLWayKtLy2rwZn9w+daF7ytNDwTYy4FkADx0y4POJmP01PkISG1skKfSYWNZG54+qIHwQUdJWJ5M26fBCynY+f6z5Ow5mrxxS7S6mLnDHr2XZH5SVvMtYe7Wh2+Eb9VgmR+E++ULKOPXrPa8mg+4kxm77IeVNpXC700vVbr88LLWwSaAKQPsCpeSsjtC5UJkeqpO58uqtmjwO+4LMGxIu1QPDLm3/I6QyTWq18JjLtedTzK20m/rCQ0WeDYs3hRM5a+U0ckraNTU5vdmDCT7pK9p1fSX9kGYdGkxMTgGExPuEkI2oMoau35tftSexxvb7qEv5LGq5nTnH4AGQ9Cx0gr89PX/FkBpvlOZqt5i6QAmG+Gf0jhxSMOvdU9TB2X+b6NeRKYU+Hij46WP/+Es+zX5I+brwC5vuLWWnNs8UWQGlEiiIUSiLeytqDaJGnmhPeS6xUE4TZHg3J7hxviFvomALo7r0YgghiITsd79cpmkadUrmvhpS9ItXs8UzlqPyTodPamWvl0x59qmx9krjp15dEhfAeG0rhS1/Q24CUCl6mTI+QyhvKNc0yPgFXvZuN6QY2pM4bhcRTHFDAfcApK5o077lp4SUF7dALLV3BIrJv3xiZ2T/61q3yUIkj4HCPTsrohCUzYsaSLbsY0JydJu1Kl2esc3ECHL/GczoiVFpBPtZSul02uNQb1lWVVBNgM0WjWMicsIb0Epdfwor9yV9EolHp+TxXDJO8zuiMn7iXzmE5gd0ItUPTD+c+5ETlEZ0C7/YSpEiQwo7l1lViWdMrUK0CqlCkieQkYqw2UNYoA8hTfc1ObGcdHzJ6p1K+TqFqdUDO4YU+ke//3jws1GCYUiNhQxAWhGDz3OmHxRSkkciat0dlKqQ2WmoMrfsRQ8/38rtBcx3Wg564LFFcbPPq0RcX1n4sWjwlTKCyC4nTnG/EQgG6Ca6I7U31S6gokukzFlb4iBbWRHGlnXShZPL2SYEIacxESOaLGyNIKc+ekIr5POgVZRBxw9WoAt6XJEvy35n5L5I2kX3x8KIyyu+B4/YwI/kD7oLWGghELmb1eG7LscVUukcTnPjNMYKdcvtCbrJ9tRvkABI3CHoJHz1+fh741sDSHbSiOrSpYO28xht842euC+E8WO7wKXk7mb1pF13PLvqJn4lpIwQsa2IX3d1SHUKJ6NX+VRcFlly8f5thf2l4MJ0KTY+L7x2m2EKOkYYaJaZVrunppKMPztZlWDlNY625mrzG9G4V1TSl0mqBzqCA4he9L83vU8+6o033vyvXymkPGQozilHUaZQZNvzyG4Op/f7BSmUqrA1+gIhpa7Jfb8AIlEuaa5pYTevzdwypBzlId9DkfnlnAb28nONfDbN937d18lShiHVnnb2RvooD/OjJvuDT87XdfagQRgEV7nbS7wznO5yM3HCxXMdUqahHzLblrbf9kKByumfhpTjLiwQtNAdWdGc0vQPH25uowCkle9ZsoDaB2Db25+K0nFmHg7yX+CK5Xis4Mz/46VHgnFimoXBBEdOSQVLzLPmE3POTsimEJ+wpiKGOKLJ6C5wqqq+9PWR28PCwWpb90/3clqL0ykWUvSt+u4z5kWkMfleBd3sPXRJsH5Mdo+fSMCvRrjw17mLILJIk3fJAZeochZLMVVa3Lkoi3YLWz+pUsnoG3Ng7KCm7jmkhmRj0Z/avbWb0m0JIAft8HmdJuPzJj/LIHjFcywszthkE1MFyOo7yOnm9V5qtdaATzsfVQMWQslzPtDs5wHFiGv09gzRCTmRckjN3+nMb99227oPI1DoL8Z1yZIFZuOZw970JPG246wc7tdz439oSMmTQ87tdhdU/IrAbHM5WPyHuPb0j5hKHJLFfBCm4USfOKmU3saIzGVeHPUPIqQo2w2BNEOYnh9YueZylFPmSiS43Yuo4ughddD8aSK+pC1TaJ3e0E+x71KOSk2VelXAo+KOZ9KbF40p49+AAWFYdEGk0HWTe3tn82RtyqaLLyE21AzGXYOtjpKWZ7OS38shhbs/ZK96bWBPXA03338AvUxI0WsSj8x6wlZTxTAodaU+Oxr6LiOKsCDWcRJCXSod6BnRdyDMzUnK5pDCNIt1e5olbABMJ+mFPwgp/U44cZ8h/b4Dy7WsWYnd4/C4XH/7uFjs5JGZu4h1S7vAZfda+jwvqBeje7l4SigKsJYHIYWgdZL1k4DXaZdT78eWIQXi4H3oZIW4s3sfHqoTrY5wizvjLdnifSKIsHvr5pSOKGy8+5Ehpe1rFK+2jbJCdmTCzsV+NF+qqr6SxOYaXh04xEIq1eOETD5o7mBNnoZjg5no7WWWsAorKh5/opnd0HnNU16z4Mr2QIOVgfoDxYhxGx1vQctgyURMeXuqZn4yDabTHzS2/EuGFNx2GgoTzQfS0KXRD0Rysck9WxWecypSUK+XgHEEmKgP7QF9Laju8t4mDIUCe1C9A2D0I6afV6D8nWteL6S+YeKnITWBfNH1mzWQpvsui7PWu5D9ws/4uqUaRdu841NbKD6E/qCvtUBO2DwO8G8kDvYH8QRNoekLISX0wXgJCfvSnvbSlAJklJB459FpS0g1+dxoKJ4xBFVNqQyZWqEpEWL7glVf6ga5GkrWvJjetTRUo+q5nCI4grLvZ3k/PKvvQ3aB2qJrHmMszM9aLdaoT592z0KfwYMAhbG5MvHff71eJEsJlTkSNd2uHd+zWhy9vu84jD3LswOD4rS6MwIchZ/obRDvUM0KYgNMgaKHmt9UH98nM/d92LO0UucsEvLBgyRg3ZvaRCXY+YaW22WBdChVLwByOi9TWDvaqTudwYOOPPiIgKYUozXGf4+DyndHFBKBja4p3BoVmYY5wi9boXH3r+icvJpRWAoJn5d6KJGkZh2+bm4bTjjnqm9OjbyZbJypYjwfpc8pmqb5Jy7WS4XUXHALZmjnIFeVEirZnOc00vyORz51VRNCCWBs+ULGutDiTCr5uXGZs151aRNo1igc7NSus5QyO96x6P00pOTAJN9eKFCnflfvlelJLHfHnC0zFiELreAinz3xcUOSbCEO7nkvvmSmecGYkkwr2H5chla2Sxy1LiXT94jASCX+/lC5tNXygCfcbYrWr3sofaSIfqJQXJCFFNZ/GBC65k/tbv4dIaUPDWx6wz5+QgY1oaXeWgGSHQ6YpHpyDe3V558Z2uIlJNg6tT8qPyqNESnV1NUuFytmfSDm+bMbokLQkRmvF3P4PplQ90sKJKYOHQwDG9esRsDV1TGxsSZeL+9gAQOjTduYaRy9tdqwvGJI0dfOemWYhlZ9WeZUMY4urQiOQYHAiGHAsNZ4Itak7cgG9W6xjNTmwIncARkFgapIQp8ZUuH+80Mq2krBObv8dRk8HODoAX6L6P5+ElLEIsXL9Z1ymLojFTUvDv+44p18RnlmNBjc3NvKOGZtmw4bT+PNZ/IyWqajLwPVvy1M+HYjrQFQzsAVgYt5WFmwE03pvR0EG6C7L04XE3X5RVL+CM7xCiHVvM1NZUiAMFasc6q4nqsB7oQjYSdJGX8GUrLPy4a8j+paAYdd3xr4caxDytk4yvg8gzXIGxse98nbLHH8A0OqnBSwgn2ExfKhUnIG4IZmFvPhNv72H41qUkh5O3Jdr8wnkZ4T9IuIekWrmPFyZYEIfK81dJZWVPMf4XZNhH1/JP1YlS04Jk5S8aT6b9Ga0fRRM2bUhtkvDVzEElvsNbwISUZIswK6YxUaYbw35hWTlK4TrhScGvpOQwrSsDDoyvJFyWJ7O78F9CVjudrT4soBwUzjQrfM0ABACWbmpIhilnxgcIf71Z0F2+e/fz76ChO/mu/vrqh82/VQQHnNolBHaGim9+4M0TWkAO2arhfot1YuhCKXcqJzE4XubO5b8lRgfBY3p7aWQBOqH81jkvDEkZpq6YXK8awcqTWIoqNS6/t4js3bgpZaHpEmOfiB4kcnszkFW9UUb1z5Za+45pW90oVkteI2DhR4tDkTJ4Mrv1E0b95gjJplOPuyHgQGA6UGDhvvlilufluceJqBRIJ9JMrE+RZgyEgrHmPMP1Eov0aWMj4bnUUhQ1TyzYlJLb61Mva7jdMxCzU3WdbDooHnYui77KkoFoFpH2VywZdnTlGUmzWSN8JeVKmgw/oRGWAxsWOayiG1gr0m4CcWj+wQLcW6crteJuhzvUfGrFedOmFSOW1BnHPV73y9oGow8QE/rNiaAx38OzY0yzE7AmV5DQKqWOhEd2Jh6IMQgcCBEwcVv3Ibnu/+e5oMKZsXsunhPaLAdM0WDPrjQorWoe7XM5No5Ewir0bBbNQHojjoONrq4d2ruoB8RkQ9eOV1VN3m1aio+SzBDimkLqjEQvn3axawMCSO+6iVg+bI1dSpMHkXUrcij3+/wvQGP9UehZSVms8qRCf9cqsH0quGFMArTqgpLc3u+xxS0adF1II5oP456W+AU6NCWYWUnLADVlKQJPFKtslPoqeJeC9iidSZQEgBB+loblUceX8oIKn0VeNNQcqVglD2EEoLnOF2udLuIe02fa7GASEA0nL+n1Hooyrp3yU7AbS0mBse9B443MSPaam3R1W5tlVjQuPS6P/zi5zubZ/RRAlHG0T7h9/mMO0ewUT+JS/R9ifLoF7NQcgS1bn3y7OxSX5Q6IbQEI3J1kDfr7psRGmGB5U4/8PetTbHiSvRYqb4goXqAnVBPIz5/7/yck63hGDGiXNjx8xYqk0qm6ztrGcO3eo+j4hczA+z7mLCd70OVjFd03GFFe2fP//bejZIwUdlEt9VSmm2lyDztgGZ8ojmYaRYUCu4UlmUSc4HNmpUFdmKKizI3unfdwTiWtFHnB1LSiXGd4HKWo6/wxTGjutnfJOgDD6pddNJ5jk04dPQX4wpHxs5v972Ou/prkFvlZDHy/KeW69CCuQGNO8IX6jFxNnTyZtayS9Lv6/LwtGEuZSb1l6DJCbdCrO/XvqvLuOngxSQoEY23sf0dktVIxByhcUwxpJMm3tJNZ8/Y89kmciHshG6QYumb3Tvpp7Y8Y1aeG9YdBMoykDqzb7+94tOEoLb2LMPDkDqnI+/zdXBBOBJIUWjefDIxTi40TluhcySexFp3rcD2sG1pXNz26nZWFByNuIcQUP5eFar82OYXoswa21oJKbW6+K/HFEn4fgdvqMrpkRIXQU2frwzZyxtVklseC5BrzJHlvUepW7MZa/VuT4wWGRzPvUrogR99/oUCjsCpJp97h5q59znfwApTryser4yVFc/MQd9eDJgVcv0rPNO7f7qBS2g69j0Sj59iJAq70OK4TUSXyNPozoKNKi8wwDDSUy0ObH+4w0De2rvaF9RlJbRWPcBIPXZVUpyH6tw9YnPNj3FvQQEPZDtNIKJV3bB1cUNk2iLlFwnajeIitrXeeitK4p3CU3sUWqdeavrXrXlpWnD8nFI5VdYsqBmdiLWFh9V3OgEUHJLNuU5x3Wf083PQV7hJWKS4nq3SnFiRbTYK3uWTN0/No8qAAAgAElEQVRugkKMn6FrZ5cX9qCPyu0FufetxAqRV6aG8ECU+fLv8BkbP0vmeOedEm8gJa6Ga/enz/gRymq6XWGUDMvG9Ra1vOlAQGxD1AsSYre1XYRZVnlvC8KvDzYS71LNZplCSMm9TLOugkz+t42fcf9Z+7pieEE4B2GlhsRvUN6NI0rUV63yTzKewPI885BqPKRm9/4jyerCLXBfmuANELg03Txaczuzg34Yblh4KNeVXFlh2o4usfx6qv4ZqxSE0ljQZk1sddwGTJFsQFKxNE4jBNZqWkLbD+ZBtGz56m4zG8ecD4C64K5Vvgcp8gzrpgnDqSZGc0Zua8Gn60f3hMa6qzAexokZHeJH/DrN/SBPzbJ896/zFEVq/WfqsmaDVCuZYf29R5KPV2PnYRmuXN9ACg08h3fXncMRZ+j5+vTCrK+m9VIjput1pQa+RfkTIXVhTm5XNX7+HfY3vm2o/e+uzyE87GFSxTMwjbxlmGDFVAmvgMCoehoHW9hdUuztV5fww8azdXfcKLKfp6HI/wRSiMsV8wWLPFq4iK8/jQOUrFQ+mjKSHD7lxM/a/3bRWkQg1bFKmTuQEgKwFZ13LZqMOtvcNkS8uPT0dYtZW+LWTkagFKcs61ROUr3x/mzc9QdCCp/p4miazVuHn7vV4TZDcYbP3staGpPifTpNEwJfdSTRMuM883LstZwhWcKa+xKCre9b6JkixiEhCECDZFBgZPf+J0oKGygOTHl2Dj+PYzAPj4vUE078CpZ+zddQzZMQkozo3o6Q0kxGIa8fTUCxXgKDZhnVWWuXFLLWKEjKlHuuSlOpUZbj9fwBqtRnT/xovGa4y+kkrkXe0nVslqQDdh8fUwezb7pmA2ciflU1NipZL39LU+wRdUN8JhupzsT5fzM/blu1EF9fSmuCJqH84FPa78zCDexWy2Dtl6wezzDxk/yQEMrB/k/5ruW9vRQKuynhoukV7upf48VzrRjqxG1GKe8cbiPFesmzcBpmEPTChcx/YuNnhHYtHPJKvQwjd9WDO04WOQZxjcrvp/q3wiOc5to9Ms6L9cXKXXBQ8m3G/quPb95A/GghPq6Hto0iavoopKIiJKA2xpibaItIzfGElylESATHak0fwZ724m7f4txvYA4+LFyK+/FQGwwT2PW5g/UcVby4SMMUoYvXkXg+vgx+c/UDIbU+pMor9nXDODIlj3LByI4+pnBruhcfSa3nGymbr2aBakWkB19xkwu99NC439yklyW48CPrZXBy5GUrTR5kgh/7f94k4EHPVO7SYjYy1XMiCtx5WKqoG6k8G0knmgZ7k3BUSgSQCR14AJSmI4rxcr5bOtDawgeeSsBqtfkkIp6jLMy/Gf+ccjwB6t76vCnsCJVz99aqCDdKYpd/JZ+n8iQuTc0MG2JGXS6SpGKLkQMCk6uL6/s1wTpJTJLEiFw+iFj0qV6xD+wfQWr0ZhKxxLDMnxtQNA0zYojdxr5rmMDOw43llay8iahKSa9VeHSyiWsDf2WMIEUVIxxQGzhaCw8pk/cBBFJFmf9SMPrsE7+1HSguFlStfnqVi0ylQwItV/V2p9LfrpkHQ3uKivegV46pwUwwFGor191uF5c7NUoGjt6LSv+DoAc0AVHGfJzDfGj88qgu7W91z4ko/r85L3mS0LmGOVp0ErkT5uvsFZluElO4iUGFaNwKQzOs8cJ3DYrDCY9YhNEFeRzeD/BjCz7YPxFSqCnG6WVzHPpp8Xnr23Kiij3ByUPVfgItoIapoN27XA2J/Iojb2j6y5sQ7fALY/2jz5j95E5dhc0v3S9u2kn7LmZ2E6v8+VZTEpLAxDnPJIe0FPyYpoVm/aZPvEpgjhJlIkIYJ1FAVBEZPMcxOx0JtuR9NRqbU6G9xMv+jx5ZJ5z4YTW6frprMFkZ+nl6bfHN4ovSaGstFSoEROl4jlkqM9dUotDLVQGiXueHWIdjhyJfny7cuQ1viNxraoOARCzAyg+/qThDfyexvNzpo54RUnBLA7FIprSaaFOp6zRGsdZsVd/afnjxW0nyH/x6kqmpb5SWYXkev+fIYOKXIDc005sBx1aUmjr7QJD69Cp1fMNzmTNz4yRj8jDXjibcMuBmDDPuQL39O9PDr/neP29j9/uRE7Mz0MfVmq1FtQWehcu4XqgEUkz/HUh+8eoydvwMM6YKQNPsyq0bz0VQWPLyJWlTteqpGrHssZtE+GdDKioehaxIaQv0Gp9l8SNuDOeQ7mfjRi2dc0wn6BYAaSntP3d2NuTeTSOYzKBsDT0d1drKx/jKCFcNn2lTfWgUASmn0tXN1Fc2K80vQnJ+NKT81d71h8N0v2HAnHvF0rhJENM5W5EqKbKlJaa3zw6klLVSMeR6fpFWpJXNSfDoaCtJJhChW+H211LYtqy3bvSKdRZs/irJogWixgSpe5d7JcXqzG17/vlDTYdOq03+pBKJB75LwdJJg3DqJsQXqsAXNrvSxfMHjcTaqvJcCUCOJYuygyiy3s98HHZYM2O8IMnR1RW95b4BUY/R+PkxwV1unk9gJh/lacncj40pwsqOwmbd/FjIFxOljlIyRaNGO4GN/89WEZr4eUBuQ7lVKf0VKqB4L3Hl7yFFEW9hHxBSnz7xu+nFSc0yV5aj42rBc3uYyJrLnjidk1UpK5plOGl3exGa+B6Ir42O2OnL3Cj1uaIZby26HJjx5vL67rZ5PpvDk9S9bBg8QPfP3w8PUaV8SocNpluleG5FC53gaedSlTofpBiDZ+24KE9Ptx5KxMQ2EYIdmO3USo2JkMf0rOUFIVTMyjz6/blxUTFPXXtLYXI7l7+d+z4tpMymgx6tPfpxiHJpO6lInQ5SBWuUEXWBernphSmT/AXP4auCYDRWdEg2iSnY+8uKPXKnHWcGCUiz6LGI0IZlWB+/pkxV6v96CkajpTTxO+PIDz8VzpAVUWWbTpseHMSXOJavxSWTMACyXVuodwkoG3y5Q94GdFiXvp9bn1rsxW21N0PKy294Xz4SpModpTvmb+//PGHqZHjypodwShpYU9TooBYtk6xxNfWorkXLU9VMgpCoeatucjqLIrbgg1T0SCQLOg4SPnEVy2jwl+/dhBOk3kPUjWZw9wcJUedEFMKxrmtVsTDg6LqqCXK2VnWFXsDD8C9V5sgWWLWjdgvLgVIHv+hfXrtqi/VTg/mmqySA1lr7kFXqyyd+d7Bz96R375khJTmvsF8bAKpW/Kx1SdUI1TVwlOh/BGUOgnx19Rj59MkvrhYyhbrZXBbxCXgtE18K+6iQ+pd3qUgRcQ9Px1YwnbNASoK42ABeTe5Gso5kwNdkIcubmjfp96h0Gxw7vFycZ71k02jIQ08rhazeSpRoe6BQHGz+XR5ujwWp2LDhXnVKkDonpoS16grmYtmSbL55eqW8gD84Ufdagk7FBA4pA2VBW26bb2k/2BuDXssg8M0ezvvCEVEjIljzBKlP6g3Tm/hkx8oW8YJYHGcueQHLJOf6cZ4W0KDf/AERGmGpvdyfgKcVVzRp3NW8tYF0L3PbZZtFcxZs/nCPGm3xbbHFjwWpOwO/naFHulOdE1Gh+WO+SnC1yR3t1+CS8wKjD+py4HNq4RPhP8SafP8SQ+7Tv2gWRV1XkdU6i92KKIN48m+SST9ZlUpE9EeAmCLECCkGxqGOBiHuZlcfHpo0LvB4Wm9RkzfP2kLKmTvWtnE4x6NWqX828Uvn+Y6hQNrufmePhc335koGBrwT1hKFnHifFLulT1QymfjeJ8azVal0nmhSuPfh5ZivEAYGjdKzg6ljAzVHbxOk0knn15DSDVNBd3k3UvXbeRfabTLRdPSZ+G6SZ4JUOicdaewYZmoripgumbo3moqoSR6t5E1NQ/HtO5QEqXTOOcKwMaoEZIXuonYGdF74W9Gvr8DyK0EqnXTuYmqzDxVBxwBhVCWmjWLlHCBViR10Ycy36+XSxC+ds0JqtKOyZSRAYFzaTrJYmi1wyqeAwfd8uJTO2FSl0klnf8yhUK3vrSIfxgne+GL+LKnkTS1REhIq/jbbc7wHE6TSOfmYooABEi5RCqBGM3GgrBfrF+Q2v2pKqc3LBKl00jn0fNuwj8pDTCVan9lWe78WeGZ26q7UvTL9TQRSCVLppHOEFOF0JQ/Q2n5eqAMRu8w6tleCuL6DfVLfG7++SpBKJ53bKuUZ0n3/P/autTlxXQmWk/IXY1wlqY5sYzD5/7/yaF56WSbsbjZLQNq7ey4B8sJNz/T0zCwrbDPHGE/x4EuRz3EYZsMmpEmGOD4BpKriV8/XB344WRhyKFr4ofSIQGJENbz+w+VRtEtRpj0+QLNcZal6HhFS2Bd/AlFixL75ZM8UT5nApQLWI2p6lG+/Qqqehzs9NnDw3BcoOaFUzvXd0NEBazpG2qOIaVeFVD2vykJRQ1MJC2CUgCVTFudoaqEm2fVhcKgYCH6NAvGcnEuP8+NVSNXzxefe3mrEkgymGNq+Y8P5MM0LL5nyu7KNH/mCNyAUJGFiebiB3RVS9fwdSG1w5V17kbecvbEy836CLYjTvH5cRmt9YyGvsfYDJhox+cFssWl6ez5IVcWvnl+54vzMnQxU8P9BM4e9zDCQzJB7T/uOKClHwRIC9CDZde7avrJUPa+QK+3N1qZqkyRRvbAVOmOnGbaKWpQktF+SiEOPkgMUxR6k4YjrkSqk6nkJRBWGVyWQOtJusHYa3gaYlbRCAgWjnRvjp89G48Q8onBO7ejSqHmAeZndsUKqntdIqcpJVhv16VJJt53QI3GxdgQjHy2J8nUoo+L9bjQIyVHUFQYhwa6xbqqQqudV5IkSb8nESr4B7LSsNM4Z9yHSND7ejwPaBDbEN2FuC8SDuFm+B7Ed9kdVSNXzAohqaQ15cYQpzF+GcbPzjGoE1J9G3o7IJnOror2jYQBSw7uj7Hg5TA+7QLYqfvV8taJH1lWeaNkOE1uM+gFqTyCTzwgmQNMF4ISqeHSitEnhWkTla71QqHKIOs/Du8gSQ5Un6nkNgaLvaEtvhz0aIO71XT/QxOb1DGgaxb/nR7P4hdhSi1JGUdDHAiCOk72sp26ausSGUSFVz/Oe3i9Ppm0bIHS3hCVeLADUNFppKqT6E+/rjeCDoZ6SPAo5Ckyy149lmIa3rg2Lpiqk6nlifiJUufju2PYskoMhYj4wmABNmgYakT9C61gjT9182Lwh0oSBsWLgkp0G4ad/spKtQqqeb2Uo/gfVvHk+zcv7AXOmK0Z5mhQGTJ5cEEcr26Tc5EUIWZBIWw2ZpXBx1Pgxz10Pu3DanneyPdyqlgqpev4YR9ltjvGWNY/ysG3QBA0PYeMbNrQxTZjJrOlxRhm/2xqzqKWd2gnytL6936BbFb96fho1cY2JlDyK8QhLVG4iykEYAba01cEPK+5y7z/iXb1EWF4FdEnUeHafHZzqPtp7yG1ilaW+8Oy9aX7LK5/bv3+pbnOU/U30OvaJNI0Z0RGVcf9zwBOOvJQ6YqWQL1kGhlfwDFFOtLxm7/BmefD5QS6lYS0bbBs9LNMgP5XHVFX8KtK+kz3ofPo43h3eypwv3jzjg7qBfEMIs77r3rp+gDVrsyclYqUrLgDQozRipItqGsLTPYcrvODz47Fi43iBLTc/Yg1zhdRXSV30ehe2c283decf213nHY3YLxJSqrPJrfx7KqI8gxrWYMUwxLzqoAZz9AZ3V9czd4GB6HQSTkJS4gDPkRKKDuR6NUhJRgXvA9xIP5IgTkQ+rvA2NLEPP+ZY73qeTwuo8oXUrULqBZB13MXIJyHb5uE5DOOHl7527vzBmqucDIf5k2GtJzoc2CTeC8Ym2KBLlHRgHBElAZQkSouUb03Sd0APIcmUaAofpKJnq9gi6zjKZV/2CkkUIqqvLPU6cd2vhHY727vvhdwx+0TZp959fppj9YGVekCQYyJRv4mMGEWejwhI4McjCe8qHYFMJji9UltCg2cpwZXKbkdhnmlMYxJ5QhHIcFOovX4cTss00cLe40tA6tUVv821LpfqcB+2fhVSG2hmn7Itho/JNydP9TwERDSdAEITrndPUcQ4kjoSX/3kGteWecqErltlmgQ9ZgdPwl447AiGtDS81YYsFNAJ70I+3Iz91k+4AvvYV5Z6RUztsNK9NLeTKsULlxJWyr+23OrT0wYKGmaioQkhhIkRYIhA5FAEZIRhHbCR5eO9DcEeToYiamd36II/DmKKOSkWKCJUpbiiuhPvtKFFUSISoihxmGG/zTvEr0eE1LFCqp7P5O4iJLaslzQcRc1ICXQ6zzwUvXH4BudEYRxIdB5AjCBJjFj8tuhz8HxkLRuINBuI/L8ILbQXaa38KKMmh81tlkr6C2VTKHolLuflBPZYhyZUz+HvsULqRTSJz3go0hdk6MJ+9pXdwWrBhnLaABw5MysJC+VAK4NH0EMM5ODhESQowpY/aVOyyVWey+HNxo3nHxlG7eVSxB5L8e0gSpCLAiK+y+oA1bd5We/hr7MKqT+o+/CvsAvG6z5JahLeQcWtP3rlzcsE/r+w9G+JWCZFC/PN6XSahW6W98Ph8J/HDQKHkYPcc8X+Cf47jhq8DFawIzgRj51gyES4CY8x+QwIalgnBHlEab6dACdBU4wn+kDD2kbIoYz7di8f64zqo4v4jj/r0qqQ+jN6AizI4KwWTQUxk9DvxJdbZYYJw0oUtqkEHcbNYY24JmIbQQ1FaSnp4F9rqRlJWTL4YJNEGJAilgYvszVKwGQSK3ihNbBQmWXwMQoZKxvweOEvvcPQ5BZtFA5qVo6gXMQ39xMmT7viZlX8npClCBKtYIR7GXyY16blHZbWYswQ2xwOh4xpCDdXPoFnSHhTqFdb0AJQthZoxEgItroQVvFFrZPGc1+azeAkd0VGuzD0K9zEFg18kIo4zBThZMoyIG/edf8D9I/26gjqtHTD1MFAsa4fimPMKks9M7B42ELPwV7//u4H1OWsc0iyGw8cdU2JxgVpNhHbfJoDFzHZ5CI1ja1xhA2tee2mxsu84WsY0RfFcNI9kRCXpj8pLyXzH7K5ejh3RQAdnlDiolL4R2iDFbwEK5dBfawLCPrg5ht+Ru5UIfV1UOJZ3hTY4ZvowumOp5/1nIrTpE+H+MxCdgOM06ho5HcUXQERwcwg7NMzQkeePMitAJ8iirOoUkS2Hu+3C4GYjuypeDyg+F4l7ge64pVJMZUNquSy7NYTsYcmFR5Dt2kiknsTuX6AZu5o//2NxBfwQLV9hdRLBX5g44mcBmuokXJ9J47YrNcGWGMTozbNLGGLHDgG2EHAjUQEGCNoIBAoFSBh8JbiSHCbBaG5W5fs3oXUKFL0KKYrZ1AyHSK0OGXlpsw4kYt8nqSoFWq8AJ7miWWfwcXMXfDvPmRj1CtDaijYTreFopt1JJ87gRoRhXPIRIGGbKStYa4j5Ut5o0dBzCZTtUAYUEYUA+MbxzNrdojyVDQfnAMtDPQQVc3OtW+aTTiHeFRK5/RThljx82K8RxGg7NcQN1KIExlDQnbKZGTnqPpyXsEk0XZYhcKC7vEoFe72+Ouerwqpv6zLLaBPD21eWfV+7KOI2dg31ImUx1gkBZy1uZmmkgiOWD0IVdIwLiuKuhTHObvXaHSv2RhLt9fxb5ySZ3UPf7/5tUAwgXmW3DuoopZc6ZSCH13LZlBEE8gR59X9TgdZ0fvjdeDnV/xytci/44le15JWx63X/REdmjw5qx98YJd2BnEwp2l2t9ioKf/wb9JxLr7fLqT2e4mocNN88/n9L2ij+NJAAtjQCFlsiDekmlCmh5Mk7BXoaQJ66sOrUyH1kCxVghDfbFMXuNe32es6DF1HTUpZt+pFwjrIkK40Y9hQJMd1HXG2ERD2ZK4ibnYfcfupfwlR5s9gzOtreLQEuCE0aCjKu26bEdnpA6O9IX3BKqQeEVKEjBxScdFwIQSxs2ciUzY4FxZfepVxJIIkaLGjd3DrR9CREbuUkt+0DRRT+cID/gGcMq4yoa7VJKMimmRgxDb5EiGFZH1OD68U6oHZ6ONMYvkgrwuoEU9iAHhKSKVQgqJRAixpAu/b0C7UetGBWEnGkYxa+yUsupE2OfdGnMzt9pd+oc/uPlzt3P/5E7/+RPOTKZrjDNHLK1kmqNQNAcMrhix+AprOB/DwTjCRFkJuymd/Rh33peWJeJ+RZL7xNBIpKXXvHOK5XCmGkrXSbDpqstkY2mseBUXU08Chjtr4cO5EU7nftckLOd9DTf579cVcqzLMbEy1Oaaku1dRiY3AZK/ITQ5NgCUHJpn314oFpULqoSFVaNrLXS24P4Ko6RBNnNPsWsANlhz9c8GHPAiNkBUHNMHVVkLOndHfzp0q9Jib782ljE+qYp2SfjG3sijf9N5okiAQTUBNKxXCl4F9ez0XJnpqgId1BBVSD6r4HaN1YRLztVGzreh4WFaidIleeSXJgSL+sToKf5T2DjYTr5rQOkqiEkq5U564AcXmH/BUE+9w95vcA29ZtbHReoeg4hqcliiPsLSSqWSCQI9ChD5ePkXVispSjx740WwSkvGi7j54MZGZUHwg6SGUk8LalcxHEOqW5ZRhFzsBEDdxVb7zTnnjL0roCGtg5ehNRBsTk5a10SAXTS54B6XLx8e6HhaU9KZhRt1nSKPv8qSMCqnHhJR33UVx3iAlJhzSDcxkRy1TQ4yUZBsV61j+XRjb6pRp1L77ZnPph1u7A4J8f8PmTvNv8IShLTXpElubRpwdRipw1IuhfOOIt1wBKSErAZTmE/y2szb+OA6nf54PVM/snvChRN9B1gQq00HWhNGY7ibuYtDB6rAtsvBWFqIp9ud97rTeAONmynSjv/y7cEVcQ+UBLWP5FO34pBSSxq44OpLSAjHS2SHJAWlxb1mnCZ3k1EvZgrm4/1mOogqp3ZQK3iIx/XUv84k3G+FlQGVIGpPFFFS0jSbZuiQ2TaGP/A407SZFNxpev5el6PsTV6IEgMBa1svg3LrlcbSu6zKD/QEZaRi4s7LDebTufayXOCHCVBQ7PCXOnhNSJM++vXWk6B08NY1s8DZiJJIUW8e+H5UPUzBpTwVdYzcLtyWsfVbSVbcTtO+K/tBARLZ3tswzIV0DkDCywxll0zwRG8FI2j6CCPaPTdm8Qi5qlGvwFVIP7PFDblpwvdFK6rj746IX5ZuMACEjObETZSJNzrVgKdisTZMuON8T71IU3Kexl1phC66Mv1OMCm1OGnnK93XFOBpQuJtoUGWLo9KPMlG9Zf1hO9g2mZdWmDD4P3tXttwqsgQDO3jBDREN9zabtv//yqGWXmgaScgD9silE+OxdWzryCZVXVlZmaVA6pdXqc8iR4b8crInPT/+Z82mJrFMFi4R6fQWQ217qPS1eKfirBAWd79mjVs/okxhQ1kja4f8NyLp/74goRAS9i9YwF/O2fDpb9TMIsK7dM79cRNDRIHUwZDa6I0MLviX2/nMsybnEqxtB44DJ4eRetWuRCdvq2sXccVJL4unvua+CmnHY5/2XZIJkQQlCUdJXWe9n1ReBXE5uTOpZIWXC+it8BOtwF9FE/cIUhUDTyB1LKRi61V6MeQFDIW/Elz/LJAkH8fTCTsn9kdtlkt4q43Q3RW85JbT6kkuhaK7xN5dEjA18XJR0bHIjtUddThjqmlLqSb7CWJl2IA8PN1hTRqCFumNhEJ/GVLxd4qP2x2P2isKL4fsMGCYqmEgIoJYiFgi3ezUgKxjQ88GU04L8UgUG9PtKbYwVOymmHC2lKhJQFXbNXxnP9lojgsAKEGfhI0nkN/up68qQdM791Jhd1sWbEGq2J6oKDGwZSQ4oW/DdMnU9UG8c3MHI0nCLwW86PvEpEX4hWFFWhWAa5asAplJLSOuAmZom8KKcJCEwyiJ9itht6WwujsBxnszfgELi5CqeCY/HfxwNwAFEQQnSiwH4rfeeRn23ihpDoIltlbK0b15VvCFkSh8KWOl9gjmSTWJfzOmw62E9UZlCapS7ijtdxQySJVa6aGChU98DHgtVdhTKUgvhyHuNdjGwJfn7IAatSwv0dXvq1K69qTvuo+qJtHpxXcww+m+W10bbpdQ4tDhaLaqCqQcYIfZ2eDmuQDrz0DKD9+n92kI0jNRjq2ThqVbkkNQI7H/wW9h/J3kJtZhcS8g5iGewpT2NDNposI0YlkiiQMydWwTgH4bVP4FTW8NqfkGYfgBWrxB83Q5nTXqi1hYRA5YtZV5Zsec/VLz3DnC0hhbF8c+gGOYmpEtWQt86rReQcsVX5+YJ9UX9vysbLIMQEoV6PBV2u3aXHD1/pAKPrK2yD1we8CUZ2SnbQU005VUH7ZctFpxLI5mrdMCOg/Vf2tnQ3ukawK5B/v5+ZV0v/U3VKXN36HpkZ8JuSaqCu4QbuI9IcXxMQGJToc9EMEO03HvbFgUkTXrkRJZpg9BVbLiJCi+OZhiTuPxPBd9lzLHNtCCLSQOuF32GtzU7UI6Kx4W1p+xlPU/ZeIvjN93IFUxo6u4OnW4hQNcOSj2NHkgP7QT2VUXNycivvnn8cM529YaYqExrJC1v9Q2IZguOGJiL9AyNfSb68DLXCD1V6pUyYuEKH6BXzni6Wpsah+JXxd816yGHHHym1WcNTb8Hu/wpOpIN7zMSMoH42WLNLOFMRMwEIVrmWaQSapRlkASYL0xpPhXjv5uFe5owOypJlsIYy3AyDI4tey9p8z0iSqzgpg7fMQTWg1tFfKOLm8x8eJ0mUoT2eIRcQdkA5Pj+QqibHGKXG8EFG/cSzEZ8QH03uV0w+Me9wwZG+pxsuxsvemB69CeqGqe/bz4a551+ss4xp0W1+moN9WmYehn7ZHyGtU44LSMBughnSq3t69SCpcIQboHdAQba091Cq8n20XV2lNgPgVwxovtSk08Yb/8cA0+e+z0Zx+wIecvJPVgctsPld1erkgejpAqSVU8esV8PUAAACAASURBVMjk89aqsumCeSmQ+juQwmW3EfGEggiQV8PVVSflomwQEQjPG5/6d1CVuuMXe6cMPbO6q21QO5ogQ9wF6iAgIpoocrT0skbvqZF5ckThyNRFGZPbuzF+AKje9k9ky4O9uPa5ZTFcfNi5bpxQ54D18mdMzZPC9ZDsZ5ojEMTO5gCN1+lRegyKxqmWl47Ii4g7m/mTzNMqI8ZPIPWfr1Lud6/cfxh6x7FdVYX8Hm0R6sfrtBHjp5tvB1B8V0g7w1tSuK4DyHj7SXekRUcMbex2k4dTj/Gb7mf+KgrkuPcukKI90BmzS4JN1MnkHWyRdgMs5prW0E5Cs/nqJvHCsWhK70/N9EgJw4fA7ouw1GCkoQsqxAJFPDnFXYi0VSCV7pMWIxEFtthV/qlUj/oI0+KaxlW/QIgfH3iR7IZm7EOgVNKhD21mc0IzS6zUbPfFQevE7F1Gai0FTgKp5HljhiU0Lyir4gMMFbt+PJ3bliPWDe5sbMLG0TZd6yu72TP8eRbkZND5zwQ+5PV08L1yMrR7JZIdQYHUyjGerhEFUQBAWU0vwT0c+K5A8NUtOwa/4mhyuD1/mg1fU0vo4EioydbMSapqktDXpCfH8vTZDx1YAeROTmJbULkJ48dDxjzKfuJ4aWT42hYWnzQtawCssk3oON5MMqWhSARvBJ8UzaQCw1sy/iKPFk6G7jpK3+YfnCpojCvXrlSpGaQiXQws6hYdFigkJHCgqU3tZre62QSRo6tUcvS0pleKgnz98hOrjKA8UdL6iN7iyouKlBKOTiCVetDgNXa6WnCJpxu/cD+XFGxBmmdmhXGbru7DufO4P9IP7g+5C/ZotxkzoNubjnsg2aNdQS/IywVRAqlUG6VKV5sUCs5Bw4cSPmfrs/DW2nKQOz7e9j4DMUd5+Hc1WkPgXRi6CB+Z9oxR667nnI0bBFICqRQzoVysO3TcHXVQuqbl3NCKhB2AnofI8YFM94wl4g2TeOOdHPdo/ISLhFSfRpjk5p2d4nlpw2xCLjeBlMMUscDFdHUUH1igrm171c4jdblMuI1wODzoLBEK4NQSdxwq2BC2McaQByyIIy7jUJHV5ziPjLFtqEBKGL/FTfG0V6mqH/oTOxzxItBsi3Cryf4PhEUvnflmBrMJz1mXP4/PzO65G8JT3/Fei3Ujn08cpEZJlUo+ZlFU1ednXnXDeLq27KAQrA7GJNgmXP1AINNdX5eYW/GvF4aU9XDYRfEeeoIBS553TlXOxmDhBob0UgKp+NZhukPXESXR1Jkf6TpZdh0i6mmIHD6Tah74ucz8/iLowf2AKPCRAPVe95HTAAqJvipXfpc9MDIUekIgtWyliunMV/XjBVWxHPOETfrsamWn/K3d1A8Fci4HusnCGh0SMUTD4IGvh8lCqSyEJmxVFj9ufLcSzyS3Pwopb8mHgOIWisxhU0rzQEjqxXKbuLcjxX1LlmIVgb5VxBHU+TSiOVjurPaUH+q6fafZYrvcBFK4uIFdN8Ru9MOIe1AmndqUcg973uxumzPeLuvyDaW5RU+NLDwzWnMnszQ0Yhn7NZi47XY56wnjF8MJiHMY7FbcQl0BT828Fi3Kk2uvYivk5+etPzXgXa5ssF5x6hthqovikLa9nr6GoRL5q0Bqa5XCrGSgsapqHGgKZTQnujsWInhN18ZEOHs6Wn2jM94BqApeKQw91Ro9w1pzvoxD91HINSiQ2gqpqujyouuKD4isRJLPWD3sElNehpTpjUze6oToeBGSXtoK4lMCEw3U1rfmdgFGQuZMAqkXIEWOfJi1cUFOwugASYgmP4cKbBiCF/pnT3NpF//DcJWtOQji9nvWwkQXVRLX29fQk8ioUAIqgdRmSBWqK5DkMy05WRLJ17jFcBvkTFAKZ7w62JK/i5BFlPtBaErazIToCp4hhQNMLVTfjx/A75Uf03H4Q65CgdTGXgpcY3sWHqHqiKKpjT3qxaQf+i00Aff3LNsQoWr/KpV6AG0ZFVtnQc2HAntYWWmBNAf5Xo5O7xOgqk6uQoHUNsavLKFG3UAZi+4KjolwbHI2Z9PJ6nw+l/oeTXCUKZLNpyYFH+c/8X4HxhICoMi4HH9gKMkXgkIgtbVKTa/E1XjGiMs2vBmbrsv8snOFNIbTk5DGqJ+U923It93RFIn9j7KgTNF7NQIKUmqcHaUsFAqkXoMUXD/95QQ3fHs73W638/l8hRjDFjI4ah7bcHiAwT+0MU6Boc+g4oXUpn9LNzGXG2n28sRkRk3m7YYBVRVV7sUQYk4pkHqNnqjQ3Rz8mAeI5pvewP/G8fNrgtgNsIVVy3pBWuKvdi/zr1ebHcvUGtfH1Za2ocAtFpMQEFDgc9RxZBahSiAlkHqlSpVFXmBgLGzWqektmcvmkLoLIBsvEAx/tse9mo+CVLdomfyFarPnse9uSFRAtdQ1nWKR5asUiswVC8u9VZRchgKpjb2UUh3GlfOJh/cPVZWr4uOjmPpzsFHtxi8AFkgrrM1q4xqsV1nxHWVJa2HwoWaipo6wvd7G/4FjDYiyPIYC0zW5CaQ2MH78omyjLv2ygl2yA4wVJcr/IErqdAZctSZrsUYZnb3SFe0pnE23a0GVsoiirI0JUMMEpqLAIuWPegIpgdTLc6mST3q5DeG1R0JFrlr4WQouOqhXw0jlChnB7zRTu4pnF5J398eFxeGg4Hq+UHwuBUDZvE+59ARS3xIkVXmn3Ee5c/qJUy4pQL4ou2Hqr6ZqRUS7JtfwbdE2e9Ln0XnPg1bPBr7YR51PQzf1kpisxgff3L1XyeaGQOo1eiJC2P1/EjRawIx1PeThXIkJREEP+oXTvuJSrf6D/AQF27PqyP3z6gZZiaEKnrnARyD1Q8Gi6J6JBkqUMgVNfuazENFQ8h6k9hxLJQbJfvcLW6iMaBWQmw/dp+xDCaR+GlJ0HpqaDlVgVjqHi1KXYknAJrKqyLzMdlOw9L+wy+tCbCx9DthvTXu+wD6UaPgEUr8iq5cwBSbP44iRvbS4aAwc/YJJatak9w/3k08svI+01VVZSIGRe2aut34sYBYnF5lA6nckyiNVYYkLWK+H3RCDTYrHkQ6UdG4zKSxLu3RT0SJJXKWmempaOPNVojcSSP0aSOG3g44KRsJdpz5xg/GECgtNLq2Wp5779zdLk8p9pEjeoU/ruU+uZrFEQSSfzJ0EUr8CUjmlwMA1+QknwM5Gjl5bZvtQX6G1H14RxFYiaXYRzVJWlE8GZSH9VKImQFH2sISACqR+HlL2O9lZTlUqlFoABzgMbAdDSkBSrYdLtoesdsQhho1j+2AUBSVK4YEP9BJyjQmkfgGkyvD9cB6M8grYuDcsWHfxU6l8zz1xFTwQQcpMZz9a2x3HLhznCqgEUj/M+AWBo65mhVt7eYfOZWizBJw6GT03TZtFdv/7dVMzoSzKezVifELUVKKK3CenioZPIPXzVSrM8K2WxapUxTh1VV/grwn7iWyOx2u0s6j2/c5/c0ES8oxomGHOUxelbHFiTMlVJpD6+YOfT6cNEpaUvburIH8JbdWn67m1W1UEJLdWv+dq7wyiqI5FsVR7m7ooigoYvZZPbgKpX8L4LUqXO/1RZ4WgMtjJQDP1D3tXotU2EgQjHNmbYTR6Ot5oJOHj/79yp7pHlw8sg0Nkuztvl10CBIiK6rMqHxZYz+iU35enJpMpqKgNrXPW5euzVgGVQGqZkIpHkOJNdk222QCVjfj8t5clmlDTX+GpSSqZU2+EFpBaQxprF3otEgKpfwqpI4MyHBzFnXZt3LnSQx/QVjlvq0bHHk9nzdL+AqxIQXZbu1gl8cqxdaqMowRSy9rxG9v+DZVVqPhpCowuAKwLiKk49+o0vlhUpTuwuj+egjxulwXmPuvzSZ9T+OycglZL0k14peMnkFpo4jcgbfICojCeqeD4GxZq82Hd7tTG/T6FFFSPoqCIC885OoxqTCwaYhKPCKnTIL11uqtH+4+sZugmcLrtd7fORFR0LJWTwU1VoIyq36R2kngWSBmjTf1+sFVW5OwmHVYaCl4Mv/MGLatQI7H09AS68ojC7W4v0iJPlUDq0VkKzQDXwrqK7aTxnId9JV4Rv2s1xXNdWkGqPH5xyNHgNCoWLEk8C0vRdi3bV1lSd+Wz36i4oL/yXUxRawILu6Q2XX0AUabTapEQSC214zc76Koqid9cQ30KO1h6do46955NcT2FOiqq7EezctokAimJp2Ep+Bg4GJgqLqng3MkbDdFYTfluyd9g1VMVld3Vb87/2YnRAimJJ4GUpqMPHFdpTaNfUnzJ7OCRe9f2xOg8qkCrzxg+lYxlCCXxNB2/3lcG+6rI/vYZuhI5G5hOrWq+Hzkfc/iPbLe7RsXj5Xl5ogRSzwGpXmgd/zRoU2R5UFHK7y1DwZ7wOI+qtrVbHX/h0kQXSF2HVLpwSA3XfsRWWFHf05CKxTQvmlV/laWwguQ/drVt3bB5FPe75/JUCaQevOOX9EfpfKSkYrQpcPaRszrtXft9UIyx0JJmRCVulHxKSDxD4peMZB5MxxPGV1QWJBUV1f130WnAu/UATrRZuQ5S8jRJPBGkxs22ZJUY5TD45RWlu9924IrXI6r2hOi0GX3lkvNJPEUtNQEXFzWaTqkgT5GNjxLvg6sir5D11W9m5b9u5Ua2htL1k3iKUe+UrwhPMEgLrb+wRtFvkH9lASka24Vm6PW9N2/+D4JopxZISTwrpOLhycaDbd6a9oDrRDbS4b28rLjZ75eFbfEij6IqImmxtjZD215C4rk6fufTP7CVqhu003GeyBvp4TDjVpbihQnMeH3m6D9etWsVbnjl+ZF47lpqxFIIp5xpm3ZbkS9V0d3RZ19Zkw3vhRlv4RHVuFiGuhKvlvjB28m4tq0PVZXlgaGK6OZyCkkfnRqSEFMe0TWHGpVQEhLPzlK8o5SoxCTKtCRNgZZCMALIbt9AstneYr3Jks7EYb0aFjbkEZJ4AZYKkDIkUGaMQ+cvq4qv33JYZimgKqsOtTPaCaQkXo6lcJdIPXU6o6rCdfuXKil0CnlhNqu20Gj29Ock75N4kY5fqKU6mtIm1ivnCyr7zcEUjkUKu28bFU7zRb5F4oU6fmbwoyGH0rj+qGzBRro3L/RRv5ARVe1qMzUSEUhJvETHDyPYrs4hTnGtL6hyCMPmX1JEorDVR+tE81zi9Vhq8qkYF2t0/9z7NqzR3q7blzOkqkNt4kQgJfFiLDV8cab3qEJV5bCeRJe+X1lIAqK2rVFajjkkXo2lBvLgB1+RGwFeUx+4oPqCggvmvfsdrnjjRCAl8VodvzgeCax0dKUUun/NR3Vbz488QOBeGuVV9VErA3ExSfUkXoulzNRDA8KZxjln3rRRHlM2uznzI11ou63J0366iSRsJfH8tdQYUuGGnpO/WMdtvdvby9OpkVH8ceK337cGqxhBqlkgJfFatdQ5nGnYEzr1vidrjzziE6opkjDXHR0bMvigYWHtLqZzfGnxSfwwSy36icPKX7vb+4KqKvJARcWRq/UAKVZppg66rQ7YQDKtQErip1lqwU8ce1MbdvjIB730sShFkUXHJAWBMbttXSIsJSEsdQIqrbWp2y35kGbUqbgs8RcQ5dHn075G8+a5IEpCIDVO+/BSuXZbQU0ioyv4C54efRMDZoeHula8NyGQkhBIDXkfI8toj6k8z7hBfkGKrMv6yJZtX7em+/IEUhJSS00gpWPttPG5X5RHefDdnaCqKEaIwm9b+9E4JZLnEsJSJ3kf4Qq3vokDpjykomLaQw+QyrJheJVV24bVNgVREj8DqdLRcdIDtCdCwGKtrfcVlMjyE4PEDlJk+pEXua3ea62BKYGUxPWf23eAVAqW0o8DKU1HiRrzKXgQFMc9vw5S1Osrqqz6wElHz1KyLSFxkaGwYHOvWuqhIMW4cLt9Rl5RRzQVIMXt88zafVurJFHBaVEWkCT+euJXlg2t1T0KpHgLAtZQO+uhlGdHxVRPUtBqtpDtgxFwd3gvkJL4tP11D5ZK149VS/VyL0m9s56EstNpL6d9UESC641TLtGsLys6YxI/wFKAlH4kSMWGIaUNRF7OHXtk4ZQ3sntfSWGNqdtvF0hJfEZUWt+nlmKJ8EeBVPdZ6tio+sNmn0IKV1JEa8oMniASEpcK9djNgNTva7VUWjbOjB/Wxee8nVSsxu18dnI/FfK+PIpgKaASzIaNQEri+rNlmuuIug6p1P8qS6e6py7RWuvlZ39QI/PcQxZUFu7zUWeVM2xOQK4ZvUyZRkmcS3UodBLQZIxzZZneAVIMq7LkK784oGn5qIKNYRxjhdZmOXfOw/UUQ8piyrsTVpL4FFGJoWedEFV+ApEJpNIZkPJRhuzvUTYMjEM1FeN0Pi/Gq+dRd8xrq22jBFISn0KqS/lcQwx1F5ZK8foylFT0Ux2Z3+IfRdJ5MSvV7EgyEytIUd6NpRhZmElJ0ifxGaToZohyvhS52jxIpdchldLItwSo1KOkSuRAAJ/s+gOYogqqr6Zo0Gu3/VGHhMQES+OWBOV8aRnI5U61FH6vpHCEKLP8DmCCNh6y4GS1ZpfsLJvMqApenJCQOMNOE0g5PPnXEDKC1J+r2xNr+niB9gCqQYx1ybvbWrEchXmrt1Vx4pDoSUo4SuIspMYlORVRvurpcDAHUptZ7Yl11+5A9tdBKlkwpLTj7iRuEt8JU0d+856keLdPQuIypJqSH/6+Avo+S50d/SptFn8G2/VqNDZoK9hbF3QjFYWN2T0kxrQ8QxKnz43piqhmHjFNIbXb3AipsmOqx/gOQUgM236MKeYqiCLB+kYgJXH5udGhcZ6u09sgdStLcXO+oT5FGP8u+1sDlXNTHyrPUVkGYdkI/wXHQ9FDkjgtGIauBBVRX2GpWyFFdVqZOg+qR/gZ72AdsHLtHjt9pDaL9T4YXbuHOoxXWhj1hyBFZEGTKFRRP5D4rbvRrzOPMKXS+CzjN5r4eoYKW+gWVx0QKHuYv+o3JZD6qZQvpsb53NHutyGV8luCE0vnlv9MKqdIjKI5VFifxXAKlof71uiHgpQA6gdBFbaP5mLiu5BKSyIq/Gt89rHc749yegVMbX0VlVlaooUvr9ZyFi9x5kdXX0TRauvXIHXe/vDTaiqMfrGhvniaioOZL/RdsEJBkNo5nWij5BGSOMr66ISjDGPYL7EUjXpT6jiED8PLEmnfMr8SDW9T0CatXp4hO98V+s9kBd/RqqC9pGrbQrrFGLmVkoj5DjAgqmnWYbQ7L6iDkaZ9BpdufnlMbZqU/y89Oj2kbsTVdkWJZVqfAfr62UwHPUvYrugh5bCYlEUW27PkJ2XEqUNi8qAqdCUCPc147llGotsswrs15ebPf79+AVRN2oS9o3TCdTNWMFIuqdAmOQ//fw8pOp6Ptanfra+l0KPweZ9ASmLa/VEooujxn5PudW/DlIYzjXTdbDYEKB+/N5uUAulfgBEt385Za6J3aQz0G07vqBaQ+CWdVLqpa7LHLvKcVFxEslli2pZAV2KcyH3GIyGIn/AaXzdtNr9/DfFnE8CZ9vdR69kXIiXwh9Hv4E29qDSZIKU96NsaDolF0Z91CKRePd/r8UQ3UbO0Jfp0jnVZ0BX0idra53y/pvHHU43PC5tQRaXMUjPKNLp2pCkV9ymWCClDI9+3ut7ZKioKu6sXCH6JfwUpYqjRxvn1lkRgqJCl4X1CETWJ/3z2FyZcXFKlMzse3e3HMpdpe0gl/hvXNgdrC+R9tE4riJIgJVXn2WQd+nNzHvw+38NhBnhomvMN4UuqdRPa5mloD87apgjZ3yJHvx2kjIa2n2v3+9wemg5S8kS9PKL4Dj4t58+gho5gGQZOFwDFJdWm2fRoXXcHwrOipMyyvz3X8TIkXzpIMSeZFsOpD4duikDqZXlp1JVQwx387MkubbkSPPyLJj0poo5BBQokNmvKuXeMfeuP+hSGjKjNQrT+JpDymKoPFR0fip+U4CrcwZc3zIyGsW5JHOJzvjNF1GlJlTbcQV83zfq2KfKaSyptFlNVJd2VZlA6rN8PHy7Y3oj5zUv2JPqMTzGg0qExPq/btyZ6AkNdLKKOS6puNLW+gaXSbu7rQUW3VGYZB4pHkPI0Vdfs60aDXoHUy0FKB3OXXkxsmDTNzcfol3/zzZWcb5z9/c/eleg2kuvAIPNannTazcFCiNVyDv//Vz7xkPpw25Z8xQe52J0EmWABu8ski2SVAck5RZACITXAuptJU4N+idH16lxN9F/bai/1tGmqZyUKar5UjWGaWswT5zurv7eFDIYLeilIy1E8pboNTdopbNr2TxOyZ82QUkw9I6Z4tEtcwZAVz6Ym+Dfyar4RoY4b7ia/mRokUJlS3WRXWjtU5aVb6LVyfs+IpwpLlKjInC4N8yHFSaMUUHFKVXwnDDC4+sUh1a31Ki3Ku9Q84FMa/QmD2vuQoqLUKwxEyk3OJJb+an4TtTWlIsIBK067JwfuFPyzLKTUDFRxb6sUVEA9TwO1rGRY2tAJhz28FpsuBmn5iFfKaWhb1ERttVTGE6b6dAX9YWLGlrrvJFMthx8SVdKA1iyhca2PUX7URsR5BqRiYkIceKq//DE136j6swKqvqg7fEufdv9Q8Y9O1au0oaih8QuQkoPzpnWZ6+ZbdAQPauE0QKXFP0MrUJOtQoDDpDpzfwKkRostjd/rodok1WIK5Pni8x6f5yObqGlLBTaprKeEyF/YjHVaMVBs9URJ4zd5KRYTszbnxnBKYSM1gHjqz3ZPi7+LRX/ty9dU8k8G2mlkjPIUfZ+omNK4PqRShtpfYM38SJKHN6fXfOMp1bbRPOSVouzPE9eT9EpJ48q8hBBiPImCA0TAHKR4TfacgJLqD8zw1oOHYwezFNg4+pWjX01TGleHlJgGRDGxfft8cz+gv348cb5vR4n22Vk4MHuHA/pleNpQl2ZRmT+Ni5V4W7QE6V1OmqNDkLLUP9HCOZyD59t19sH/Jxs1KjIxJemM7LN76k9D43KIauWju63qmlmJLESlZ5rIA+v5Ib8MoCKhHs1wyvPUvYioazxSNJNJ1KEbjv6nFuWNjA+J6izE+b6zD8JG0fbuwEaHbqnuwepN486hFJMWN1F2vlna/QTLIBaQlvj7ctF4w6vfsgF02vWlk33r9JRW44KERKL42roR4ny4gAQmS03Z0g7SpZqorepvUe5nMBgRa/WncWmKr0pnu1kP5dzPApq8uQagkt5z9k7HQHyGPKkMaKLSuAakXLIyhKQSNjIJ2AspoiXeXq4VNKXKv9MfUi1096WJSuOykOonUfsqvLgRNDeLGpoGXCOIULeYHeNlfGktiKBCmmIkpNxq9tI4AU1oJtE0DQNqkJwytvhANv/Ay2HitWq+afUHZPTG7h1l/B+Lk0XtoiSrppDSOAVSONYNqAo1n4Hs83dZCMczpjhFhSvWfKPqD1MrQDRiLAPVqKXq05Q+GRqnRj+JynsibaLNvfWcod7+vvxKsIEijqYtGAAwRdq0I1A1uvencRY4hTzlRV05F1GWl4/ihd+Vm6jtS/pxciryOJUDRTWh1jix3JNAL8M42i0pmkg9loTL/al38OdoqcCY0j6qJ9WN7ck/PfvQOA5RSdhErAylDylyhCdOAEmBX2mitqs/A6V6f7KeZGlDnU/pl4opjVOSFE6i2I26V4zIsF+LFLRBauAGABV5CjC5OmgTW4Kh15tCSuMISEVAkd7l2E0344GMEsnIXf92zTe+pAfbt0jWQMmOEoHqFW+p9IxK4zhSYqpxXkI8y1zK3w6gYkuVlMnSiX8OpngmgL5Uda0+GhrFwZPdmo4MbTGiWKeStpNupOabEOoBHZ7ofZ8/Yotf6eKfRhFZHkk+zlBbG+e5WcojKbGwvzaJ2k+oL2j8bE12/oXhIiOw24eGRkmSohQl63zHEM9YKXm4qZpv4vZBC4dQwgD2uUq3aTWOQFTLtjbWHgEpQ+40N1fzjQ0UCxMwJHFcO7LP1tDIQBTZ2pgjUxTG4gabqElLBXINmWPN2LvK9a+Hd5qpNLK7Kdo4p52B4yB1CTGxS+womSmkDmjS9Ev4ekulkZuf8F/nDAza8kLTTpLn+9/L7Qe6ffA5JdvyzC7/2Z0MBl/S11FBXUXUNUaxFAZLJlHHFHs87TFwtPPa7/AUnsXZvcndDBnuVVjnajZ7040KjXF2Wibm3Fl7xCBKuna/OMV57VeqP1qvJ99tTsn5qGITVde2rKGuT5HGKEtJknLemqIdnfgNNV+4H3sXNd/4kt7yzjyYXkzdZo+r0uKfhsY2zyemASZjLZZKPDv4lnuSOwNUP6WK24tlGZrvExVUGttwCs8ECshC5iM1vIvlew96uO6midraUbKJ05Mry4zqj7VB+ejXkTqHhkaizglQdgfrtduNs/cQJCvDvy/3GdhSpXMwu1/dc97rDQl1xZTGEFK8cc4qQochFT/JQYzb7e1uH+W3VJAn77lNchKqnKtU5UWjR5SzPZZy7qGsHdjHBEgt7hpQ0lL5aEtA58ilO1g8peoXjzWeEkqsTyeKzAVPEYvi4RyULdvut+abXtKHfOuLvT7E6g13lJqWLxQ1XT1jZqqa8KFa17nE+WQkIydRWPv9pvbRuVsqj5tGhUkqVsCUqBpl/566gUo3UUcsSoQHiIzkHwVQaZ3CLgovxHphXYv22RRa+D0tpoSVOMKEiQ7o/f03UdstlTm8ob5jax3kPlEz1XPCqaIU1VtWFB7jkTTzQzRR05aKTBpzMvWM4J9l+2ztpZ6RmSDntcjxFUOKhjiPVPNNF//yb3wH1R9paFo9+3hGQLHbrtALxW4WJNfycDXfqPrLayjnvsUpnUq+POkkCmT2D6bQy4LFxN5eHjdonYJndKJSVnqE6ZIvVdPo3ceDRnhryXsNWYnOmhIxMbB8o2dJnw8x9dCAkkt6YEV3f/gKGgAAIABJREFUIC+dkVNi1ugXzz5a0VJSSN17jD8V5bvwWcneE4k4h9JppnnoJmprR8l6OU9MltgFLxmffTRaAD4gpFLZsUw1nzwj2fLFlvVZaZXPPHATNbOjRLK5KKEJMXKn4cRTkNyzPpCPBq8eYK04r1mbtW+eHiILseVCUL29PEsgT8E2WT7uSOSbQJJQr2/pWFph9WCI6n1t2L7aHLYLsCNIyYOEH7wPOIk6QKjbXhmpzEORFoq9kn+PiKhkbJOaqIPydfHQMP5N0eZ/lppvnKh8rxglmSrTlyqKk+k2xeNBipYl2L66P4Q/BKzJB3Kofp6o5ptUfxAJ0twkFfkfmVIppB6tlZJ1PmsiqIoMQtmtFuAZASVTKsIG95TsS5K9XUFiMVvrFNpb3XeImFhyKyvz1bTkKmqeq4naaqmMNFRM7GSs1ULPqlqaUtEVlVpo3zuWqhrfw5qFJXKVJfqPWEQTjTr98zVRW1MqIA31PCWBrU2l2FJpAXjnUVckfZQtJjaFFJrB468+O6D6xT8ypiozhhSjY7LPFkg1uk1x15BqnQdpiPKX+OIGDixIkfnviwYbKLKLXUEnKsMIFifDbQpNVPfdRNW0KxE/LAswJX0UGK8palD9GZpTWVvgSyVqZjZWf0Qa6bN5t5hy7LxmssZRE0SRQp0Calz9AZ1e5tTQduRJKtCybEulq+l3m6RcHO0OEWWzWmqiMxRQsy0VZCOqNwgCSFMqfTJ/FRQn/bKNcsSpS86BVG+frk3U/I4SL5YsiEuf07yGPSQqe9LHN3Y+XemB1QXms/iSh//WztUNHrU3TeOYvZtFWZvGutGDoyJWouRoLoKNhcGJ51NA7SLUcdPcw5j5swPfhTnGB6I0L6loVuJLNXj/4keoelVdDlKuRpc99gCoXrvOuT/4dTMzy6XfikeGVQCgL9RpgV6gD/svZSX2V38EqqS5O8lUM70WpIOaZExQ7yL/FFIXgFTFkKI/Q4Kq3b9l2/nv73UA1bJu57MUulvy2IOXJYoc4Lk08SQgi9sBizdFzv4dJctDX1gIpGC/31sc9ZHgi2VCvR2951r4XbyJClmHDq3b0NCGjPX9tVqtNmu3PHgpSjyfLRV4xN7JeGqhF1rzZYCKjl1SRSfnVFlL/qyk5EblxuRsVCFwieKPVZaXiKx6WX2vKH7Wew5wXnEShTVfsTgfPwoeP3Kf4w7+PFMqGLRO/V3ZPgYoUa/s9dZosXc9QBGksDaoqUBwP6vN52dIVBv/7nb+Gh4ZOtH+hyLjAKJ4UWlVm6iSKRUvmo8PofdDKnZgtO/lBtSfguryOQohtQyNUdd13n8HLDnfBUx9unq5q+Dr1/lKRrsDfT6rTVRh9Te1C4c03d19mhhrcjr74Ct6hdQ12il6nRvXfW9+vj4/V+t2WbvuI5R+7a7+i2xt7C5B1JzQmq98SiXTKdmmLXrR0ezONQN+QlF1oWj4xgk/t+ruk5uojy5g6hW/23RUgjdNO3KzbHG0mwr1PDyJjBg9DGRrozXfMYS6Jw1NJkshv+QGklGyvq1p8KFU3wXDkflTVf1zy1Dxrb42od77WHfLkIbWX6uPb4ea5q4ZWC6TaUBalchFlCye8QNhtOY7fkeJQCWTqmIrHVLRrNTt96JZKvRQ1BjVn9+b1Wfn1xvkJWrco0CIrcNPm+oPlQlNdOFIZ7vZXrOxpmfDCQXUKVMqOaC3+eoU6ZgKB+sqT3HxNoolWEJK2nz9hMKgRV7inWzLffjq22GpUIfSsGmq5Lw2Yp72+baMIQWA7YA2USe2VDjzpQ81mE9Ts++CvGc2GiiqJsUFsxTW1GuPfdTGIUmByanDk0K3Xq1+XqOA/QhQMLu3uSdj8bjfo1GUNlEnV39eEhTsVO2do9Sjvs5oSqVx/t0J4h7arqNBVL1s/vgN0eft+jV89fMvFAp1tcQU1URFZlvyXo5+vtCa7zygssbu2USfeR8gHrPJ0a9WfxejJ0J0rqprTE4/XXih3XqN9PkSEdRt3l1TtyJgICnK9u+YHW1G74MUpiizAD3hOBuhbmAXlHalqfhDOqJ2mqfOOdxlyXIEyfr9c/P19fnullWHyQmbqRaLwI1Hkq9xIVvhaQCW3rh9ZGWfD7L8+kZa+Eqcn3lHCeTml3YsbT75GjX/+uudltanlVQ/pXtqGSoBPD88ivrs2m79s/roulcc+f6sfr67xi2bRvjWVrxBs0TlRn8pvvG6fXSZKZXl6ZTNt5hMMm8ei/5JU61xBKBCGUfcQ/jThcT0Ret8ISshQ/Gx6VpX/cMJVfjqn1vGNpYQVW61K2vnns52FQXnX/zD15a97fLFydLRr42upI3Ofk9gI0J2wteurquAqG8s9bqOtiY+HRLp/627d+qhNu/rysmHmNhX582f7DBV/Z+9K9FtHEeigAQpWJpHesGJi6Su///KrYOUlfRsIhnoTmwxmOnO9IGBj+e63iEWWDFWM7E/tlD3/Wqis1MUcLN7dqs9BV1IKqTu+1KgW2PaDmhoGrE4WW15gz4n3lCMERSokBL+Bil+iZ7Omqj9Tfq7wCjsSWIdov7sSBV9vlB57/0h2l/OpOdapSub9s4yRQIOrDptAmJHTNAqkrrzakLFsqEAgAuYVyJV2KOWzH0xduHXuH+pl6g/PlJ9FeH1GUeslysV7Z8qpu7b9hmsQWEa5wWo30PgGOhamN6wPimg9XlLz67GamYITyzhOPDpVwQH+WX2sa8935/mKOHHlvQRxwQBvmiEeaRa7V0qRg5jquV1+XVh4vkUOqNegbhHY7JUpsYERe1hLISYdQQ7a9TtNpJFpZV99He6v01rcMhVRzyib45/FVPHN36dTsSTmJINtNeLjQKjDKJsDtgVpinglKULrSJmO+D+wDopd3yy1q09398CVTanuFm9HEikJ79n2+T3R9kA1q+9RQoCaTaiBZvCfP0VEs+l+Itj0EbbkCynPRCzD/zxrbm8liLOqVuJvztSecqj94chxaR2ulLRZ6nNCroa9ba/7cN2DxHVUFdnmSURWuiay3wdgG7onPeVZbu+Pzzzku5UDHxiNZD9yyMV+T2/+Oj6I5ByRWvPPkqVon7Pxo+mpmDJClMRS4IlUpH4scnqDvBzyjCiQvTFh8e5g2sk0mTXIep7Fupy7nD9EUjlTj2nfax2tBUs+xBl04yVqcXxiXRSZC82DtMwEgGJjlZsJYvQgkJaPgwpzjKsl6hvo1P4skw6pk6Uf9nvuZLUD556scVjWZQ1rbVxyhy/EXtBDcrK5gdWG8bjxw4SnFYJx/d1fySkPwqpG03J17SP/Yu+/AVYpWgRgR9G2De/hjSMb/M4hEDsI8trvlUH/3t5+rJguTpEfT+oDtrAlT+5ppLWcWpfx1f2EyQ1xJJkoSFBR7AQQgrR4mRFEg6lQW67/wqhHT1gHaK+f6Ry63Zid3LeJsWIOEoVL3Kj2/4HHcNLWA2CBr+gY5cjDQPp4BMWJAXTPIGWJR8Z5+hO2ShkCWmu3aEi5cSRuQ5RP2ChTmsK6sE3l/f9jaAr9hTr9feMTCV8xJR4ohEn+CO80hNiCCLsdzmO45BAGXaPEEV8ACCx1AJFD2Vz2u77pMrP2cw+H0HyYbdKOH7QQj2yHZJ3xwerEqHDmLIrpM6GKUO0cWzbGmJAWhG/G8VufEteQAxgGzZkubxd3+aF1nxYroDR2HWrVcvuFEsRE9A2QoRwJISvPd9P6f7+wySlQ/HZ7/e2Yk6W0yfOWaY6EhbSZ0unEEbjJSRAuFhmH4nKcGJnidculDXfdQkpawwzoNxBmoTrxfe0p7io2vP9tIV6/zvhecc4LBlWvge20Txf57c+UgMa7MXS5k6cWUJSODkttB/H70llSOQjKmLhssxcqAIInNb46kNymzWMJUam89We72eOVH5nEvlvRHVJ+rXbN9sZkFUeIiituM0bwPAGgp8OaGm9R0FQVkxkDbaEWL5sSlPgxY7NPZ80CV/33JtPOZ59WRtaAfVTRyp8faI/3veV9GxOJf0AKfP0iJK8NbGPV3a+jlicYBoSdnm2wSL1FmxrjNJEPpqsacd5ouxWeq6IP8ERAjcD2UOdX1Zo+74uzn/uSOVF97HJxN7l9Nz3eRR7f/o9E6QIUMrCyGZHGkK8XKDt/ELGsWDxHxLDD7xCR5CRxJDmTq1kiBLX+h3S0HfLWGbHUvxaHaJ+cvfntu3FPjEpy0fl3eC9PRekuhVRLc5SXUeyXByZFAwz+VwmosPCa2cUtnpk0EyQuiZiHjWdbNWBF+d3Jq855vPVnu+Hg4peKJF9iOPf7t5eon75SCWx9FqbUxCWeL9A0nZtuBZFpUBcJCILd4EEuiHQFcqGhbbpHG5oOKYtP9GHDAuYy8dVylcd/ENcqXpOpff7PjW3f0SCqeT+0rE29RRkJfa36YQDwSMTMOH8LSW6QY2RWOdYpebr4LElxCmKblgsMttvJrYxLGALZ+abV8b5w4xUeZV0MECnvOT+XBE6/FANKweZZETnJs1bvyW+cuIulimtuGDFRnGeIRlkatFEuaO3dWEs0Y23AuqRur8cSHpHBmw2/NMrn+IMNcoYbPs6CykGMg6boM3hUKyIGijVmkQdkVtinqBYBy+phIcKFV94+ZWpUYaPdvp9WU00j67UedwGetNg93eSey/FwUMKaRnHhe68oDgmNDS8jyCVIYdGyeWOEtoync/dwVXpWQYf6xD1cN3fC4Wn+DsISj5fqU7T/PFm0zZpDQ24DilJTFSwdljZRxaHTPrT2Vhidac/atfC/Nja8z0eqF5esjfF8c9RMUBga9pzAIpUukDT0jhdpkXoSLbln4lRMc4jsY/oCpVjOLJFgfNHe2v6i772fA88UvV3NSasN3ACqqft9D5IpOTwhFNTovK0kGPLIBwkFSPOUqGjgAFSTOniyOz98cbaO4q1qYB65IV6n4doKT1H7ifs93zb/WnzTJDCqkTsB0q0sYoI5YygC6QcYD2BoUU6/twg2JhTzI9fldPuV8EOH+9+zstFvQ5RDz9SRZqF+Uzv3Uqq3RP7kYcFsGXvZ56kPOGnBP7YKpqKlNW6Yc0uhUWNiB18mIEdzvUrJ3FYYLKf1DViH8UvdxKuvwWruJVwzntz0kTVIerhR6rofJGN+qKo33ewEqN7JtNqWTY/B6QSk8fJgIWvu2FYQqexNs2xJcGYlQQO3XG5IhepRrIZxEB2z/38Zge38SVgkWHt+Z5ipOIpOodTbZKLviYq8fz9TJYvhvd1NiRlleL1XdfQTm8Ain+/BgWU/U5u5/MlaJjGAXLc7hoO+vVx1xVvxfwcOoET58HXnu9JRqroYvYYya+w+1KfWET3bKMJ1hbv9Aen0hoylTDc+5FZBIW9i+IwBab3NWQZm/jAG6kqETursUAcC46v7nfkRLk1qMNt4td8ZZw/V/fn3K3xK0m/n2HKb9cUW3OyB4cUIwrRZJTpVKC1g2kkC57DoVLIkfC8ocjyQrCqEQnH13Dy2xpfDufcI1RAPV/3F9eM32Jl3++dp3Cufuf3/MiQksOuVUaH0HKcbkQwvU0cwbaEoDpI4zWNS6IsBjlFiTtfv6Y67A+FFwKzr7LdJ12oe7eNuPz0vXGz0FzZtGCfgE0rkMIKZW3TLnPqsBRx+NoSmYU+TiFcFoRWAwmgFYtrLFFuJ1HCb2LXct/Mf7MOUU8KqignXOe82xuj6G4B2giqLefv0YKpRNSuAIZ/DLmX0yFqCJoownKJArI++jXPv7ABTLbw+TgPfg2l3ms96nKWMut9a8/3xFeqXtYU5eS7t4lxvljT5jq1Omk+Ep5ka2dxUPIhLYpPuRc2MucNRWwiWYz9F0tVCiHPjhRlnX3B9oZwrDmG3DL3lc737CNVn8uU3+v5vFGAC/GPdR/6wVYVinVRWnWK/CWm4Q07PXZC6m1jtOENRXhNcVoWpvN1ucu1WbZ7pEiVTpn+gq9D1Am6P2JSlFiqAwSlEk0F60ylH46jZAEhdRFi+dRxvzeQY7OBRIt0i1CKECL+gmajUDET21AhDqSi+BpffR5Q4QstBM4jgaQbb9pH3FMA1VWtVAdkIvH2a6K0jcgXKRwQraLVBHNkgT8pNJOVbLzLpmXtEl9qz3eaK1XMVmN3KejcbaR6nMbPyPxnebsnqg0Fr8I8UpZio97wW3xAre0ITUZr2kr0bv8M9TFztzLOT3alukuakNMyHYt+H8qUTNP4hz0rFamFnWMbMg1Lb+J1HofrMM4DYAtI9hKgNUUZrluJOzQyNXnthCPVPe8VZgsSGP07Z9ofLozqWOhkIRFsQgKaoS7WGMUmLfMUsHTNYbpE2xH7aE3h8CuBa//zU6auOkSdcKFObn+u0Pj6bE97wPalgMrQO9b8+xv6G/nmK/mIfWFxRiJSBJ90eWc+RqNMSLTqu46cDB/orsurvrSl8+13aRHpJn9fh6izdn8+ZnuybO740Sj//38+OxH9KhEnmowe+7unw7dDqiXyEbZyTZiv8zAl20ITedVndAqBKha7TUSipnN/KIvzvUYdpTXMTm8k66hD1HlBRaZ9fk0m/Q1EX7Q8XKjkQKU/a7v+Lppu/1/aobQAIt8lEdRMoRsdtNryzhwxZRXEYWRnCTGPZUB5t38XWqzdXARhItch6vQjlY83HH3A0CeQEuZaBtXKUv/+zu+WFyXfUciNwZ4vBWz7hqgVeUfoToyaW7DQWjKWAFtytW4pHPvdbwhLiCRyz6my3TpSseGf6/uDy+KSDCKi31vU73fv1UthLFE+JM3QsMyXEGd2ayFVvGWD5v8OYZj/gU61VskxqrM5vvpgqI3opKNYtVRA1e7vBT9a/QdE/Y+9K9Ft5EaigIRuJRSb3CAciUe31P//lctXxT6kyBbb43NQhWB2k3gMZ+Bn1vGOqs6HWddFSV9eqa9erBdziRlSyqdgSLWBG9R1HK/XYTwGgw0FkSgQeK0z6hR4VqG8UHbjXZcP5/kPUoYoqQIqu2RSLd8n9jmZwrqJTrG8Ut8NUn0czsPRmCOML0906M2jE636TrkV9Hrv92w2W4xY7LbOj3d95HEuQ5TUvFCfnihXt5lYXWvcLZ3iGzR+DCmeq/yv6/lyBVmigcflMIyIsh6jMvHS95eQcm/YadOYFKKdYqLeRCuRIUpqDSqIfssOeKXzbitRNfso3du+fD4TEDMRQwobB+wihvwyjYFVvCHmSarF6s90ecry7KlBq77IR6XqgZJj7mzJDXDCOJd60P058kOKtRlkK0xZ2lMUZ7IZS+Zrninanpt9SrrLDV0emjKkvAKmSKOrYdaSIUVdqtYav7CZWFljVmGKb3lkPEB/YgIoqQcL9SKlspPkboPHAv02Gqm+A0ndYIaK0cAujJIMh5iQcWg00ctH5MWD8qFp9Ms/CGIRrtTHBkw/fWxrhc4n9fJIFSmQ+bV1390peP1Tm9M+WPjx1fy/rlN9nxqjGsXBhiF51aC/C2nknEO2jy2hAUtceO0YNT3mItuVen2k4sbHxZps3zXyFnOy9ZnqCxjnjCiKfk+qof04gg1jyl+Y9sdxKBZ9xZC5AMrN/oa1iAJNAtwTJ+wjqScjlS2ZBI/Xfi9NGnbKeotfLFAkEX+nO+SAevK+1CTebfE1hSPpeSHbJRqgKUPU4q5r6ykTLY67YiAr9XykwmwQX8LPsmx3/w0l4NfKe7O6/X4BooAXGF32UWm/z9A5IsIQMGpM3//KoE+0ZTee9nzzNmY9SD0LYoArInkyS88nVQeqe0hZ+/rP8cLFvr1SfRakurLmI0ilRIDJT9MYSKqRp6mRiOeqy10g5IVesVNLnGMX5s1E7UHKCvtIattINb87dvF7bCtYBWzHypn0RKidaAwfNjsZiEsgi0r0Nmb4DCEoHaEqhKtE06gEu4kESBkeouDOZ+J/FpuPflwsxubz/oL/SEQHL7VppCK5giv++LZe3Mof2hJDHX5EXffBmCL2A8xXvNdm33X7K9kw75C+cYzYonuOEBgivNAZ51qV+OoqUuyNSRStRB1domSIktrU/R3oghvzYIUx3FVbaZa+6HMsX+BrCdmgQX41Mg07YksMwUMS1XuVn6i+Dwk09Ay4shEkA1lbedFuF8Gz5d0gKCbS80m9pftzxei56DiquG+T0yqDynz8OgKuzA0lAVCbafrzeD1fjykO5z50ylPyrr/0MT9ktDcxjSFNVN0NypUADv7PP5RHWwAl9baFepyIN1t8KeZFRgaVXjmnf0j/hzg1oxXiq/v8Nik0fAMk8UixHkKDV+t89YqcJbTm0IBirlxntnv7/3GMEvaR1G+MVDSQt27DwWbKU6Lft4qk/6iZCnxd7ykHfkjBpyPy167n0yUxOzbPVD2yAvb5I5vZ+6j658P9miI68T6S+r2RioM+eD3x/DvxlqMER4a17uMdIHX/SfAOwk0s4aA7hISG70J5AelfpK6peLkAWSD8ITSgAKqWebROMqT/JBmipH5zpPqbLBVaW8vQXj6Svgft4qH+LpC6A2anO6M6sI8uITKm8nPVRwDsmocpn+EWInjnpiNAte6G7FHnJmanNC4nQ5TUu4xUjp8pFjPYasP9KcGC0z5ecVLaKojCZWnXcMo7tg252Tv3gS66A2wuYSXLBn3M49XFhMy7zdJC3s84Wpu3B0lek3qn7o/UiXaKz95mT0tZbySzeBd++vREYXMOa9i98gbJAROMxoBhaoo29MAyaQxpK9G+oawlkgVibWSIknq/7o9Btd0hvDDUsVDX5h3kvhOidpRVY3yfQlI72u5pbeikG/45H/PT5UOPu1RR7TZzz7fVsZoZ9lbYR1Lv3f2xecs2+6DJHAXfkub9GOqaHyllmhHWLKbJw9QpwUOCnqbxfPFa+V1wO0PjFjwoNpx27xpXukkJ+0jqA0AV2y2RtQukmBjHp9930iYa6KC8N1fYHUXNVIkOEbwZU/8ihw3WzXuveN7yE/3jLeE/CJkS9pHUx4xUcbOBkF1Ev6Skfy8aEs5RGUD5lTpf+6homNqr/B5BF38eIgUMQIAIqmFcTNK2D1JWUjikPnCk2mzHtYxfZff3Hj4vyIU/4s3Lb9JIqWt5mBqj8XutVLycrj12jPgw7AP9FAPg3Buy16yTIUrqQ7u/N3xTrn+lrLdN3hTdco4qeRwZKvsxz1A77bHdA6ba/nxNoXBij8eQiKekESrgmEbfulqXmruvXoYoqQ8GFZu9sOddGfirw5go680vifRaP3+QSJJBiiiswnWHaABsIU4Xr5pwPV04Df58zpAyHYk3iHlERi2QcLh25fpep/fijo/d+aTnk/qMkYrpo1Oy0lNZ+U1IIPkolRidrhpSXu8BKe93vr+OLWMK192ezlH9iIBQyrgnc74i4XjLho9es0iXben5pD5tpMLTNInjyf+vfhXoeKQylVqq4h6rldF706kduOVDpBTrY4g9PProHHUeXYaSXsJ5vX/D0pzUUJRkF+USJfWJ3V9byLQ3wtcaGuB0+q2/UWVIwUyCWOR0kMKaL2UwIbk6Xs5DMonWfNeU+0Jq/EqUYW1cgF2K4gJyu5dhL5coqU8fqVx7F55TuVAjOCKUtApWxapFNT7hddt74OdiTLiccJPKM5TPmIJXnzf7+RPO8dW1Aq+JbUVMxtiKDl7q87s/yyP87DfR1hoMgYXKAYo1mOIsDu0bHy5japoU4CcWtAoXmLQMeYZqTAgXuPNpkJQapRFfbdva6DX+8heJvxUdvNRXPVSWlEfVXi+l8StRFytzsmdqjvw/ak858CEkJMOP3ut9POLOm+FF8kL0hYZku95TCHV1TtTaZDa6g9D5pL4OVIfJk6EaUiUQrRDuoqlo+4gHkX+B59H5GgzsJIagOrMHuDgsCmaYuTfUkyNzUcFvkBmWmAELQEnPJ/VVBR8lx1GILaXc2k37asdKepqUXtpN7A2v3LsuhfMJphLQvp9S18CaOZGzBL1ktJboyFhiOpPVAp3mQootEe8jqa8fqQ48HDnSFW0mp2KkUqrx6oUUnQ6ISin5XWdCnpsypn7Fy+l8AXtPm4yp4QK+rOJdu6EhavK+rX86Xclri+LILPXloKLuL+KvN/B9Ws6kNy8qP3Z5MlIjjFoUjGR7Sraxw7mP1Awan1LcaToIpxSKytBtkUoy/YOM4GVxLvVdRqpICWb1UTLtbS5VhOj3Ie/P+J3WikwljMJd1x5h1NKX2IBOa9Ap8jsHSMXVM1lPkGUXCnLUlSFK6tuMVOT23Lq3pEa3JeuteXim2nnti6mEUfs8ScGo5QS/c0+emB1cWnYp6M7HJcLH1jPmp915K0OU1Heqw2HbN/J9LpWNhfT3wE220apgCkeoGPLf/HM6Hylvu7xUIXnvZlsmu2GM4t/QSpSh1Dfs/qyzG+0dCumWt3/RP2j92GBMeTK+DPATQ2zAeILdZQf2EXYUkE+5IoS39jYFqwJRtK+UIUrqG3Z/h62q2YlXx/lOj0S/nWJMKQ6x7ukIpeErdvS6KOabaXHu3Iqwt+WREu8jqe8KKktRZo526ux/t8X4pXWBGeqQaLDuQ/Mz1TXEjB0SvC+hf//lJzJ7fqGYztc+Oe26u+w5Wpo7GaKkvnP9deBkC4RDM1fO1oR0rkTproxU+t6u2RjC1PUUgimph/RBcGR2s7TkZUi5dvVBBe785QmgpL77SGXbKUB7+g6vDcjAb8oj1WIsq2ezZsUKjhOEho3+H0k4TGGcT/TYV/u9u39HGo4YrSzOpX5E91c4SqXbqjtXTWsKNwcTFHUuY0ebBOr5+ZIbP689WVAQQZZZhi/q4N3aVmb+e8sesjJESf2E7u9vEiiSdV8h2y3bdfcsnqCYkymzdhiDwaUhBcfQJyzPFdZ8tDjn9NxXPq9b4k6n7BFbninp+aR+TvcXiyeFuz2ouporlbsNUCRI4frUGBVTKBxbw0OUfRJqwyKbnyZHAAAEGElEQVQPxnRJM5wfRWEfSf0kULV3mlo7Z9O/nktVdBno/gqbgh+priNmLW0vOk5es7ZYXrzmJsaL9RlRK6wJoKR+1kgF/wbLYsNKJ3VuzEobR9a0y1PVNaoj82eQkOgSNYGvdc+khvZWZMj/TIYoqR84UtFZajrBVp+BbXl4CkOdF+qkjsLenH4xs5mYq/l05YlykxuFGMhK/eCRipVU9aCaqUSFT6HY7wjNXoOU6/wLNFGunpY7UZM4zodO0NLzSf1cULUcnegqzV4Xq+e27P7Kw7SSe0S3hfg00WI5HyuKhEPqh49Uh4Nd+apsQgLtxxdzMvKVuDntboivLv2nLM6l/oSRKqMq8tizifE37d0BKm2Ib84e5/bFdcSDV3D6LGWkEh281J/R/b1FQj/5/RNHSZXTbsvHYNs+yot6SEha3ZjtwcoQJfXHjFSbpVT8UPFuwbOZmJsdbe2DZ+ll2uz/2zt33YZhGIpuMjpx4dDq/z+0FUnZ8iuJYwUo7HNWD54IPkTeW+RaytycJgquU/3JQR9CrZ40YQ31/VOmEtoY26xeuxrLm0VoeYqi5oMrBdVQMpVJT0rddI0b+cejwNWX5zu4cb3h/4p0h4AsXLL6U7e+laqkvggcTW96VM8TUiQp05Ye4nyLlyi4IF/xSqVR1ek6F50PKRmXLzSSlQlLkKLgoi3VsCNWLqkTVccizDhEEZCFi7dUPnTQcUu2O7Gna3fFmoUTDrh+S2Vmv/KZkNIqk5RDnY/BOVy/pfrLIDl9iNGbxwzlqPngJtWfSvpYTI1vWazzwZ2qP6nysM2o4oCi5f5VcAodaVw44GZBZd1OlVGf1h7eDqn25FARE4M7tlRlSBFWUCn3G6LbygQ1H9yypZq2zTu2UmVwngkouGlLlbOfE/YLKuEOHm5d/Q0n+qfNiGJBFu5d/X3FUWGviCKggOpvsGm6ptPzc+FpF8CDKrbydH4iv18TTp9M9MivqDKDc4Cxpcpm9jYZwu+eJVaXqNS87Zb9JgIKoG2pSqYSzcMsT21IYM4DTSavKJoogEX1Z1Vca7armyE1j6lc7OEyZ7sAG0El1TpgN6A2y0FlnQ9gp6UKqbEIqReegE0bmjt4gN2Wql2l2Bfma70IaKIAHlZ/U4Zq5nor790YnHMHD/B8TmHJR6rnxiI/qZ8v2q09LhwAL1V/5ZWqNfyYGYK6TZS6JDM1H8ALQWVHv2pqfOuBX+jVYmsDcKj6K5qWG7bWQ4zXsa8GOESp/lzueXENlX0QSBMFcLil8py0Ot8o+rHUfADvtFRZNyZ+LEsAnGipZq+9rixBQAG831K5G3yYBygb5wCnWyobUri7DYNzgB7VX8quT0ETBdArqMQUmRmcA/RqqWiiAPq2VAQUAAAAAMA/4hcolDD00VjWnAAAAABJRU5ErkJggg==;" vertex="1" parent="1">
          <mxGeometry y="249" width="520" height="602.59" as="geometry" />
        </mxCell>
      </root>
    </mxGraphModel>
  </diagram>
</mxfile>
